solid OpenSCAD_Model
  facet normal -1 0 0
    outer loop
      vertex 20 0 0
      vertex 20 2 0.75
      vertex 20 2 0
    endloop
  endfacet
  facet normal -1 -0 0
    outer loop
      vertex 20 2 0.75
      vertex 20 0 0
      vertex 20 0 0.75
    endloop
  endfacet
  facet normal 0 0 1
    outer loop
      vertex 14 16 0.75
      vertex 10 16 0.75
      vertex 14 14 0.75
    endloop
  endfacet
  facet normal 0 0 1
    outer loop
      vertex 10 8 0.75
      vertex 6 6 0.75
      vertex 10 4 0.75
    endloop
  endfacet
  facet normal -0 0 1
    outer loop
      vertex 0 8 0.75
      vertex 6 6 0.75
      vertex 10 8 0.75
    endloop
  endfacet
  facet normal 0 0 1
    outer loop
      vertex 6 6 0.75
      vertex 0 8 0.75
      vertex 0 6 0.75
    endloop
  endfacet
  facet normal 0 0 1
    outer loop
      vertex 8 12 0.75
      vertex 10 14 0.75
      vertex 8 14 0.75
    endloop
  endfacet
  facet normal 0 0 1
    outer loop
      vertex 10 14 0.75
      vertex 8 12 0.75
      vertex 10 10 0.75
    endloop
  endfacet
  facet normal 0 0 1
    outer loop
      vertex 6 10 0.75
      vertex 8 12 0.75
      vertex 6 12 0.75
    endloop
  endfacet
  facet normal 0 0 1
    outer loop
      vertex 8 12 0.75
      vertex 6 10 0.75
      vertex 10 10 0.75
    endloop
  endfacet
  facet normal 0 0 1
    outer loop
      vertex 10 4 0.75
      vertex 6 6 0.75
      vertex 6 4 0.75
    endloop
  endfacet
  facet normal -0 0 1
    outer loop
      vertex 16 4 0.75
      vertex 20 2 0.75
      vertex 20 4 0.75
    endloop
  endfacet
  facet normal 0 0 1
    outer loop
      vertex 10 10 0.75
      vertex 14 14 0.75
      vertex 10 14 0.75
    endloop
  endfacet
  facet normal 0 0 1
    outer loop
      vertex 14 14 0.75
      vertex 10 10 0.75
      vertex 16 6 0.75
    endloop
  endfacet
  facet normal -0 0 1
    outer loop
      vertex 10 8 0.75
      vertex 16 6 0.75
      vertex 10 10 0.75
    endloop
  endfacet
  facet normal 0 0 1
    outer loop
      vertex 10 4 0.75
      vertex 16 6 0.75
      vertex 10 8 0.75
    endloop
  endfacet
  facet normal 0 0 1
    outer loop
      vertex 16 6 0.75
      vertex 10 4 0.75
      vertex 16 4 0.75
    endloop
  endfacet
  facet normal 0 0 1
    outer loop
      vertex 10 2 0.75
      vertex 16 4 0.75
      vertex 10 4 0.75
    endloop
  endfacet
  facet normal 0 0 1
    outer loop
      vertex 16 4 0.75
      vertex 10 2 0.75
      vertex 20 2 0.75
    endloop
  endfacet
  facet normal 0 0 1
    outer loop
      vertex 26 8 0.75
      vertex 24 6 0.75
      vertex 26 6 0.75
    endloop
  endfacet
  facet normal 0 0 1
    outer loop
      vertex 24 6 0.75
      vertex 20 6 0.75
      vertex 24 4 0.75
    endloop
  endfacet
  facet normal 0 0 1
    outer loop
      vertex 26 8 0.75
      vertex 20 6 0.75
      vertex 24 6 0.75
    endloop
  endfacet
  facet normal -0 0 1
    outer loop
      vertex 18 8 0.75
      vertex 20 6 0.75
      vertex 26 8 0.75
    endloop
  endfacet
  facet normal 0 0 1
    outer loop
      vertex 20 6 0.75
      vertex 18 8 0.75
      vertex 16 6 0.75
    endloop
  endfacet
  facet normal 0 0 1
    outer loop
      vertex 24 16 0.75
      vertex 18 16 0.75
      vertex 24 14 0.75
    endloop
  endfacet
  facet normal 0 0 1
    outer loop
      vertex 30 16 0.75
      vertex 28 14 0.75
      vertex 30 14 0.75
    endloop
  endfacet
  facet normal -0 0 1
    outer loop
      vertex 26 16 0.75
      vertex 28 14 0.75
      vertex 30 16 0.75
    endloop
  endfacet
  facet normal 0 0 1
    outer loop
      vertex 28 14 0.75
      vertex 26 16 0.75
      vertex 26 14 0.75
    endloop
  endfacet
  facet normal 0 0 1
    outer loop
      vertex 36 16 0.75
      vertex 34 16 0.75
      vertex 36 14 0.75
    endloop
  endfacet
  facet normal 0 0 1
    outer loop
      vertex 40 14 0.75
      vertex 38 12 0.75
      vertex 40 12 0.75
    endloop
  endfacet
  facet normal -0 0 1
    outer loop
      vertex 36 14 0.75
      vertex 38 12 0.75
      vertex 40 14 0.75
    endloop
  endfacet
  facet normal 0 0 1
    outer loop
      vertex 34 14 0.75
      vertex 36 14 0.75
      vertex 34 16 0.75
    endloop
  endfacet
  facet normal 0 0 1
    outer loop
      vertex 36 14 0.75
      vertex 34 14 0.75
      vertex 38 12 0.75
    endloop
  endfacet
  facet normal 0 0 1
    outer loop
      vertex 34 14 0.75
      vertex 32 12 0.75
      vertex 38 12 0.75
    endloop
  endfacet
  facet normal -0 0 1
    outer loop
      vertex 30 14 0.75
      vertex 32 12 0.75
      vertex 34 14 0.75
    endloop
  endfacet
  facet normal 0 0 1
    outer loop
      vertex 28 12 0.75
      vertex 32 12 0.75
      vertex 30 14 0.75
    endloop
  endfacet
  facet normal 0 0 1
    outer loop
      vertex 28 12 0.75
      vertex 30 14 0.75
      vertex 28 14 0.75
    endloop
  endfacet
  facet normal 0 0 1
    outer loop
      vertex 32 12 0.75
      vertex 28 12 0.75
      vertex 32 10 0.75
    endloop
  endfacet
  facet normal -0 0 1
    outer loop
      vertex 26 12 0.75
      vertex 32 10 0.75
      vertex 28 12 0.75
    endloop
  endfacet
  facet normal 0 0 1
    outer loop
      vertex 18 14 0.75
      vertex 24 14 0.75
      vertex 18 16 0.75
    endloop
  endfacet
  facet normal 0 0 1
    outer loop
      vertex 18 10 0.75
      vertex 24 14 0.75
      vertex 18 14 0.75
    endloop
  endfacet
  facet normal 0 0 1
    outer loop
      vertex 24 14 0.75
      vertex 18 10 0.75
      vertex 26 12 0.75
    endloop
  endfacet
  facet normal 0 0 1
    outer loop
      vertex 26 12 0.75
      vertex 18 10 0.75
      vertex 32 10 0.75
    endloop
  endfacet
  facet normal -0 0 1
    outer loop
      vertex 14 14 0.75
      vertex 18 10 0.75
      vertex 18 14 0.75
    endloop
  endfacet
  facet normal 0 -0 1
    outer loop
      vertex 16 6 0.75
      vertex 18 10 0.75
      vertex 14 14 0.75
    endloop
  endfacet
  facet normal 0 0 1
    outer loop
      vertex 10 14 0.75
      vertex 14 14 0.75
      vertex 10 16 0.75
    endloop
  endfacet
  facet normal 0 0 1
    outer loop
      vertex 18 10 0.75
      vertex 16 6 0.75
      vertex 18 8 0.75
    endloop
  endfacet
  facet normal -0 0 1
    outer loop
      vertex 40 12 0.75
      vertex 46 10 0.75
      vertex 46 12 0.75
    endloop
  endfacet
  facet normal 0 0 1
    outer loop
      vertex 38 10 0.75
      vertex 40 12 0.75
      vertex 38 12 0.75
    endloop
  endfacet
  facet normal 0 0 1
    outer loop
      vertex 40 12 0.75
      vertex 38 10 0.75
      vertex 46 10 0.75
    endloop
  endfacet
  facet normal 0 0 1
    outer loop
      vertex 26 14 0.75
      vertex 24 14 0.75
      vertex 26 12 0.75
    endloop
  endfacet
  facet normal 0 0 1
    outer loop
      vertex 42 4 0.75
      vertex 38 2 0.75
      vertex 42 2 0.75
    endloop
  endfacet
  facet normal -0 0 1
    outer loop
      vertex 36 4 0.75
      vertex 38 2 0.75
      vertex 42 4 0.75
    endloop
  endfacet
  facet normal 0 0 1
    outer loop
      vertex 36 2 0.75
      vertex 38 2 0.75
      vertex 36 4 0.75
    endloop
  endfacet
  facet normal 0 0 1
    outer loop
      vertex 38 2 0.75
      vertex 36 2 0.75
      vertex 38 0 0.75
    endloop
  endfacet
  facet normal 0 0 1
    outer loop
      vertex 38 0 0.75
      vertex 36 2 0.75
      vertex 36 0 0.75
    endloop
  endfacet
  facet normal 0 0 1
    outer loop
      vertex 32 4 0.75
      vertex 36 4 0.75
      vertex 36 6 0.75
    endloop
  endfacet
  facet normal 0 0 1
    outer loop
      vertex 32 4 0.75
      vertex 36 6 0.75
      vertex 32 6 0.75
    endloop
  endfacet
  facet normal 0 0 1
    outer loop
      vertex 36 4 0.75
      vertex 32 4 0.75
      vertex 36 2 0.75
    endloop
  endfacet
  facet normal 0 0 1
    outer loop
      vertex 32 4 0.75
      vertex 32 2 0.75
      vertex 36 2 0.75
    endloop
  endfacet
  facet normal -0 0 1
    outer loop
      vertex 24 4 0.75
      vertex 32 2 0.75
      vertex 32 4 0.75
    endloop
  endfacet
  facet normal 0 0 1
    outer loop
      vertex 32 2 0.75
      vertex 24 4 0.75
      vertex 32 0 0.75
    endloop
  endfacet
  facet normal 0 0 1
    outer loop
      vertex 20 4 0.75
      vertex 24 4 0.75
      vertex 20 6 0.75
    endloop
  endfacet
  facet normal 0 0 1
    outer loop
      vertex 20 2 0.75
      vertex 24 4 0.75
      vertex 20 4 0.75
    endloop
  endfacet
  facet normal 0 0 1
    outer loop
      vertex 20 0 0.75
      vertex 24 4 0.75
      vertex 20 2 0.75
    endloop
  endfacet
  facet normal 0 0 1
    outer loop
      vertex 24 4 0.75
      vertex 20 0 0.75
      vertex 32 0 0.75
    endloop
  endfacet
  facet normal 0 0 -1
    outer loop
      vertex 38 0 0
      vertex 36 0 0
      vertex 38 2 0
    endloop
  endfacet
  facet normal 0 0 -1
    outer loop
      vertex 38 2 0
      vertex 42 4 0
      vertex 42 2 0
    endloop
  endfacet
  facet normal -0 0 -1
    outer loop
      vertex 42 4 0
      vertex 38 2 0
      vertex 40 12 0
    endloop
  endfacet
  facet normal 0 0 -1
    outer loop
      vertex 36 2 0
      vertex 40 12 0
      vertex 38 2 0
    endloop
  endfacet
  facet normal 0 0 -1
    outer loop
      vertex 36 2 0
      vertex 38 2 0
      vertex 36 0 0
    endloop
  endfacet
  facet normal -0 0 -1
    outer loop
      vertex 40 12 0
      vertex 36 2 0
      vertex 36 14 0
    endloop
  endfacet
  facet normal 0 0 -1
    outer loop
      vertex 40 12 0
      vertex 36 14 0
      vertex 40 14 0
    endloop
  endfacet
  facet normal 0 0 -1
    outer loop
      vertex 34 14 0
      vertex 36 14 0
      vertex 36 2 0
    endloop
  endfacet
  facet normal 0 0 -1
    outer loop
      vertex 36 14 0
      vertex 34 14 0
      vertex 36 16 0
    endloop
  endfacet
  facet normal 0 0 -1
    outer loop
      vertex 32 2 0
      vertex 34 14 0
      vertex 36 2 0
    endloop
  endfacet
  facet normal 0 0 -1
    outer loop
      vertex 28 12 0
      vertex 34 14 0
      vertex 32 2 0
    endloop
  endfacet
  facet normal 0 0 -1
    outer loop
      vertex 48 4 0
      vertex 46 10 0
      vertex 48 10 0
    endloop
  endfacet
  facet normal 0 0 -1
    outer loop
      vertex 42 4 0
      vertex 46 10 0
      vertex 48 4 0
    endloop
  endfacet
  facet normal 0 0 -1
    outer loop
      vertex 40 12 0
      vertex 46 10 0
      vertex 42 4 0
    endloop
  endfacet
  facet normal 0 0 -1
    outer loop
      vertex 46 10 0
      vertex 40 12 0
      vertex 46 12 0
    endloop
  endfacet
  facet normal 0 0 -1
    outer loop
      vertex 10 10 0
      vertex 8 12 0
      vertex 10 14 0
    endloop
  endfacet
  facet normal 0 0 -1
    outer loop
      vertex 6 10 0
      vertex 8 12 0
      vertex 10 10 0
    endloop
  endfacet
  facet normal -0 0 -1
    outer loop
      vertex 8 12 0
      vertex 6 10 0
      vertex 6 12 0
    endloop
  endfacet
  facet normal 0 0 -1
    outer loop
      vertex 6 6 0
      vertex 10 4 0
      vertex 6 4 0
    endloop
  endfacet
  facet normal 0 0 -1
    outer loop
      vertex 10 4 0
      vertex 6 6 0
      vertex 10 8 0
    endloop
  endfacet
  facet normal 0 0 -1
    outer loop
      vertex 0 8 0
      vertex 6 6 0
      vertex 0 6 0
    endloop
  endfacet
  facet normal 0 0 -1
    outer loop
      vertex 6 6 0
      vertex 0 8 0
      vertex 10 8 0
    endloop
  endfacet
  facet normal 0 0 -1
    outer loop
      vertex 10 8 0
      vertex 18 14 0
      vertex 20 2 0
    endloop
  endfacet
  facet normal 0 0 -1
    outer loop
      vertex 10 4 0
      vertex 20 2 0
      vertex 10 2 0
    endloop
  endfacet
  facet normal 0 0 -1
    outer loop
      vertex 10 8 0
      vertex 20 2 0
      vertex 10 4 0
    endloop
  endfacet
  facet normal -0 0 -1
    outer loop
      vertex 18 14 0
      vertex 10 8 0
      vertex 14 14 0
    endloop
  endfacet
  facet normal 0 0 -1
    outer loop
      vertex 10 10 0
      vertex 14 14 0
      vertex 10 8 0
    endloop
  endfacet
  facet normal 0 0 -1
    outer loop
      vertex 10 14 0
      vertex 14 14 0
      vertex 10 10 0
    endloop
  endfacet
  facet normal 0 0 -1
    outer loop
      vertex 14 14 0
      vertex 10 14 0
      vertex 14 16 0
    endloop
  endfacet
  facet normal -0 0 -1
    outer loop
      vertex 14 16 0
      vertex 10 14 0
      vertex 10 16 0
    endloop
  endfacet
  facet normal 0 0 -1
    outer loop
      vertex 20 2 0
      vertex 32 2 0
      vertex 32 0 0
    endloop
  endfacet
  facet normal 0 0 -1
    outer loop
      vertex 28 14 0
      vertex 30 14 0
      vertex 28 12 0
    endloop
  endfacet
  facet normal -0 0 -1
    outer loop
      vertex 34 14 0
      vertex 28 12 0
      vertex 30 14 0
    endloop
  endfacet
  facet normal 0 0 -1
    outer loop
      vertex 32 2 0
      vertex 26 12 0
      vertex 28 12 0
    endloop
  endfacet
  facet normal 0 0 -1
    outer loop
      vertex 26 12 0
      vertex 24 14 0
      vertex 26 14 0
    endloop
  endfacet
  facet normal 0 0 -1
    outer loop
      vertex 32 2 0
      vertex 20 2 0
      vertex 26 12 0
    endloop
  endfacet
  facet normal 0 0 -1
    outer loop
      vertex 20 2 0
      vertex 32 0 0
      vertex 20 0 0
    endloop
  endfacet
  facet normal 0 0 -1
    outer loop
      vertex 18 14 0
      vertex 26 12 0
      vertex 20 2 0
    endloop
  endfacet
  facet normal 0 0 -1
    outer loop
      vertex 26 12 0
      vertex 18 14 0
      vertex 24 14 0
    endloop
  endfacet
  facet normal 0 0 -1
    outer loop
      vertex 24 14 0
      vertex 18 14 0
      vertex 24 16 0
    endloop
  endfacet
  facet normal -0 0 -1
    outer loop
      vertex 24 16 0
      vertex 18 14 0
      vertex 18 16 0
    endloop
  endfacet
  facet normal -0 0 -1
    outer loop
      vertex 36 16 0
      vertex 34 14 0
      vertex 34 16 0
    endloop
  endfacet
  facet normal 0 0 -1
    outer loop
      vertex 30 14 0
      vertex 28 14 0
      vertex 30 16 0
    endloop
  endfacet
  facet normal 0 0 -1
    outer loop
      vertex 26 16 0
      vertex 28 14 0
      vertex 26 14 0
    endloop
  endfacet
  facet normal 0 0 -1
    outer loop
      vertex 28 14 0
      vertex 26 16 0
      vertex 30 16 0
    endloop
  endfacet
  facet normal -0 0 -1
    outer loop
      vertex 10 14 0
      vertex 8 12 0
      vertex 8 14 0
    endloop
  endfacet
  facet normal 0 -1 0
    outer loop
      vertex 20 0 0
      vertex 32 0 0.75
      vertex 20 0 0.75
    endloop
  endfacet
  facet normal 0 -1 -0
    outer loop
      vertex 32 0 0.75
      vertex 20 0 0
      vertex 32 0 0
    endloop
  endfacet
  facet normal 0 -1 0
    outer loop
      vertex 38 2 0
      vertex 42 2 0.75
      vertex 38 2 0.75
    endloop
  endfacet
  facet normal 0 -1 -0
    outer loop
      vertex 42 2 0.75
      vertex 38 2 0
      vertex 42 2 0
    endloop
  endfacet
  facet normal 0 -1 0
    outer loop
      vertex 10 2 0
      vertex 20 2 0.75
      vertex 10 2 0.75
    endloop
  endfacet
  facet normal 0 -1 -0
    outer loop
      vertex 20 2 0.75
      vertex 10 2 0
      vertex 20 2 0
    endloop
  endfacet
  facet normal 0 -1 0
    outer loop
      vertex 32 2 0
      vertex 36 2 0.75
      vertex 32 2 0.75
    endloop
  endfacet
  facet normal 0 -1 -0
    outer loop
      vertex 36 2 0.75
      vertex 32 2 0
      vertex 36 2 0
    endloop
  endfacet
  facet normal 1 -0 0
    outer loop
      vertex 32 0 0.75
      vertex 32 2 0
      vertex 32 2 0.75
    endloop
  endfacet
  facet normal 1 0 0
    outer loop
      vertex 32 2 0
      vertex 32 0 0.75
      vertex 32 0 0
    endloop
  endfacet
  facet normal -1 0 0
    outer loop
      vertex 36 0 0
      vertex 36 2 0.75
      vertex 36 2 0
    endloop
  endfacet
  facet normal -1 -0 0
    outer loop
      vertex 36 2 0.75
      vertex 36 0 0
      vertex 36 0 0.75
    endloop
  endfacet
  facet normal 1 -0 0
    outer loop
      vertex 38 0 0.75
      vertex 38 2 0
      vertex 38 2 0.75
    endloop
  endfacet
  facet normal 1 0 0
    outer loop
      vertex 38 2 0
      vertex 38 0 0.75
      vertex 38 0 0
    endloop
  endfacet
  facet normal 0 -1 0
    outer loop
      vertex 36 0 0
      vertex 38 0 0.75
      vertex 36 0 0.75
    endloop
  endfacet
  facet normal 0 -1 -0
    outer loop
      vertex 38 0 0.75
      vertex 36 0 0
      vertex 38 0 0
    endloop
  endfacet
  facet normal -1 0 0
    outer loop
      vertex 10 2 0
      vertex 10 4 0.75
      vertex 10 4 0
    endloop
  endfacet
  facet normal -1 -0 0
    outer loop
      vertex 10 4 0.75
      vertex 10 2 0
      vertex 10 2 0.75
    endloop
  endfacet
  facet normal 0 -1 0
    outer loop
      vertex 42 4 0.75
      vertex 36 4 1.25
      vertex 36 4 0.75
    endloop
  endfacet
  facet normal 0 -1 0
    outer loop
      vertex 36 4 1.25
      vertex 42 4 0.75
      vertex 44 4 1.25
    endloop
  endfacet
  facet normal 0 -1 0
    outer loop
      vertex 42 4 0.75
      vertex 44 4 0.75
      vertex 44 4 1.25
    endloop
  endfacet
  facet normal 0 -1 0
    outer loop
      vertex 42 4 0
      vertex 44 4 0.75
      vertex 42 4 0.75
    endloop
  endfacet
  facet normal 0 -1 0
    outer loop
      vertex 48 4 0
      vertex 44 4 0.75
      vertex 42 4 0
    endloop
  endfacet
  facet normal 0 -1 0
    outer loop
      vertex 44 4 0.75
      vertex 48 4 0
      vertex 48 4 0.75
    endloop
  endfacet
  facet normal 0 -1 0
    outer loop
      vertex 24 4 0.75
      vertex 32 4 1.25
      vertex 24 4 1.25
    endloop
  endfacet
  facet normal 0 -1 -0
    outer loop
      vertex 32 4 1.25
      vertex 24 4 0.75
      vertex 32 4 0.75
    endloop
  endfacet
  facet normal 0 -1 0
    outer loop
      vertex 16 4 0.75
      vertex 20 4 1.25
      vertex 16 4 1.25
    endloop
  endfacet
  facet normal 0 -1 -0
    outer loop
      vertex 20 4 1.25
      vertex 16 4 0.75
      vertex 20 4 0.75
    endloop
  endfacet
  facet normal 0 -1 0
    outer loop
      vertex 6 4 0
      vertex 10 4 0.75
      vertex 6 4 0.75
    endloop
  endfacet
  facet normal 0 -1 -0
    outer loop
      vertex 10 4 0.75
      vertex 6 4 0
      vertex 10 4 0
    endloop
  endfacet
  facet normal 1 -0 0
    outer loop
      vertex 42 2 0.75
      vertex 42 4 0
      vertex 42 4 0.75
    endloop
  endfacet
  facet normal 1 0 0
    outer loop
      vertex 42 4 0
      vertex 42 2 0.75
      vertex 42 2 0
    endloop
  endfacet
  facet normal -1 0 0
    outer loop
      vertex 6 4 0
      vertex 6 6 0.75
      vertex 6 6 0
    endloop
  endfacet
  facet normal -1 -0 0
    outer loop
      vertex 6 6 0.75
      vertex 6 4 0
      vertex 6 4 0.75
    endloop
  endfacet
  facet normal 0 -1 0
    outer loop
      vertex 36 6 1.25
      vertex 44 6 1.75
      vertex 36 6 1.75
    endloop
  endfacet
  facet normal 0 -1 -0
    outer loop
      vertex 44 6 1.75
      vertex 36 6 1.25
      vertex 44 6 1.25
    endloop
  endfacet
  facet normal 0 -1 0
    outer loop
      vertex 32 6 0.75
      vertex 36 6 1.25
      vertex 32 6 1.25
    endloop
  endfacet
  facet normal 0 -1 -0
    outer loop
      vertex 36 6 1.25
      vertex 32 6 0.75
      vertex 36 6 0.75
    endloop
  endfacet
  facet normal 0 1 -0
    outer loop
      vertex 26 6 0.75
      vertex 24 6 1.25
      vertex 26 6 1.25
    endloop
  endfacet
  facet normal 0 1 0
    outer loop
      vertex 24 6 1.25
      vertex 26 6 0.75
      vertex 24 6 0.75
    endloop
  endfacet
  facet normal 0 -1 0
    outer loop
      vertex 0 6 0
      vertex 6 6 0.75
      vertex 0 6 0.75
    endloop
  endfacet
  facet normal 0 -1 -0
    outer loop
      vertex 6 6 0.75
      vertex 0 6 0
      vertex 6 6 0
    endloop
  endfacet
  facet normal 0 1 -0
    outer loop
      vertex 20 6 0.75
      vertex 16 6 1.25
      vertex 20 6 1.25
    endloop
  endfacet
  facet normal 0 1 0
    outer loop
      vertex 16 6 1.25
      vertex 20 6 0.75
      vertex 16 6 0.75
    endloop
  endfacet
  facet normal -1 0 0
    outer loop
      vertex 16 4 0.75
      vertex 16 6 1.25
      vertex 16 6 0.75
    endloop
  endfacet
  facet normal -1 -0 0
    outer loop
      vertex 16 6 1.25
      vertex 16 4 0.75
      vertex 16 4 1.25
    endloop
  endfacet
  facet normal -0 0 1
    outer loop
      vertex 16 6 1.25
      vertex 20 4 1.25
      vertex 20 6 1.25
    endloop
  endfacet
  facet normal 0 0 1
    outer loop
      vertex 20 4 1.25
      vertex 16 6 1.25
      vertex 16 4 1.25
    endloop
  endfacet
  facet normal 1 -0 0
    outer loop
      vertex 20 4 1.25
      vertex 20 6 0.75
      vertex 20 6 1.25
    endloop
  endfacet
  facet normal 1 0 0
    outer loop
      vertex 20 6 0.75
      vertex 20 4 1.25
      vertex 20 4 0.75
    endloop
  endfacet
  facet normal -1 0 0
    outer loop
      vertex 24 4 0.75
      vertex 24 6 1.25
      vertex 24 6 0.75
    endloop
  endfacet
  facet normal -1 -0 0
    outer loop
      vertex 24 6 1.25
      vertex 24 4 0.75
      vertex 24 4 1.25
    endloop
  endfacet
  facet normal 0 0 1
    outer loop
      vertex 38 12 1.25
      vertex 36 8 1.25
      vertex 38 10 1.25
    endloop
  endfacet
  facet normal -0 0 1
    outer loop
      vertex 32 12 1.25
      vertex 36 8 1.25
      vertex 38 12 1.25
    endloop
  endfacet
  facet normal -0 0 1
    outer loop
      vertex 32 10 1.25
      vertex 36 8 1.25
      vertex 32 12 1.25
    endloop
  endfacet
  facet normal 0 0 1
    outer loop
      vertex 32 6 1.25
      vertex 36 8 1.25
      vertex 32 10 1.25
    endloop
  endfacet
  facet normal 0 0 1
    outer loop
      vertex 36 8 1.25
      vertex 32 6 1.25
      vertex 36 6 1.25
    endloop
  endfacet
  facet normal -0 0 1
    outer loop
      vertex 26 8 1.25
      vertex 32 6 1.25
      vertex 32 10 1.25
    endloop
  endfacet
  facet normal 0 0 1
    outer loop
      vertex 26 6 1.25
      vertex 32 6 1.25
      vertex 26 8 1.25
    endloop
  endfacet
  facet normal -0 0 1
    outer loop
      vertex 18 10 1.25
      vertex 26 8 1.25
      vertex 32 10 1.25
    endloop
  endfacet
  facet normal 0 0 1
    outer loop
      vertex 26 8 1.25
      vertex 18 10 1.25
      vertex 18 8 1.25
    endloop
  endfacet
  facet normal -0 0 1
    outer loop
      vertex 38 10 1.25
      vertex 44 8 1.25
      vertex 44 10 1.25
    endloop
  endfacet
  facet normal 0 0 1
    outer loop
      vertex 44 8 1.25
      vertex 38 10 1.25
      vertex 36 8 1.25
    endloop
  endfacet
  facet normal 0 0 1
    outer loop
      vertex 32 6 1.25
      vertex 26 6 1.25
      vertex 32 4 1.25
    endloop
  endfacet
  facet normal 0 0 1
    outer loop
      vertex 24 4 1.25
      vertex 26 6 1.25
      vertex 24 6 1.25
    endloop
  endfacet
  facet normal 0 0 1
    outer loop
      vertex 26 6 1.25
      vertex 24 4 1.25
      vertex 32 4 1.25
    endloop
  endfacet
  facet normal 1 -0 0
    outer loop
      vertex 32 4 1.25
      vertex 32 6 0.75
      vertex 32 6 1.25
    endloop
  endfacet
  facet normal 1 0 0
    outer loop
      vertex 32 6 0.75
      vertex 32 4 1.25
      vertex 32 4 0.75
    endloop
  endfacet
  facet normal -1 0 0
    outer loop
      vertex 36 4 0.75
      vertex 36 6 1.25
      vertex 36 6 0.75
    endloop
  endfacet
  facet normal -1 -0 0
    outer loop
      vertex 36 6 1.25
      vertex 36 4 0.75
      vertex 36 4 1.25
    endloop
  endfacet
  facet normal -0 0 1
    outer loop
      vertex 36 6 1.25
      vertex 44 4 1.25
      vertex 44 6 1.25
    endloop
  endfacet
  facet normal 0 0 1
    outer loop
      vertex 44 4 1.25
      vertex 36 6 1.25
      vertex 36 4 1.25
    endloop
  endfacet
  facet normal 1 0 0
    outer loop
      vertex 44 6 1.25
      vertex 44 8 1.25
      vertex 44 8 1.75
    endloop
  endfacet
  facet normal 1 0 0
    outer loop
      vertex 44 6 1.25
      vertex 44 8 1.75
      vertex 44 6 1.75
    endloop
  endfacet
  facet normal 1 0 0
    outer loop
      vertex 44 8 1.25
      vertex 44 6 1.25
      vertex 44 8 0.75
    endloop
  endfacet
  facet normal 1 0 0
    outer loop
      vertex 44 4 0.75
      vertex 44 6 1.25
      vertex 44 4 1.25
    endloop
  endfacet
  facet normal 1 0 0
    outer loop
      vertex 44 6 1.25
      vertex 44 4 0.75
      vertex 44 8 0.75
    endloop
  endfacet
  facet normal 0 0 1
    outer loop
      vertex 46 8 0.75
      vertex 48 10 0.75
      vertex 46 10 0.75
    endloop
  endfacet
  facet normal 0 0 1
    outer loop
      vertex 48 10 0.75
      vertex 46 8 0.75
      vertex 48 4 0.75
    endloop
  endfacet
  facet normal 0 0 1
    outer loop
      vertex 44 4 0.75
      vertex 46 8 0.75
      vertex 44 8 0.75
    endloop
  endfacet
  facet normal 0 0 1
    outer loop
      vertex 46 8 0.75
      vertex 44 4 0.75
      vertex 48 4 0.75
    endloop
  endfacet
  facet normal 1 -0 0
    outer loop
      vertex 48 4 0.75
      vertex 48 10 0
      vertex 48 10 0.75
    endloop
  endfacet
  facet normal 1 0 0
    outer loop
      vertex 48 10 0
      vertex 48 4 0.75
      vertex 48 4 0
    endloop
  endfacet
  facet normal -1 0 0
    outer loop
      vertex 0 6 0
      vertex 0 8 0.75
      vertex 0 8 0
    endloop
  endfacet
  facet normal -1 -0 0
    outer loop
      vertex 0 8 0.75
      vertex 0 6 0
      vertex 0 6 0.75
    endloop
  endfacet
  facet normal 0 -1 0
    outer loop
      vertex 44 8 1.25
      vertex 46 8 1.75
      vertex 44 8 1.75
    endloop
  endfacet
  facet normal 0 -1 0
    outer loop
      vertex 46 8 0.75
      vertex 44 8 1.25
      vertex 44 8 0.75
    endloop
  endfacet
  facet normal 0 -1 0
    outer loop
      vertex 44 8 1.25
      vertex 46 8 0.75
      vertex 46 8 1.75
    endloop
  endfacet
  facet normal 0 1 -0
    outer loop
      vertex 44 8 1.25
      vertex 36 8 1.75
      vertex 44 8 1.75
    endloop
  endfacet
  facet normal 0 1 0
    outer loop
      vertex 36 8 1.75
      vertex 44 8 1.25
      vertex 36 8 1.25
    endloop
  endfacet
  facet normal 0 -1 0
    outer loop
      vertex 18 8 0.75
      vertex 26 8 1.25
      vertex 18 8 1.25
    endloop
  endfacet
  facet normal 0 -1 -0
    outer loop
      vertex 26 8 1.25
      vertex 18 8 0.75
      vertex 26 8 0.75
    endloop
  endfacet
  facet normal 0 1 -0
    outer loop
      vertex 10 8 0
      vertex 0 8 0.75
      vertex 10 8 0.75
    endloop
  endfacet
  facet normal 0 1 0
    outer loop
      vertex 0 8 0.75
      vertex 10 8 0
      vertex 0 8 0
    endloop
  endfacet
  facet normal -1 0 0
    outer loop
      vertex 26 6 0.75
      vertex 26 8 1.25
      vertex 26 8 0.75
    endloop
  endfacet
  facet normal -1 -0 0
    outer loop
      vertex 26 8 1.25
      vertex 26 6 0.75
      vertex 26 6 1.25
    endloop
  endfacet
  facet normal -1 0 0
    outer loop
      vertex 36 6 1.25
      vertex 36 8 1.75
      vertex 36 8 1.25
    endloop
  endfacet
  facet normal -1 -0 0
    outer loop
      vertex 36 8 1.75
      vertex 36 6 1.25
      vertex 36 6 1.75
    endloop
  endfacet
  facet normal -0 0 1
    outer loop
      vertex 36 8 1.75
      vertex 44 6 1.75
      vertex 44 8 1.75
    endloop
  endfacet
  facet normal 0 0 1
    outer loop
      vertex 44 6 1.75
      vertex 36 8 1.75
      vertex 36 6 1.75
    endloop
  endfacet
  facet normal -1 0 0
    outer loop
      vertex 10 8 0
      vertex 10 10 0.75
      vertex 10 10 0
    endloop
  endfacet
  facet normal -1 -0 0
    outer loop
      vertex 10 10 0.75
      vertex 10 8 0
      vertex 10 8 0.75
    endloop
  endfacet
  facet normal 0 1 0
    outer loop
      vertex 46 10 1.75
      vertex 44 10 1.25
      vertex 44 10 1.75
    endloop
  endfacet
  facet normal 0 1 -0
    outer loop
      vertex 46 10 0.75
      vertex 44 10 1.25
      vertex 46 10 1.75
    endloop
  endfacet
  facet normal 0 1 0
    outer loop
      vertex 38 10 0.75
      vertex 44 10 1.25
      vertex 46 10 0.75
    endloop
  endfacet
  facet normal 0 1 0
    outer loop
      vertex 44 10 1.25
      vertex 38 10 0.75
      vertex 38 10 1.25
    endloop
  endfacet
  facet normal 0 1 -0
    outer loop
      vertex 48 10 0
      vertex 46 10 0.75
      vertex 48 10 0.75
    endloop
  endfacet
  facet normal 0 1 0
    outer loop
      vertex 46 10 0.75
      vertex 48 10 0
      vertex 46 10 0
    endloop
  endfacet
  facet normal 0 1 -0
    outer loop
      vertex 32 10 0.75
      vertex 18 10 1.25
      vertex 32 10 1.25
    endloop
  endfacet
  facet normal 0 1 0
    outer loop
      vertex 18 10 1.25
      vertex 32 10 0.75
      vertex 18 10 0.75
    endloop
  endfacet
  facet normal 0 -1 0
    outer loop
      vertex 6 10 0
      vertex 10 10 0.75
      vertex 6 10 0.75
    endloop
  endfacet
  facet normal 0 -1 -0
    outer loop
      vertex 10 10 0.75
      vertex 6 10 0
      vertex 10 10 0
    endloop
  endfacet
  facet normal -1 0 0
    outer loop
      vertex 18 8 0.75
      vertex 18 10 1.25
      vertex 18 10 0.75
    endloop
  endfacet
  facet normal -1 -0 0
    outer loop
      vertex 18 10 1.25
      vertex 18 8 0.75
      vertex 18 8 1.25
    endloop
  endfacet
  facet normal -1 0 0
    outer loop
      vertex 44 8 1.25
      vertex 44 10 1.75
      vertex 44 10 1.25
    endloop
  endfacet
  facet normal -1 -0 0
    outer loop
      vertex 44 10 1.75
      vertex 44 8 1.25
      vertex 44 8 1.75
    endloop
  endfacet
  facet normal -0 0 1
    outer loop
      vertex 44 10 1.75
      vertex 46 8 1.75
      vertex 46 10 1.75
    endloop
  endfacet
  facet normal 0 0 1
    outer loop
      vertex 46 8 1.75
      vertex 44 10 1.75
      vertex 44 8 1.75
    endloop
  endfacet
  facet normal 1 -0 0
    outer loop
      vertex 46 8 1.75
      vertex 46 10 0.75
      vertex 46 10 1.75
    endloop
  endfacet
  facet normal 1 0 0
    outer loop
      vertex 46 10 0.75
      vertex 46 8 1.75
      vertex 46 8 0.75
    endloop
  endfacet
  facet normal -1 0 0
    outer loop
      vertex 6 10 0
      vertex 6 12 0.75
      vertex 6 12 0
    endloop
  endfacet
  facet normal -1 -0 0
    outer loop
      vertex 6 12 0.75
      vertex 6 10 0
      vertex 6 10 0.75
    endloop
  endfacet
  facet normal 0 1 -0
    outer loop
      vertex 46 12 0
      vertex 40 12 0.75
      vertex 46 12 0.75
    endloop
  endfacet
  facet normal 0 1 0
    outer loop
      vertex 40 12 0.75
      vertex 46 12 0
      vertex 40 12 0
    endloop
  endfacet
  facet normal 0 1 -0
    outer loop
      vertex 28 12 0
      vertex 26 12 0.75
      vertex 28 12 0.75
    endloop
  endfacet
  facet normal 0 1 0
    outer loop
      vertex 26 12 0.75
      vertex 28 12 0
      vertex 26 12 0
    endloop
  endfacet
  facet normal 0 1 -0
    outer loop
      vertex 8 12 0
      vertex 6 12 0.75
      vertex 8 12 0.75
    endloop
  endfacet
  facet normal 0 1 0
    outer loop
      vertex 6 12 0.75
      vertex 8 12 0
      vertex 6 12 0
    endloop
  endfacet
  facet normal 0 1 -0
    outer loop
      vertex 38 12 0.75
      vertex 32 12 1.25
      vertex 38 12 1.25
    endloop
  endfacet
  facet normal 0 1 0
    outer loop
      vertex 32 12 1.25
      vertex 38 12 0.75
      vertex 32 12 0.75
    endloop
  endfacet
  facet normal -1 0 0
    outer loop
      vertex 32 10 0.75
      vertex 32 12 1.25
      vertex 32 12 0.75
    endloop
  endfacet
  facet normal -1 -0 0
    outer loop
      vertex 32 12 1.25
      vertex 32 10 0.75
      vertex 32 10 1.25
    endloop
  endfacet
  facet normal 1 -0 0
    outer loop
      vertex 38 10 1.25
      vertex 38 12 0.75
      vertex 38 12 1.25
    endloop
  endfacet
  facet normal 1 0 0
    outer loop
      vertex 38 12 0.75
      vertex 38 10 1.25
      vertex 38 10 0.75
    endloop
  endfacet
  facet normal 1 -0 0
    outer loop
      vertex 46 10 0.75
      vertex 46 12 0
      vertex 46 12 0.75
    endloop
  endfacet
  facet normal 1 0 0
    outer loop
      vertex 46 12 0
      vertex 46 10 0.75
      vertex 46 10 0
    endloop
  endfacet
  facet normal -1 0 0
    outer loop
      vertex 8 12 0
      vertex 8 14 0.75
      vertex 8 14 0
    endloop
  endfacet
  facet normal -1 -0 0
    outer loop
      vertex 8 14 0.75
      vertex 8 12 0
      vertex 8 12 0.75
    endloop
  endfacet
  facet normal 0 1 -0
    outer loop
      vertex 18 14 0
      vertex 14 14 0.75
      vertex 18 14 0.75
    endloop
  endfacet
  facet normal 0 1 0
    outer loop
      vertex 14 14 0.75
      vertex 18 14 0
      vertex 14 14 0
    endloop
  endfacet
  facet normal 0 1 -0
    outer loop
      vertex 10 14 0
      vertex 8 14 0.75
      vertex 10 14 0.75
    endloop
  endfacet
  facet normal 0 1 0
    outer loop
      vertex 8 14 0.75
      vertex 10 14 0
      vertex 8 14 0
    endloop
  endfacet
  facet normal -1 0 0
    outer loop
      vertex 18 14 0
      vertex 18 16 0.75
      vertex 18 16 0
    endloop
  endfacet
  facet normal -1 -0 0
    outer loop
      vertex 18 16 0.75
      vertex 18 14 0
      vertex 18 14 0.75
    endloop
  endfacet
  facet normal 0 1 -0
    outer loop
      vertex 26 14 0
      vertex 24 14 0.75
      vertex 26 14 0.75
    endloop
  endfacet
  facet normal 0 1 0
    outer loop
      vertex 24 14 0.75
      vertex 26 14 0
      vertex 24 14 0
    endloop
  endfacet
  facet normal 1 -0 0
    outer loop
      vertex 26 12 0.75
      vertex 26 14 0
      vertex 26 14 0.75
    endloop
  endfacet
  facet normal 1 0 0
    outer loop
      vertex 26 14 0
      vertex 26 12 0.75
      vertex 26 12 0
    endloop
  endfacet
  facet normal -1 0 0
    outer loop
      vertex 28 12 0
      vertex 28 14 0.75
      vertex 28 14 0
    endloop
  endfacet
  facet normal -1 -0 0
    outer loop
      vertex 28 14 0.75
      vertex 28 12 0
      vertex 28 12 0.75
    endloop
  endfacet
  facet normal 0 1 -0
    outer loop
      vertex 34 14 0
      vertex 30 14 0.75
      vertex 34 14 0.75
    endloop
  endfacet
  facet normal 0 1 0
    outer loop
      vertex 30 14 0.75
      vertex 34 14 0
      vertex 30 14 0
    endloop
  endfacet
  facet normal 0 1 -0
    outer loop
      vertex 40 14 0
      vertex 36 14 0.75
      vertex 40 14 0.75
    endloop
  endfacet
  facet normal 0 1 0
    outer loop
      vertex 36 14 0.75
      vertex 40 14 0
      vertex 36 14 0
    endloop
  endfacet
  facet normal 1 -0 0
    outer loop
      vertex 40 12 0.75
      vertex 40 14 0
      vertex 40 14 0.75
    endloop
  endfacet
  facet normal 1 0 0
    outer loop
      vertex 40 14 0
      vertex 40 12 0.75
      vertex 40 12 0
    endloop
  endfacet
  facet normal -1 0 0
    outer loop
      vertex 10 14 0
      vertex 10 16 0.75
      vertex 10 16 0
    endloop
  endfacet
  facet normal -1 -0 0
    outer loop
      vertex 10 16 0.75
      vertex 10 14 0
      vertex 10 14 0.75
    endloop
  endfacet
  facet normal 0 1 -0
    outer loop
      vertex 14 16 0
      vertex 10 16 0.75
      vertex 14 16 0.75
    endloop
  endfacet
  facet normal 0 1 0
    outer loop
      vertex 10 16 0.75
      vertex 14 16 0
      vertex 10 16 0
    endloop
  endfacet
  facet normal 1 -0 0
    outer loop
      vertex 14 14 0.75
      vertex 14 16 0
      vertex 14 16 0.75
    endloop
  endfacet
  facet normal 1 0 0
    outer loop
      vertex 14 16 0
      vertex 14 14 0.75
      vertex 14 14 0
    endloop
  endfacet
  facet normal 0 1 -0
    outer loop
      vertex 24 16 0
      vertex 18 16 0.75
      vertex 24 16 0.75
    endloop
  endfacet
  facet normal 0 1 0
    outer loop
      vertex 18 16 0.75
      vertex 24 16 0
      vertex 18 16 0
    endloop
  endfacet
  facet normal 1 -0 0
    outer loop
      vertex 24 14 0.75
      vertex 24 16 0
      vertex 24 16 0.75
    endloop
  endfacet
  facet normal 1 0 0
    outer loop
      vertex 24 16 0
      vertex 24 14 0.75
      vertex 24 14 0
    endloop
  endfacet
  facet normal -1 0 0
    outer loop
      vertex 26 14 0
      vertex 26 16 0.75
      vertex 26 16 0
    endloop
  endfacet
  facet normal -1 -0 0
    outer loop
      vertex 26 16 0.75
      vertex 26 14 0
      vertex 26 14 0.75
    endloop
  endfacet
  facet normal 0 1 -0
    outer loop
      vertex 30 16 0
      vertex 26 16 0.75
      vertex 30 16 0.75
    endloop
  endfacet
  facet normal 0 1 0
    outer loop
      vertex 26 16 0.75
      vertex 30 16 0
      vertex 26 16 0
    endloop
  endfacet
  facet normal 0 -1 0
    outer loop
      vertex 26 14 0
      vertex 28 14 0.75
      vertex 26 14 0.75
    endloop
  endfacet
  facet normal 0 -1 -0
    outer loop
      vertex 28 14 0.75
      vertex 26 14 0
      vertex 28 14 0
    endloop
  endfacet
  facet normal 1 -0 0
    outer loop
      vertex 30 14 0.75
      vertex 30 16 0
      vertex 30 16 0.75
    endloop
  endfacet
  facet normal 1 0 0
    outer loop
      vertex 30 16 0
      vertex 30 14 0.75
      vertex 30 14 0
    endloop
  endfacet
  facet normal -1 0 0
    outer loop
      vertex 34 14 0
      vertex 34 16 0.75
      vertex 34 16 0
    endloop
  endfacet
  facet normal -1 -0 0
    outer loop
      vertex 34 16 0.75
      vertex 34 14 0
      vertex 34 14 0.75
    endloop
  endfacet
  facet normal 1 -0 0
    outer loop
      vertex 36 14 0.75
      vertex 36 16 0
      vertex 36 16 0.75
    endloop
  endfacet
  facet normal 1 0 0
    outer loop
      vertex 36 16 0
      vertex 36 14 0.75
      vertex 36 14 0
    endloop
  endfacet
  facet normal 0 1 -0
    outer loop
      vertex 36 16 0
      vertex 34 16 0.75
      vertex 36 16 0.75
    endloop
  endfacet
  facet normal 0 1 0
    outer loop
      vertex 34 16 0.75
      vertex 36 16 0
      vertex 34 16 0
    endloop
  endfacet
endsolid OpenSCAD_Model
