solid OpenSCAD_Model
  facet normal -1 0 0
    outer loop
      vertex 20 0 0
      vertex 20 2 0.75
      vertex 20 2 0
    endloop
  endfacet
  facet normal -1 -0 0
    outer loop
      vertex 20 2 0.75
      vertex 20 0 0
      vertex 20 0 0.75
    endloop
  endfacet
  facet normal 0 0 1
    outer loop
      vertex 24 -2 0.75
      vertex 32 0 0.75
      vertex 32 2 0.75
    endloop
  endfacet
  facet normal 0 0 1
    outer loop
      vertex 32 0 0.75
      vertex 24 -2 0.75
      vertex 32 -2 0.75
    endloop
  endfacet
  facet normal -0 0 1
    outer loop
      vertex 20 0 0.75
      vertex 24 -2 0.75
      vertex 20 2 0.75
    endloop
  endfacet
  facet normal -0 0 1
    outer loop
      vertex 20 2 0.75
      vertex 24 -2 0.75
      vertex 32 2 0.75
    endloop
  endfacet
  facet normal 0 0 1
    outer loop
      vertex 38 2 0.75
      vertex 36 2 0.75
      vertex 38 0 0.75
    endloop
  endfacet
  facet normal -0 0 1
    outer loop
      vertex 38 0 0.75
      vertex 42 -2 0.75
      vertex 42 0 0.75
    endloop
  endfacet
  facet normal 0 0 1
    outer loop
      vertex 36 0 0.75
      vertex 38 0 0.75
      vertex 36 2 0.75
    endloop
  endfacet
  facet normal 0 0 1
    outer loop
      vertex 36 -2 0.75
      vertex 38 0 0.75
      vertex 36 0 0.75
    endloop
  endfacet
  facet normal 0 0 1
    outer loop
      vertex 38 0 0.75
      vertex 36 -2 0.75
      vertex 42 -2 0.75
    endloop
  endfacet
  facet normal 0 0 1
    outer loop
      vertex 32 -2 0.75
      vertex 36 -2 0.75
      vertex 36 0 0.75
    endloop
  endfacet
  facet normal 0 0 1
    outer loop
      vertex 32 -2 0.75
      vertex 36 0 0.75
      vertex 32 0 0.75
    endloop
  endfacet
  facet normal 0 0 1
    outer loop
      vertex 36 -2 0.75
      vertex 32 -2 0.75
      vertex 36 -4 0.75
    endloop
  endfacet
  facet normal 0 0 1
    outer loop
      vertex 36 -4 0.75
      vertex 32 -2 0.75
      vertex 32 -4 0.75
    endloop
  endfacet
  facet normal -0 0 1
    outer loop
      vertex 24 -4 0.75
      vertex 26 -6 0.75
      vertex 26 -4 0.75
    endloop
  endfacet
  facet normal 0 0 1
    outer loop
      vertex 20 -2 0.75
      vertex 24 -2 0.75
      vertex 20 0 0.75
    endloop
  endfacet
  facet normal 0 0 1
    outer loop
      vertex 24 -2 0.75
      vertex 20 -2 0.75
      vertex 24 -4 0.75
    endloop
  endfacet
  facet normal 0 0 1
    outer loop
      vertex 20 -4 0.75
      vertex 24 -4 0.75
      vertex 20 -2 0.75
    endloop
  endfacet
  facet normal 0 0 1
    outer loop
      vertex 24 -4 0.75
      vertex 20 -4 0.75
      vertex 26 -6 0.75
    endloop
  endfacet
  facet normal 0 0 1
    outer loop
      vertex 20 -4 0.75
      vertex 18 -6 0.75
      vertex 26 -6 0.75
    endloop
  endfacet
  facet normal 0 0 1
    outer loop
      vertex 16 -4 0.75
      vertex 18 -8 0.75
      vertex 18 -6 0.75
    endloop
  endfacet
  facet normal -0 0 1
    outer loop
      vertex 16 -4 0.75
      vertex 18 -6 0.75
      vertex 20 -4 0.75
    endloop
  endfacet
  facet normal 0 0 1
    outer loop
      vertex 10 -8 0.75
      vertex 18 -8 0.75
      vertex 16 -4 0.75
    endloop
  endfacet
  facet normal 0 0 1
    outer loop
      vertex 18 -8 0.75
      vertex 14 -12 0.75
      vertex 18 -12 0.75
    endloop
  endfacet
  facet normal 0 0 1
    outer loop
      vertex 10 -8 0.75
      vertex 8 -10 0.75
      vertex 10 -12 0.75
    endloop
  endfacet
  facet normal -0 0 1
    outer loop
      vertex 6 -8 0.75
      vertex 8 -10 0.75
      vertex 10 -8 0.75
    endloop
  endfacet
  facet normal 0 0 1
    outer loop
      vertex 8 -10 0.75
      vertex 6 -8 0.75
      vertex 6 -10 0.75
    endloop
  endfacet
  facet normal 0 0 1
    outer loop
      vertex 6 -4 0.75
      vertex 10 -2 0.75
      vertex 6 -2 0.75
    endloop
  endfacet
  facet normal 0 0 1
    outer loop
      vertex 10 -2 0.75
      vertex 6 -4 0.75
      vertex 10 -6 0.75
    endloop
  endfacet
  facet normal 0 0 1
    outer loop
      vertex 0 -6 0.75
      vertex 6 -4 0.75
      vertex 0 -4 0.75
    endloop
  endfacet
  facet normal 0 0 1
    outer loop
      vertex 6 -4 0.75
      vertex 0 -6 0.75
      vertex 10 -6 0.75
    endloop
  endfacet
  facet normal 0 0 1
    outer loop
      vertex 28 -10 0.75
      vertex 32 -10 0.75
      vertex 32 -8 0.75
    endloop
  endfacet
  facet normal 0 0 1
    outer loop
      vertex 28 -12 0.75
      vertex 30 -12 0.75
      vertex 28 -10 0.75
    endloop
  endfacet
  facet normal 0 0 1
    outer loop
      vertex 32 -10 0.75
      vertex 28 -10 0.75
      vertex 30 -12 0.75
    endloop
  endfacet
  facet normal 0 0 1
    outer loop
      vertex 32 -8 0.75
      vertex 26 -10 0.75
      vertex 28 -10 0.75
    endloop
  endfacet
  facet normal 0 0 1
    outer loop
      vertex 26 -10 0.75
      vertex 24 -12 0.75
      vertex 26 -12 0.75
    endloop
  endfacet
  facet normal -0 0 1
    outer loop
      vertex 18 -8 0.75
      vertex 26 -10 0.75
      vertex 32 -8 0.75
    endloop
  endfacet
  facet normal 0 0 1
    outer loop
      vertex 18 -8 0.75
      vertex 24 -12 0.75
      vertex 26 -10 0.75
    endloop
  endfacet
  facet normal 0 0 1
    outer loop
      vertex 18 -12 0.75
      vertex 24 -12 0.75
      vertex 18 -8 0.75
    endloop
  endfacet
  facet normal 0 0 1
    outer loop
      vertex 24 -12 0.75
      vertex 18 -12 0.75
      vertex 24 -14 0.75
    endloop
  endfacet
  facet normal 0 0 1
    outer loop
      vertex 24 -14 0.75
      vertex 18 -12 0.75
      vertex 18 -14 0.75
    endloop
  endfacet
  facet normal 0 0 1
    outer loop
      vertex 46 -8 0.75
      vertex 40 -10 0.75
      vertex 46 -10 0.75
    endloop
  endfacet
  facet normal -0 0 1
    outer loop
      vertex 38 -8 0.75
      vertex 40 -10 0.75
      vertex 46 -8 0.75
    endloop
  endfacet
  facet normal 0 0 1
    outer loop
      vertex 38 -10 0.75
      vertex 40 -10 0.75
      vertex 38 -8 0.75
    endloop
  endfacet
  facet normal 0 0 1
    outer loop
      vertex 40 -10 0.75
      vertex 38 -10 0.75
      vertex 40 -12 0.75
    endloop
  endfacet
  facet normal 0 0 1
    outer loop
      vertex 38 -10 0.75
      vertex 36 -12 0.75
      vertex 40 -12 0.75
    endloop
  endfacet
  facet normal 0 0 1
    outer loop
      vertex 36 -12 0.75
      vertex 34 -12 0.75
      vertex 36 -14 0.75
    endloop
  endfacet
  facet normal 0 0 1
    outer loop
      vertex 38 -10 0.75
      vertex 34 -12 0.75
      vertex 36 -12 0.75
    endloop
  endfacet
  facet normal -0 0 1
    outer loop
      vertex 32 -10 0.75
      vertex 34 -12 0.75
      vertex 38 -10 0.75
    endloop
  endfacet
  facet normal 0 0 1
    outer loop
      vertex 34 -12 0.75
      vertex 32 -10 0.75
      vertex 30 -12 0.75
    endloop
  endfacet
  facet normal 0 0 1
    outer loop
      vertex 36 -14 0.75
      vertex 34 -12 0.75
      vertex 34 -14 0.75
    endloop
  endfacet
  facet normal 0 0 1
    outer loop
      vertex 30 -12 0.75
      vertex 28 -12 0.75
      vertex 30 -14 0.75
    endloop
  endfacet
  facet normal 0 0 1
    outer loop
      vertex 26 -14 0.75
      vertex 28 -12 0.75
      vertex 26 -12 0.75
    endloop
  endfacet
  facet normal 0 0 1
    outer loop
      vertex 28 -12 0.75
      vertex 26 -14 0.75
      vertex 30 -14 0.75
    endloop
  endfacet
  facet normal 0 0 1
    outer loop
      vertex 20 0 0.75
      vertex 16 -2 0.75
      vertex 20 -2 0.75
    endloop
  endfacet
  facet normal -0 0 1
    outer loop
      vertex 10 -2 0.75
      vertex 16 -4 0.75
      vertex 16 -2 0.75
    endloop
  endfacet
  facet normal -0 0 1
    outer loop
      vertex 10 0 0.75
      vertex 16 -2 0.75
      vertex 20 0 0.75
    endloop
  endfacet
  facet normal 0 0 1
    outer loop
      vertex 10 -2 0.75
      vertex 16 -2 0.75
      vertex 10 0 0.75
    endloop
  endfacet
  facet normal 0 0 1
    outer loop
      vertex 16 -4 0.75
      vertex 10 -2 0.75
      vertex 10 -6 0.75
    endloop
  endfacet
  facet normal 0 0 1
    outer loop
      vertex 10 -8 0.75
      vertex 16 -4 0.75
      vertex 10 -6 0.75
    endloop
  endfacet
  facet normal 0 0 1
    outer loop
      vertex 18 -8 0.75
      vertex 10 -8 0.75
      vertex 14 -12 0.75
    endloop
  endfacet
  facet normal 0 0 1
    outer loop
      vertex 10 -12 0.75
      vertex 14 -12 0.75
      vertex 10 -8 0.75
    endloop
  endfacet
  facet normal 0 0 1
    outer loop
      vertex 14 -12 0.75
      vertex 10 -12 0.75
      vertex 14 -14 0.75
    endloop
  endfacet
  facet normal 0 0 1
    outer loop
      vertex 14 -14 0.75
      vertex 10 -12 0.75
      vertex 10 -14 0.75
    endloop
  endfacet
  facet normal 0 0 1
    outer loop
      vertex 10 -12 0.75
      vertex 8 -10 0.75
      vertex 8 -12 0.75
    endloop
  endfacet
  facet normal 0 0 -1
    outer loop
      vertex 14 -14 0
      vertex 10 -14 0
      vertex 14 -12 0
    endloop
  endfacet
  facet normal 0 0 -1
    outer loop
      vertex 18 -12 0
      vertex 24 -12 0
      vertex 24 -14 0
    endloop
  endfacet
  facet normal 0 0 -1
    outer loop
      vertex 18 -12 0
      vertex 24 -14 0
      vertex 18 -14 0
    endloop
  endfacet
  facet normal 0 0 -1
    outer loop
      vertex 24 -12 0
      vertex 18 -12 0
      vertex 20 0 0
    endloop
  endfacet
  facet normal 0 0 -1
    outer loop
      vertex 10 -6 0
      vertex 18 -12 0
      vertex 14 -12 0
    endloop
  endfacet
  facet normal 0 0 -1
    outer loop
      vertex 10 -12 0
      vertex 14 -12 0
      vertex 10 -14 0
    endloop
  endfacet
  facet normal 0 0 -1
    outer loop
      vertex 10 -8 0
      vertex 14 -12 0
      vertex 10 -12 0
    endloop
  endfacet
  facet normal 0 0 -1
    outer loop
      vertex 10 -6 0
      vertex 14 -12 0
      vertex 10 -8 0
    endloop
  endfacet
  facet normal 0 0 -1
    outer loop
      vertex 18 -12 0
      vertex 10 -6 0
      vertex 20 0 0
    endloop
  endfacet
  facet normal 0 0 -1
    outer loop
      vertex 10 -2 0
      vertex 20 0 0
      vertex 10 -6 0
    endloop
  endfacet
  facet normal -0 0 -1
    outer loop
      vertex 20 0 0
      vertex 10 -2 0
      vertex 10 0 0
    endloop
  endfacet
  facet normal 0 0 -1
    outer loop
      vertex 30 -14 0
      vertex 28 -12 0
      vertex 30 -12 0
    endloop
  endfacet
  facet normal 0 0 -1
    outer loop
      vertex 26 -14 0
      vertex 28 -12 0
      vertex 30 -14 0
    endloop
  endfacet
  facet normal -0 0 -1
    outer loop
      vertex 28 -12 0
      vertex 26 -14 0
      vertex 26 -12 0
    endloop
  endfacet
  facet normal 0 0 -1
    outer loop
      vertex 36 -12 0
      vertex 40 -10 0
      vertex 40 -12 0
    endloop
  endfacet
  facet normal 0 0 -1
    outer loop
      vertex 36 0 0
      vertex 40 -10 0
      vertex 36 -12 0
    endloop
  endfacet
  facet normal 0 0 -1
    outer loop
      vertex 40 -10 0
      vertex 36 0 0
      vertex 38 0 0
    endloop
  endfacet
  facet normal 0 0 -1
    outer loop
      vertex 38 0 0
      vertex 36 0 0
      vertex 38 2 0
    endloop
  endfacet
  facet normal -0 0 -1
    outer loop
      vertex 38 2 0
      vertex 36 0 0
      vertex 36 2 0
    endloop
  endfacet
  facet normal 0 0 -1
    outer loop
      vertex 40 -10 0
      vertex 46 -8 0
      vertex 46 -10 0
    endloop
  endfacet
  facet normal -0 0 -1
    outer loop
      vertex 46 -8 0
      vertex 40 -10 0
      vertex 42 -2 0
    endloop
  endfacet
  facet normal 0 0 -1
    outer loop
      vertex 38 0 0
      vertex 42 -2 0
      vertex 40 -10 0
    endloop
  endfacet
  facet normal 0 0 -1
    outer loop
      vertex 42 -2 0
      vertex 38 0 0
      vertex 42 0 0
    endloop
  endfacet
  facet normal 0 0 -1
    outer loop
      vertex 46 -8 0
      vertex 48 -2 0
      vertex 48 -8 0
    endloop
  endfacet
  facet normal -0 0 -1
    outer loop
      vertex 48 -2 0
      vertex 46 -8 0
      vertex 42 -2 0
    endloop
  endfacet
  facet normal 0 0 -1
    outer loop
      vertex 34 -12 0
      vertex 36 -12 0
      vertex 36 -14 0
    endloop
  endfacet
  facet normal 0 0 -1
    outer loop
      vertex 34 -12 0
      vertex 36 -14 0
      vertex 34 -14 0
    endloop
  endfacet
  facet normal 0 0 -1
    outer loop
      vertex 36 -12 0
      vertex 34 -12 0
      vertex 36 0 0
    endloop
  endfacet
  facet normal 0 0 -1
    outer loop
      vertex 34 -12 0
      vertex 32 0 0
      vertex 36 0 0
    endloop
  endfacet
  facet normal 0 0 -1
    outer loop
      vertex 28 -10 0
      vertex 34 -12 0
      vertex 30 -12 0
    endloop
  endfacet
  facet normal 0 0 -1
    outer loop
      vertex 34 -12 0
      vertex 28 -10 0
      vertex 32 0 0
    endloop
  endfacet
  facet normal 0 0 -1
    outer loop
      vertex 28 -10 0
      vertex 30 -12 0
      vertex 28 -12 0
    endloop
  endfacet
  facet normal 0 0 -1
    outer loop
      vertex 26 -10 0
      vertex 32 0 0
      vertex 28 -10 0
    endloop
  endfacet
  facet normal 0 0 -1
    outer loop
      vertex 20 0 0
      vertex 32 0 0
      vertex 26 -10 0
    endloop
  endfacet
  facet normal 0 0 -1
    outer loop
      vertex 20 0 0
      vertex 26 -10 0
      vertex 24 -12 0
    endloop
  endfacet
  facet normal 0 0 -1
    outer loop
      vertex 32 0 0
      vertex 20 0 0
      vertex 32 2 0
    endloop
  endfacet
  facet normal -0 0 -1
    outer loop
      vertex 32 2 0
      vertex 20 0 0
      vertex 20 2 0
    endloop
  endfacet
  facet normal 0 0 -1
    outer loop
      vertex 26 -12 0
      vertex 24 -12 0
      vertex 26 -10 0
    endloop
  endfacet
  facet normal 0 0 -1
    outer loop
      vertex 10 -6 0
      vertex 6 -4 0
      vertex 10 -2 0
    endloop
  endfacet
  facet normal 0 0 -1
    outer loop
      vertex 0 -6 0
      vertex 6 -4 0
      vertex 10 -6 0
    endloop
  endfacet
  facet normal -0 0 -1
    outer loop
      vertex 6 -4 0
      vertex 0 -6 0
      vertex 0 -4 0
    endloop
  endfacet
  facet normal 0 0 -1
    outer loop
      vertex 8 -10 0
      vertex 10 -12 0
      vertex 8 -12 0
    endloop
  endfacet
  facet normal 0 0 -1
    outer loop
      vertex 10 -12 0
      vertex 8 -10 0
      vertex 10 -8 0
    endloop
  endfacet
  facet normal 0 0 -1
    outer loop
      vertex 6 -8 0
      vertex 8 -10 0
      vertex 6 -10 0
    endloop
  endfacet
  facet normal 0 0 -1
    outer loop
      vertex 8 -10 0
      vertex 6 -8 0
      vertex 10 -8 0
    endloop
  endfacet
  facet normal -0 0 -1
    outer loop
      vertex 10 -2 0
      vertex 6 -4 0
      vertex 6 -2 0
    endloop
  endfacet
  facet normal 0 1 -0
    outer loop
      vertex 42 0 0
      vertex 38 0 0.75
      vertex 42 0 0.75
    endloop
  endfacet
  facet normal 0 1 0
    outer loop
      vertex 38 0 0.75
      vertex 42 0 0
      vertex 38 0 0
    endloop
  endfacet
  facet normal 0 1 -0
    outer loop
      vertex 20 0 0
      vertex 10 0 0.75
      vertex 20 0 0.75
    endloop
  endfacet
  facet normal 0 1 0
    outer loop
      vertex 10 0 0.75
      vertex 20 0 0
      vertex 10 0 0
    endloop
  endfacet
  facet normal 0 1 -0
    outer loop
      vertex 36 0 0
      vertex 32 0 0.75
      vertex 36 0 0.75
    endloop
  endfacet
  facet normal 0 1 0
    outer loop
      vertex 32 0 0.75
      vertex 36 0 0
      vertex 32 0 0
    endloop
  endfacet
  facet normal 0 1 -0
    outer loop
      vertex 32 2 0
      vertex 20 2 0.75
      vertex 32 2 0.75
    endloop
  endfacet
  facet normal 0 1 0
    outer loop
      vertex 20 2 0.75
      vertex 32 2 0
      vertex 20 2 0
    endloop
  endfacet
  facet normal 1 -0 0
    outer loop
      vertex 32 0 0.75
      vertex 32 2 0
      vertex 32 2 0.75
    endloop
  endfacet
  facet normal 1 0 0
    outer loop
      vertex 32 2 0
      vertex 32 0 0.75
      vertex 32 0 0
    endloop
  endfacet
  facet normal -1 0 0
    outer loop
      vertex 36 0 0
      vertex 36 2 0.75
      vertex 36 2 0
    endloop
  endfacet
  facet normal -1 -0 0
    outer loop
      vertex 36 2 0.75
      vertex 36 0 0
      vertex 36 0 0.75
    endloop
  endfacet
  facet normal 1 -0 0
    outer loop
      vertex 38 0 0.75
      vertex 38 2 0
      vertex 38 2 0.75
    endloop
  endfacet
  facet normal 1 0 0
    outer loop
      vertex 38 2 0
      vertex 38 0 0.75
      vertex 38 0 0
    endloop
  endfacet
  facet normal 0 1 -0
    outer loop
      vertex 38 2 0
      vertex 36 2 0.75
      vertex 38 2 0.75
    endloop
  endfacet
  facet normal 0 1 0
    outer loop
      vertex 36 2 0.75
      vertex 38 2 0
      vertex 36 2 0
    endloop
  endfacet
  facet normal -1 0 0
    outer loop
      vertex 10 -2 0
      vertex 10 0 0.75
      vertex 10 0 0
    endloop
  endfacet
  facet normal -1 -0 0
    outer loop
      vertex 10 0 0.75
      vertex 10 -2 0
      vertex 10 -2 0.75
    endloop
  endfacet
  facet normal 0 1 0
    outer loop
      vertex 42 -2 0.75
      vertex 44 -2 1.25
      vertex 44 -2 0.75
    endloop
  endfacet
  facet normal 0 1 0
    outer loop
      vertex 44 -2 1.25
      vertex 42 -2 0.75
      vertex 36 -2 1.25
    endloop
  endfacet
  facet normal 0 1 0
    outer loop
      vertex 36 -2 1.25
      vertex 42 -2 0.75
      vertex 36 -2 0.75
    endloop
  endfacet
  facet normal 0 1 -0
    outer loop
      vertex 48 -2 0
      vertex 44 -2 0.75
      vertex 48 -2 0.75
    endloop
  endfacet
  facet normal 0 1 0
    outer loop
      vertex 42 -2 0
      vertex 44 -2 0.75
      vertex 48 -2 0
    endloop
  endfacet
  facet normal 0 1 0
    outer loop
      vertex 44 -2 0.75
      vertex 42 -2 0
      vertex 42 -2 0.75
    endloop
  endfacet
  facet normal 0 1 -0
    outer loop
      vertex 32 -2 0.75
      vertex 24 -2 1.25
      vertex 32 -2 1.25
    endloop
  endfacet
  facet normal 0 1 0
    outer loop
      vertex 24 -2 1.25
      vertex 32 -2 0.75
      vertex 24 -2 0.75
    endloop
  endfacet
  facet normal 0 1 -0
    outer loop
      vertex 20 -2 0.75
      vertex 16 -2 1.25
      vertex 20 -2 1.25
    endloop
  endfacet
  facet normal 0 1 0
    outer loop
      vertex 16 -2 1.25
      vertex 20 -2 0.75
      vertex 16 -2 0.75
    endloop
  endfacet
  facet normal 0 1 -0
    outer loop
      vertex 10 -2 0
      vertex 6 -2 0.75
      vertex 10 -2 0.75
    endloop
  endfacet
  facet normal 0 1 0
    outer loop
      vertex 6 -2 0.75
      vertex 10 -2 0
      vertex 6 -2 0
    endloop
  endfacet
  facet normal 1 -0 0
    outer loop
      vertex 42 -2 0.75
      vertex 42 0 0
      vertex 42 0 0.75
    endloop
  endfacet
  facet normal 1 0 0
    outer loop
      vertex 42 0 0
      vertex 42 -2 0.75
      vertex 42 -2 0
    endloop
  endfacet
  facet normal -1 0 0
    outer loop
      vertex 6 -4 0
      vertex 6 -2 0.75
      vertex 6 -2 0
    endloop
  endfacet
  facet normal -1 -0 0
    outer loop
      vertex 6 -2 0.75
      vertex 6 -4 0
      vertex 6 -4 0.75
    endloop
  endfacet
  facet normal 0 1 -0
    outer loop
      vertex 44 -4 1.25
      vertex 36 -4 1.75
      vertex 44 -4 1.75
    endloop
  endfacet
  facet normal 0 1 0
    outer loop
      vertex 36 -4 1.75
      vertex 44 -4 1.25
      vertex 36 -4 1.25
    endloop
  endfacet
  facet normal 0 1 -0
    outer loop
      vertex 36 -4 0.75
      vertex 32 -4 1.25
      vertex 36 -4 1.25
    endloop
  endfacet
  facet normal 0 1 0
    outer loop
      vertex 32 -4 1.25
      vertex 36 -4 0.75
      vertex 32 -4 0.75
    endloop
  endfacet
  facet normal 0 -1 0
    outer loop
      vertex 24 -4 0.75
      vertex 26 -4 1.25
      vertex 24 -4 1.25
    endloop
  endfacet
  facet normal 0 -1 -0
    outer loop
      vertex 26 -4 1.25
      vertex 24 -4 0.75
      vertex 26 -4 0.75
    endloop
  endfacet
  facet normal 0 1 -0
    outer loop
      vertex 6 -4 0
      vertex 0 -4 0.75
      vertex 6 -4 0.75
    endloop
  endfacet
  facet normal 0 1 0
    outer loop
      vertex 0 -4 0.75
      vertex 6 -4 0
      vertex 0 -4 0
    endloop
  endfacet
  facet normal 0 -1 0
    outer loop
      vertex 16 -4 0.75
      vertex 20 -4 1.25
      vertex 16 -4 1.25
    endloop
  endfacet
  facet normal 0 -1 -0
    outer loop
      vertex 20 -4 1.25
      vertex 16 -4 0.75
      vertex 20 -4 0.75
    endloop
  endfacet
  facet normal -1 0 0
    outer loop
      vertex 16 -4 0.75
      vertex 16 -2 1.25
      vertex 16 -2 0.75
    endloop
  endfacet
  facet normal -1 -0 0
    outer loop
      vertex 16 -2 1.25
      vertex 16 -4 0.75
      vertex 16 -4 1.25
    endloop
  endfacet
  facet normal -0 0 1
    outer loop
      vertex 16 -2 1.25
      vertex 20 -4 1.25
      vertex 20 -2 1.25
    endloop
  endfacet
  facet normal 0 0 1
    outer loop
      vertex 20 -4 1.25
      vertex 16 -2 1.25
      vertex 16 -4 1.25
    endloop
  endfacet
  facet normal 1 -0 0
    outer loop
      vertex 20 -4 1.25
      vertex 20 -2 0.75
      vertex 20 -2 1.25
    endloop
  endfacet
  facet normal 1 0 0
    outer loop
      vertex 20 -2 0.75
      vertex 20 -4 1.25
      vertex 20 -4 0.75
    endloop
  endfacet
  facet normal -1 0 0
    outer loop
      vertex 24 -4 0.75
      vertex 24 -2 1.25
      vertex 24 -2 0.75
    endloop
  endfacet
  facet normal -1 -0 0
    outer loop
      vertex 24 -2 1.25
      vertex 24 -4 0.75
      vertex 24 -4 1.25
    endloop
  endfacet
  facet normal 0 0 1
    outer loop
      vertex 36 -4 1.25
      vertex 32 -4 1.25
      vertex 36 -6 1.25
    endloop
  endfacet
  facet normal 0 0 1
    outer loop
      vertex 44 -6 1.25
      vertex 38 -8 1.25
      vertex 44 -8 1.25
    endloop
  endfacet
  facet normal -0 0 1
    outer loop
      vertex 36 -6 1.25
      vertex 38 -8 1.25
      vertex 44 -6 1.25
    endloop
  endfacet
  facet normal 0 0 1
    outer loop
      vertex 36 -6 1.25
      vertex 38 -10 1.25
      vertex 38 -8 1.25
    endloop
  endfacet
  facet normal 0 0 1
    outer loop
      vertex 32 -8 1.25
      vertex 36 -6 1.25
      vertex 32 -4 1.25
    endloop
  endfacet
  facet normal 0 0 1
    outer loop
      vertex 36 -6 1.25
      vertex 32 -8 1.25
      vertex 38 -10 1.25
    endloop
  endfacet
  facet normal 0 0 1
    outer loop
      vertex 38 -10 1.25
      vertex 32 -8 1.25
      vertex 32 -10 1.25
    endloop
  endfacet
  facet normal 0 0 1
    outer loop
      vertex 26 -4 1.25
      vertex 32 -4 1.25
      vertex 32 -2 1.25
    endloop
  endfacet
  facet normal 0 0 1
    outer loop
      vertex 26 -6 1.25
      vertex 32 -4 1.25
      vertex 26 -4 1.25
    endloop
  endfacet
  facet normal -0 0 1
    outer loop
      vertex 24 -2 1.25
      vertex 26 -4 1.25
      vertex 32 -2 1.25
    endloop
  endfacet
  facet normal 0 0 1
    outer loop
      vertex 26 -4 1.25
      vertex 24 -2 1.25
      vertex 24 -4 1.25
    endloop
  endfacet
  facet normal 0 0 1
    outer loop
      vertex 32 -4 1.25
      vertex 26 -6 1.25
      vertex 32 -8 1.25
    endloop
  endfacet
  facet normal 0 0 1
    outer loop
      vertex 18 -8 1.25
      vertex 26 -6 1.25
      vertex 18 -6 1.25
    endloop
  endfacet
  facet normal 0 0 1
    outer loop
      vertex 26 -6 1.25
      vertex 18 -8 1.25
      vertex 32 -8 1.25
    endloop
  endfacet
  facet normal 1 -0 0
    outer loop
      vertex 32 -4 1.25
      vertex 32 -2 0.75
      vertex 32 -2 1.25
    endloop
  endfacet
  facet normal 1 0 0
    outer loop
      vertex 32 -2 0.75
      vertex 32 -4 1.25
      vertex 32 -4 0.75
    endloop
  endfacet
  facet normal -1 0 0
    outer loop
      vertex 36 -4 0.75
      vertex 36 -2 1.25
      vertex 36 -2 0.75
    endloop
  endfacet
  facet normal -1 -0 0
    outer loop
      vertex 36 -2 1.25
      vertex 36 -4 0.75
      vertex 36 -4 1.25
    endloop
  endfacet
  facet normal -0 0 1
    outer loop
      vertex 36 -2 1.25
      vertex 44 -4 1.25
      vertex 44 -2 1.25
    endloop
  endfacet
  facet normal 0 0 1
    outer loop
      vertex 44 -4 1.25
      vertex 36 -2 1.25
      vertex 36 -4 1.25
    endloop
  endfacet
  facet normal 1 0 0
    outer loop
      vertex 44 -4 1.75
      vertex 44 -6 1.75
      vertex 44 -4 1.25
    endloop
  endfacet
  facet normal 1 -0 0
    outer loop
      vertex 44 -4 1.25
      vertex 44 -2 0.75
      vertex 44 -2 1.25
    endloop
  endfacet
  facet normal 1 0 0
    outer loop
      vertex 44 -6 1.25
      vertex 44 -4 1.25
      vertex 44 -6 1.75
    endloop
  endfacet
  facet normal 1 0 0
    outer loop
      vertex 44 -6 0.75
      vertex 44 -4 1.25
      vertex 44 -6 1.25
    endloop
  endfacet
  facet normal 1 0 0
    outer loop
      vertex 44 -4 1.25
      vertex 44 -6 0.75
      vertex 44 -2 0.75
    endloop
  endfacet
  facet normal 0 0 1
    outer loop
      vertex 48 -2 0.75
      vertex 46 -6 0.75
      vertex 48 -8 0.75
    endloop
  endfacet
  facet normal -0 0 1
    outer loop
      vertex 44 -2 0.75
      vertex 46 -6 0.75
      vertex 48 -2 0.75
    endloop
  endfacet
  facet normal 0 0 1
    outer loop
      vertex 46 -6 0.75
      vertex 44 -2 0.75
      vertex 44 -6 0.75
    endloop
  endfacet
  facet normal 0 0 1
    outer loop
      vertex 48 -8 0.75
      vertex 46 -6 0.75
      vertex 46 -8 0.75
    endloop
  endfacet
  facet normal 1 -0 0
    outer loop
      vertex 48 -8 0.75
      vertex 48 -2 0
      vertex 48 -2 0.75
    endloop
  endfacet
  facet normal 1 0 0
    outer loop
      vertex 48 -2 0
      vertex 48 -8 0.75
      vertex 48 -8 0
    endloop
  endfacet
  facet normal -1 0 0
    outer loop
      vertex 0 -6 0
      vertex 0 -4 0.75
      vertex 0 -4 0
    endloop
  endfacet
  facet normal -1 -0 0
    outer loop
      vertex 0 -4 0.75
      vertex 0 -6 0
      vertex 0 -6 0.75
    endloop
  endfacet
  facet normal 0 1 0
    outer loop
      vertex 46 -6 1.75
      vertex 44 -6 1.25
      vertex 44 -6 1.75
    endloop
  endfacet
  facet normal 0 1 -0
    outer loop
      vertex 46 -6 0.75
      vertex 44 -6 1.25
      vertex 46 -6 1.75
    endloop
  endfacet
  facet normal 0 1 0
    outer loop
      vertex 44 -6 1.25
      vertex 46 -6 0.75
      vertex 44 -6 0.75
    endloop
  endfacet
  facet normal 0 -1 0
    outer loop
      vertex 36 -6 1.25
      vertex 44 -6 1.75
      vertex 36 -6 1.75
    endloop
  endfacet
  facet normal 0 -1 -0
    outer loop
      vertex 44 -6 1.75
      vertex 36 -6 1.25
      vertex 44 -6 1.25
    endloop
  endfacet
  facet normal 0 1 -0
    outer loop
      vertex 26 -6 0.75
      vertex 18 -6 1.25
      vertex 26 -6 1.25
    endloop
  endfacet
  facet normal 0 1 0
    outer loop
      vertex 18 -6 1.25
      vertex 26 -6 0.75
      vertex 18 -6 0.75
    endloop
  endfacet
  facet normal 0 -1 0
    outer loop
      vertex 0 -6 0
      vertex 10 -6 0.75
      vertex 0 -6 0.75
    endloop
  endfacet
  facet normal 0 -1 -0
    outer loop
      vertex 10 -6 0.75
      vertex 0 -6 0
      vertex 10 -6 0
    endloop
  endfacet
  facet normal -1 0 0
    outer loop
      vertex 26 -6 0.75
      vertex 26 -4 1.25
      vertex 26 -4 0.75
    endloop
  endfacet
  facet normal -1 -0 0
    outer loop
      vertex 26 -4 1.25
      vertex 26 -6 0.75
      vertex 26 -6 1.25
    endloop
  endfacet
  facet normal -1 0 0
    outer loop
      vertex 36 -6 1.25
      vertex 36 -4 1.75
      vertex 36 -4 1.25
    endloop
  endfacet
  facet normal -1 -0 0
    outer loop
      vertex 36 -4 1.75
      vertex 36 -6 1.25
      vertex 36 -6 1.75
    endloop
  endfacet
  facet normal -0 0 1
    outer loop
      vertex 36 -4 1.75
      vertex 44 -6 1.75
      vertex 44 -4 1.75
    endloop
  endfacet
  facet normal 0 0 1
    outer loop
      vertex 44 -6 1.75
      vertex 36 -4 1.75
      vertex 36 -6 1.75
    endloop
  endfacet
  facet normal -1 0 0
    outer loop
      vertex 10 -8 0
      vertex 10 -6 0.75
      vertex 10 -6 0
    endloop
  endfacet
  facet normal -1 -0 0
    outer loop
      vertex 10 -6 0.75
      vertex 10 -8 0
      vertex 10 -8 0.75
    endloop
  endfacet
  facet normal 0 -1 0
    outer loop
      vertex 38 -8 1.25
      vertex 38 -8 0.75
      vertex 44 -8 1.25
    endloop
  endfacet
  facet normal 0 -1 0
    outer loop
      vertex 44 -8 1.25
      vertex 46 -8 1.75
      vertex 44 -8 1.75
    endloop
  endfacet
  facet normal 0 -1 0
    outer loop
      vertex 44 -8 1.25
      vertex 46 -8 0.75
      vertex 46 -8 1.75
    endloop
  endfacet
  facet normal 0 -1 0
    outer loop
      vertex 46 -8 0.75
      vertex 44 -8 1.25
      vertex 38 -8 0.75
    endloop
  endfacet
  facet normal 0 -1 0
    outer loop
      vertex 46 -8 0
      vertex 48 -8 0.75
      vertex 46 -8 0.75
    endloop
  endfacet
  facet normal 0 -1 -0
    outer loop
      vertex 48 -8 0.75
      vertex 46 -8 0
      vertex 48 -8 0
    endloop
  endfacet
  facet normal 0 -1 0
    outer loop
      vertex 18 -8 0.75
      vertex 32 -8 1.25
      vertex 18 -8 1.25
    endloop
  endfacet
  facet normal 0 -1 -0
    outer loop
      vertex 32 -8 1.25
      vertex 18 -8 0.75
      vertex 32 -8 0.75
    endloop
  endfacet
  facet normal 0 1 -0
    outer loop
      vertex 10 -8 0
      vertex 6 -8 0.75
      vertex 10 -8 0.75
    endloop
  endfacet
  facet normal 0 1 0
    outer loop
      vertex 6 -8 0.75
      vertex 10 -8 0
      vertex 6 -8 0
    endloop
  endfacet
  facet normal -1 0 0
    outer loop
      vertex 18 -8 0.75
      vertex 18 -6 1.25
      vertex 18 -6 0.75
    endloop
  endfacet
  facet normal -1 -0 0
    outer loop
      vertex 18 -6 1.25
      vertex 18 -8 0.75
      vertex 18 -8 1.25
    endloop
  endfacet
  facet normal -1 0 0
    outer loop
      vertex 44 -8 1.25
      vertex 44 -6 1.75
      vertex 44 -6 1.25
    endloop
  endfacet
  facet normal -1 -0 0
    outer loop
      vertex 44 -6 1.75
      vertex 44 -8 1.25
      vertex 44 -8 1.75
    endloop
  endfacet
  facet normal -0 0 1
    outer loop
      vertex 44 -6 1.75
      vertex 46 -8 1.75
      vertex 46 -6 1.75
    endloop
  endfacet
  facet normal 0 0 1
    outer loop
      vertex 46 -8 1.75
      vertex 44 -6 1.75
      vertex 44 -8 1.75
    endloop
  endfacet
  facet normal 1 -0 0
    outer loop
      vertex 46 -8 1.75
      vertex 46 -6 0.75
      vertex 46 -6 1.75
    endloop
  endfacet
  facet normal 1 0 0
    outer loop
      vertex 46 -6 0.75
      vertex 46 -8 1.75
      vertex 46 -8 0.75
    endloop
  endfacet
  facet normal -1 0 0
    outer loop
      vertex 6 -10 0
      vertex 6 -8 0.75
      vertex 6 -8 0
    endloop
  endfacet
  facet normal -1 -0 0
    outer loop
      vertex 6 -8 0.75
      vertex 6 -10 0
      vertex 6 -10 0.75
    endloop
  endfacet
  facet normal 0 -1 0
    outer loop
      vertex 40 -10 0
      vertex 46 -10 0.75
      vertex 40 -10 0.75
    endloop
  endfacet
  facet normal 0 -1 -0
    outer loop
      vertex 46 -10 0.75
      vertex 40 -10 0
      vertex 46 -10 0
    endloop
  endfacet
  facet normal 0 -1 0
    outer loop
      vertex 26 -10 0
      vertex 28 -10 0.75
      vertex 26 -10 0.75
    endloop
  endfacet
  facet normal 0 -1 -0
    outer loop
      vertex 28 -10 0.75
      vertex 26 -10 0
      vertex 28 -10 0
    endloop
  endfacet
  facet normal 0 -1 0
    outer loop
      vertex 6 -10 0
      vertex 8 -10 0.75
      vertex 6 -10 0.75
    endloop
  endfacet
  facet normal 0 -1 -0
    outer loop
      vertex 8 -10 0.75
      vertex 6 -10 0
      vertex 8 -10 0
    endloop
  endfacet
  facet normal 0 -1 0
    outer loop
      vertex 32 -10 0.75
      vertex 38 -10 1.25
      vertex 32 -10 1.25
    endloop
  endfacet
  facet normal 0 -1 -0
    outer loop
      vertex 38 -10 1.25
      vertex 32 -10 0.75
      vertex 38 -10 0.75
    endloop
  endfacet
  facet normal -1 0 0
    outer loop
      vertex 32 -10 0.75
      vertex 32 -8 1.25
      vertex 32 -8 0.75
    endloop
  endfacet
  facet normal -1 -0 0
    outer loop
      vertex 32 -8 1.25
      vertex 32 -10 0.75
      vertex 32 -10 1.25
    endloop
  endfacet
  facet normal 1 -0 0
    outer loop
      vertex 38 -10 1.25
      vertex 38 -8 0.75
      vertex 38 -8 1.25
    endloop
  endfacet
  facet normal 1 0 0
    outer loop
      vertex 38 -8 0.75
      vertex 38 -10 1.25
      vertex 38 -10 0.75
    endloop
  endfacet
  facet normal 1 -0 0
    outer loop
      vertex 46 -10 0.75
      vertex 46 -8 0
      vertex 46 -8 0.75
    endloop
  endfacet
  facet normal 1 0 0
    outer loop
      vertex 46 -8 0
      vertex 46 -10 0.75
      vertex 46 -10 0
    endloop
  endfacet
  facet normal -1 0 0
    outer loop
      vertex 8 -12 0
      vertex 8 -10 0.75
      vertex 8 -10 0
    endloop
  endfacet
  facet normal -1 -0 0
    outer loop
      vertex 8 -10 0.75
      vertex 8 -12 0
      vertex 8 -12 0.75
    endloop
  endfacet
  facet normal 0 -1 0
    outer loop
      vertex 14 -12 0
      vertex 18 -12 0.75
      vertex 14 -12 0.75
    endloop
  endfacet
  facet normal 0 -1 -0
    outer loop
      vertex 18 -12 0.75
      vertex 14 -12 0
      vertex 18 -12 0
    endloop
  endfacet
  facet normal 0 -1 0
    outer loop
      vertex 8 -12 0
      vertex 10 -12 0.75
      vertex 8 -12 0.75
    endloop
  endfacet
  facet normal 0 -1 -0
    outer loop
      vertex 10 -12 0.75
      vertex 8 -12 0
      vertex 10 -12 0
    endloop
  endfacet
  facet normal -1 0 0
    outer loop
      vertex 18 -14 0
      vertex 18 -12 0.75
      vertex 18 -12 0
    endloop
  endfacet
  facet normal -1 -0 0
    outer loop
      vertex 18 -12 0.75
      vertex 18 -14 0
      vertex 18 -14 0.75
    endloop
  endfacet
  facet normal 0 -1 0
    outer loop
      vertex 24 -12 0
      vertex 26 -12 0.75
      vertex 24 -12 0.75
    endloop
  endfacet
  facet normal 0 -1 -0
    outer loop
      vertex 26 -12 0.75
      vertex 24 -12 0
      vertex 26 -12 0
    endloop
  endfacet
  facet normal 1 -0 0
    outer loop
      vertex 26 -12 0.75
      vertex 26 -10 0
      vertex 26 -10 0.75
    endloop
  endfacet
  facet normal 1 0 0
    outer loop
      vertex 26 -10 0
      vertex 26 -12 0.75
      vertex 26 -12 0
    endloop
  endfacet
  facet normal -1 0 0
    outer loop
      vertex 28 -12 0
      vertex 28 -10 0.75
      vertex 28 -10 0
    endloop
  endfacet
  facet normal -1 -0 0
    outer loop
      vertex 28 -10 0.75
      vertex 28 -12 0
      vertex 28 -12 0.75
    endloop
  endfacet
  facet normal 0 -1 0
    outer loop
      vertex 36 -12 0
      vertex 40 -12 0.75
      vertex 36 -12 0.75
    endloop
  endfacet
  facet normal 0 -1 -0
    outer loop
      vertex 40 -12 0.75
      vertex 36 -12 0
      vertex 40 -12 0
    endloop
  endfacet
  facet normal 0 -1 0
    outer loop
      vertex 30 -12 0
      vertex 34 -12 0.75
      vertex 30 -12 0.75
    endloop
  endfacet
  facet normal 0 -1 -0
    outer loop
      vertex 34 -12 0.75
      vertex 30 -12 0
      vertex 34 -12 0
    endloop
  endfacet
  facet normal 1 -0 0
    outer loop
      vertex 40 -12 0.75
      vertex 40 -10 0
      vertex 40 -10 0.75
    endloop
  endfacet
  facet normal 1 0 0
    outer loop
      vertex 40 -10 0
      vertex 40 -12 0.75
      vertex 40 -12 0
    endloop
  endfacet
  facet normal -1 0 0
    outer loop
      vertex 10 -14 0
      vertex 10 -12 0.75
      vertex 10 -12 0
    endloop
  endfacet
  facet normal -1 -0 0
    outer loop
      vertex 10 -12 0.75
      vertex 10 -14 0
      vertex 10 -14 0.75
    endloop
  endfacet
  facet normal 0 -1 0
    outer loop
      vertex 10 -14 0
      vertex 14 -14 0.75
      vertex 10 -14 0.75
    endloop
  endfacet
  facet normal 0 -1 -0
    outer loop
      vertex 14 -14 0.75
      vertex 10 -14 0
      vertex 14 -14 0
    endloop
  endfacet
  facet normal 1 -0 0
    outer loop
      vertex 14 -14 0.75
      vertex 14 -12 0
      vertex 14 -12 0.75
    endloop
  endfacet
  facet normal 1 0 0
    outer loop
      vertex 14 -12 0
      vertex 14 -14 0.75
      vertex 14 -14 0
    endloop
  endfacet
  facet normal 0 -1 0
    outer loop
      vertex 18 -14 0
      vertex 24 -14 0.75
      vertex 18 -14 0.75
    endloop
  endfacet
  facet normal 0 -1 -0
    outer loop
      vertex 24 -14 0.75
      vertex 18 -14 0
      vertex 24 -14 0
    endloop
  endfacet
  facet normal 1 -0 0
    outer loop
      vertex 24 -14 0.75
      vertex 24 -12 0
      vertex 24 -12 0.75
    endloop
  endfacet
  facet normal 1 0 0
    outer loop
      vertex 24 -12 0
      vertex 24 -14 0.75
      vertex 24 -14 0
    endloop
  endfacet
  facet normal -1 0 0
    outer loop
      vertex 26 -14 0
      vertex 26 -12 0.75
      vertex 26 -12 0
    endloop
  endfacet
  facet normal -1 -0 0
    outer loop
      vertex 26 -12 0.75
      vertex 26 -14 0
      vertex 26 -14 0.75
    endloop
  endfacet
  facet normal 0 1 -0
    outer loop
      vertex 28 -12 0
      vertex 26 -12 0.75
      vertex 28 -12 0.75
    endloop
  endfacet
  facet normal 0 1 0
    outer loop
      vertex 26 -12 0.75
      vertex 28 -12 0
      vertex 26 -12 0
    endloop
  endfacet
  facet normal 0 -1 0
    outer loop
      vertex 26 -14 0
      vertex 30 -14 0.75
      vertex 26 -14 0.75
    endloop
  endfacet
  facet normal 0 -1 -0
    outer loop
      vertex 30 -14 0.75
      vertex 26 -14 0
      vertex 30 -14 0
    endloop
  endfacet
  facet normal 1 -0 0
    outer loop
      vertex 30 -14 0.75
      vertex 30 -12 0
      vertex 30 -12 0.75
    endloop
  endfacet
  facet normal 1 0 0
    outer loop
      vertex 30 -12 0
      vertex 30 -14 0.75
      vertex 30 -14 0
    endloop
  endfacet
  facet normal -1 0 0
    outer loop
      vertex 34 -14 0
      vertex 34 -12 0.75
      vertex 34 -12 0
    endloop
  endfacet
  facet normal -1 -0 0
    outer loop
      vertex 34 -12 0.75
      vertex 34 -14 0
      vertex 34 -14 0.75
    endloop
  endfacet
  facet normal 1 -0 0
    outer loop
      vertex 36 -14 0.75
      vertex 36 -12 0
      vertex 36 -12 0.75
    endloop
  endfacet
  facet normal 1 0 0
    outer loop
      vertex 36 -12 0
      vertex 36 -14 0.75
      vertex 36 -14 0
    endloop
  endfacet
  facet normal 0 -1 0
    outer loop
      vertex 34 -14 0
      vertex 36 -14 0.75
      vertex 34 -14 0.75
    endloop
  endfacet
  facet normal 0 -1 -0
    outer loop
      vertex 36 -14 0.75
      vertex 34 -14 0
      vertex 36 -14 0
    endloop
  endfacet
endsolid OpenSCAD_Model
