solid OpenSCAD_Model
  facet normal -1 0 0
    outer loop
      vertex 59 51 0
      vertex 59 55 0
      vertex 59 51 -1.75
    endloop
  endfacet
  facet normal -1 0 0
    outer loop
      vertex 59 55 0
      vertex 59 51 0
      vertex 59 55 2
    endloop
  endfacet
  facet normal -1 0 0
    outer loop
      vertex 59 45 2
      vertex 59 51 0
      vertex 59 45 0
    endloop
  endfacet
  facet normal -1 0 0
    outer loop
      vertex 59 51 0
      vertex 59 45 2
      vertex 59 55 2
    endloop
  endfacet
  facet normal -0 0 1
    outer loop
      vertex 59 55 2
      vertex 68 45 2
      vertex 68 55 2
    endloop
  endfacet
  facet normal 0 0 1
    outer loop
      vertex 68 45 2
      vertex 59 55 2
      vertex 59 45 2
    endloop
  endfacet
  facet normal 1 0 0
    outer loop
      vertex 68 55 2
      vertex 68 51 0
      vertex 68 55 0
    endloop
  endfacet
  facet normal 1 -0 0
    outer loop
      vertex 68 45 2
      vertex 68 51 0
      vertex 68 55 2
    endloop
  endfacet
  facet normal 1 0 0
    outer loop
      vertex 68 51 0
      vertex 68 45 2
      vertex 68 45 0
    endloop
  endfacet
  facet normal 1 0 0
    outer loop
      vertex 68 55 0
      vertex 68 51 0
      vertex 68 51 -1.75
    endloop
  endfacet
  facet normal 0 0 -1
    outer loop
      vertex 76.5 0 0
      vertex 68.5 45 0
      vertex 76.5 54 0
    endloop
  endfacet
  facet normal 0 0 -1
    outer loop
      vertex 76.5 0 0
      vertex 68 45 0
      vertex 68.5 45 0
    endloop
  endfacet
  facet normal 0 0 -1
    outer loop
      vertex 68 45 0
      vertex 59 45 0
      vertex 68 51 0
    endloop
  endfacet
  facet normal 0 0 -1
    outer loop
      vertex 76.5 0 0
      vertex 59 45 0
      vertex 68 45 0
    endloop
  endfacet
  facet normal 0 0 -1
    outer loop
      vertex 76.5 0 0
      vertex 58 45 0
      vertex 59 45 0
    endloop
  endfacet
  facet normal 0 0 -1
    outer loop
      vertex 58 45 0
      vertex 5 45 0
      vertex 58 54 0
    endloop
  endfacet
  facet normal 0 0 -1
    outer loop
      vertex 76.5 0 0
      vertex 5 45 0
      vertex 58 45 0
    endloop
  endfacet
  facet normal 0 0 -1
    outer loop
      vertex 76.5 0 0
      vertex 4.75 45 0
      vertex 5 45 0
    endloop
  endfacet
  facet normal 0 0 -1
    outer loop
      vertex 4.75 45 0
      vertex -4.75 45 0
      vertex 4.75 51 0
    endloop
  endfacet
  facet normal 0 0 -1
    outer loop
      vertex 76.5 0 0
      vertex -4.75 45 0
      vertex 4.75 45 0
    endloop
  endfacet
  facet normal 0 0 -1
    outer loop
      vertex -76.5 0 0
      vertex -4.75 45 0
      vertex 76.5 0 0
    endloop
  endfacet
  facet normal 0 0 -1
    outer loop
      vertex -5 45 0
      vertex -58 45 0
      vertex -5 54 0
    endloop
  endfacet
  facet normal -0 0 -1
    outer loop
      vertex -4.75 45 0
      vertex -76.5 0 0
      vertex -5 45 0
    endloop
  endfacet
  facet normal -0 0 -1
    outer loop
      vertex -5 45 0
      vertex -76.5 0 0
      vertex -58 45 0
    endloop
  endfacet
  facet normal 0 0 -1
    outer loop
      vertex -59 45 0
      vertex -68 45 0
      vertex -59 51 0
    endloop
  endfacet
  facet normal -0 0 -1
    outer loop
      vertex -58 45 0
      vertex -76.5 0 0
      vertex -59 45 0
    endloop
  endfacet
  facet normal -0 0 -1
    outer loop
      vertex -59 45 0
      vertex -76.5 0 0
      vertex -68 45 0
    endloop
  endfacet
  facet normal -0 0 -1
    outer loop
      vertex -68 45 0
      vertex -76.5 0 0
      vertex -68.5 45 0
    endloop
  endfacet
  facet normal 0 0 -1
    outer loop
      vertex -76.5 54 0
      vertex -68.5 45 0
      vertex -76.5 0 0
    endloop
  endfacet
  facet normal 0 0 -1
    outer loop
      vertex -68.5 45 0
      vertex -76.5 54 0
      vertex -68.5 54 0
    endloop
  endfacet
  facet normal -0 0 -1
    outer loop
      vertex 76.5 54 0
      vertex 68.5 45 0
      vertex 68.5 54 0
    endloop
  endfacet
  facet normal -0 0 -1
    outer loop
      vertex 68 51 0
      vertex 59 45 0
      vertex 59 51 0
    endloop
  endfacet
  facet normal -0 0 -1
    outer loop
      vertex 58 54 0
      vertex 5 45 0
      vertex 5 54 0
    endloop
  endfacet
  facet normal -0 0 -1
    outer loop
      vertex 4.75 51 0
      vertex -4.75 45 0
      vertex -4.75 51 0
    endloop
  endfacet
  facet normal -0 0 -1
    outer loop
      vertex -5 54 0
      vertex -58 45 0
      vertex -58 54 0
    endloop
  endfacet
  facet normal -0 0 -1
    outer loop
      vertex -59 51 0
      vertex -68 45 0
      vertex -68 51 0
    endloop
  endfacet
  facet normal 0 1 0
    outer loop
      vertex 5 45 6
      vertex 4.75 45 4
      vertex 4.75 45 6
    endloop
  endfacet
  facet normal 0 1 0
    outer loop
      vertex 4.75 45 4
      vertex 4.75 45 2
      vertex -4.75 45 4
    endloop
  endfacet
  facet normal 0 1 0
    outer loop
      vertex 5 45 6
      vertex 4.75 45 2
      vertex 4.75 45 4
    endloop
  endfacet
  facet normal 0 1 -0
    outer loop
      vertex 5 45 0
      vertex 4.75 45 2
      vertex 5 45 6
    endloop
  endfacet
  facet normal 0 1 0
    outer loop
      vertex 4.75 45 2
      vertex 5 45 0
      vertex 4.75 45 0
    endloop
  endfacet
  facet normal 0 1 -0
    outer loop
      vertex -4.75 45 4
      vertex -5 45 6
      vertex -4.75 45 6
    endloop
  endfacet
  facet normal 0 1 0
    outer loop
      vertex -4.75 45 2
      vertex -4.75 45 4
      vertex 4.75 45 2
    endloop
  endfacet
  facet normal 0 1 -0
    outer loop
      vertex -4.75 45 2
      vertex -5 45 6
      vertex -4.75 45 4
    endloop
  endfacet
  facet normal 0 1 0
    outer loop
      vertex -5 45 0
      vertex -4.75 45 2
      vertex -4.75 45 0
    endloop
  endfacet
  facet normal 0 1 0
    outer loop
      vertex -4.75 45 2
      vertex -5 45 0
      vertex -5 45 6
    endloop
  endfacet
  facet normal 0 1 0
    outer loop
      vertex 68.5 45 6
      vertex 68 45 4
      vertex 68 45 6
    endloop
  endfacet
  facet normal 0 1 0
    outer loop
      vertex 68 45 4
      vertex 68 45 2
      vertex 59 45 4
    endloop
  endfacet
  facet normal 0 1 0
    outer loop
      vertex 68.5 45 6
      vertex 68 45 2
      vertex 68 45 4
    endloop
  endfacet
  facet normal 0 1 -0
    outer loop
      vertex 68.5 45 0
      vertex 68 45 2
      vertex 68.5 45 6
    endloop
  endfacet
  facet normal 0 1 0
    outer loop
      vertex 68 45 2
      vertex 68.5 45 0
      vertex 68 45 0
    endloop
  endfacet
  facet normal 0 1 -0
    outer loop
      vertex 59 45 4
      vertex 58 45 6
      vertex 59 45 6
    endloop
  endfacet
  facet normal 0 1 0
    outer loop
      vertex 59 45 2
      vertex 59 45 4
      vertex 68 45 2
    endloop
  endfacet
  facet normal 0 1 -0
    outer loop
      vertex 59 45 2
      vertex 58 45 6
      vertex 59 45 4
    endloop
  endfacet
  facet normal 0 1 0
    outer loop
      vertex 58 45 0
      vertex 59 45 2
      vertex 59 45 0
    endloop
  endfacet
  facet normal 0 1 0
    outer loop
      vertex 59 45 2
      vertex 58 45 0
      vertex 58 45 6
    endloop
  endfacet
  facet normal 0 1 -0
    outer loop
      vertex 68 55 0
      vertex 59 55 2
      vertex 68 55 2
    endloop
  endfacet
  facet normal 0 1 0
    outer loop
      vertex 59 55 2
      vertex 68 55 0
      vertex 59 55 0
    endloop
  endfacet
  facet normal 9.70795e-08 0.400819 -0.916157
    outer loop
      vertex 59 51 -1.75
      vertex 68 55 0
      vertex 68 51 -1.75
    endloop
  endfacet
  facet normal 1.69889e-07 0.400819 -0.916157
    outer loop
      vertex 68 55 0
      vertex 59 51 -1.75
      vertex 59 55 0
    endloop
  endfacet
  facet normal 0 -1 0
    outer loop
      vertex 59 51 0
      vertex 68 51 -1.75
      vertex 68 51 0
    endloop
  endfacet
  facet normal -0 -1 0
    outer loop
      vertex 68 51 -1.75
      vertex 59 51 0
      vertex 59 51 -1.75
    endloop
  endfacet
  facet normal -1 0 0
    outer loop
      vertex 59 55 4
      vertex 59 51 6
      vertex 59 55 6
    endloop
  endfacet
  facet normal -1 0 0
    outer loop
      vertex 59 45 4
      vertex 59 51 6
      vertex 59 55 4
    endloop
  endfacet
  facet normal -1 -0 0
    outer loop
      vertex 59 51 6
      vertex 59 45 4
      vertex 59 45 6
    endloop
  endfacet
  facet normal -1 0 0
    outer loop
      vertex 59 55 6
      vertex 59 51 6
      vertex 59 51 7.75
    endloop
  endfacet
  facet normal 0 0 -1
    outer loop
      vertex 59 45 4
      vertex 68 55 4
      vertex 68 45 4
    endloop
  endfacet
  facet normal -0 0 -1
    outer loop
      vertex 68 55 4
      vertex 59 45 4
      vertex 59 55 4
    endloop
  endfacet
  facet normal 1 0 0
    outer loop
      vertex 68 51 6
      vertex 68 55 6
      vertex 68 51 7.75
    endloop
  endfacet
  facet normal 1 0 0
    outer loop
      vertex 68 55 6
      vertex 68 51 6
      vertex 68 55 4
    endloop
  endfacet
  facet normal 1 0 0
    outer loop
      vertex 68 45 4
      vertex 68 51 6
      vertex 68 45 6
    endloop
  endfacet
  facet normal 1 0 0
    outer loop
      vertex 68 51 6
      vertex 68 45 4
      vertex 68 55 4
    endloop
  endfacet
  facet normal 0 0 1
    outer loop
      vertex -68.5 54 6
      vertex -76.5 54 6
      vertex -68.5 45 6
    endloop
  endfacet
  facet normal 0 0 1
    outer loop
      vertex -59 51 6
      vertex -68 51 6
      vertex -59 45 6
    endloop
  endfacet
  facet normal 0 0 1
    outer loop
      vertex -5 54 6
      vertex -58 54 6
      vertex -5 45 6
    endloop
  endfacet
  facet normal 0 0 1
    outer loop
      vertex 4.75 51 6
      vertex -4.75 51 6
      vertex 4.75 45 6
    endloop
  endfacet
  facet normal 0 0 1
    outer loop
      vertex 58 54 6
      vertex 5 54 6
      vertex 58 45 6
    endloop
  endfacet
  facet normal 0 0 1
    outer loop
      vertex 68 51 6
      vertex 59 51 6
      vertex 68 45 6
    endloop
  endfacet
  facet normal 0 0 1
    outer loop
      vertex 68.5 45 6
      vertex 76.5 54 6
      vertex 68.5 54 6
    endloop
  endfacet
  facet normal 0 0 1
    outer loop
      vertex 76.5 54 6
      vertex 68.5 45 6
      vertex 76.5 0 6
    endloop
  endfacet
  facet normal -0 0 1
    outer loop
      vertex 68 45 6
      vertex 76.5 0 6
      vertex 68.5 45 6
    endloop
  endfacet
  facet normal 0 0 1
    outer loop
      vertex 59 45 6
      vertex 68 45 6
      vertex 59 51 6
    endloop
  endfacet
  facet normal 0 0 1
    outer loop
      vertex 68 45 6
      vertex 59 45 6
      vertex 76.5 0 6
    endloop
  endfacet
  facet normal -0 0 1
    outer loop
      vertex 58 45 6
      vertex 76.5 0 6
      vertex 59 45 6
    endloop
  endfacet
  facet normal 0 0 1
    outer loop
      vertex 5 45 6
      vertex 58 45 6
      vertex 5 54 6
    endloop
  endfacet
  facet normal 0 0 1
    outer loop
      vertex 58 45 6
      vertex 5 45 6
      vertex 76.5 0 6
    endloop
  endfacet
  facet normal -0 0 1
    outer loop
      vertex 4.75 45 6
      vertex 76.5 0 6
      vertex 5 45 6
    endloop
  endfacet
  facet normal 0 0 1
    outer loop
      vertex -4.75 45 6
      vertex 4.75 45 6
      vertex -4.75 51 6
    endloop
  endfacet
  facet normal -0 0 1
    outer loop
      vertex -4.75 45 6
      vertex 76.5 0 6
      vertex 4.75 45 6
    endloop
  endfacet
  facet normal 0 0 1
    outer loop
      vertex -76.5 0 6
      vertex -4.75 45 6
      vertex -5 45 6
    endloop
  endfacet
  facet normal 0 0 1
    outer loop
      vertex -58 45 6
      vertex -5 45 6
      vertex -58 54 6
    endloop
  endfacet
  facet normal 0 0 1
    outer loop
      vertex -76.5 0 6
      vertex -5 45 6
      vertex -58 45 6
    endloop
  endfacet
  facet normal 0 0 1
    outer loop
      vertex -76.5 0 6
      vertex -58 45 6
      vertex -59 45 6
    endloop
  endfacet
  facet normal 0 0 1
    outer loop
      vertex -68 45 6
      vertex -59 45 6
      vertex -68 51 6
    endloop
  endfacet
  facet normal 0 0 1
    outer loop
      vertex -76.5 0 6
      vertex -59 45 6
      vertex -68 45 6
    endloop
  endfacet
  facet normal 0 0 1
    outer loop
      vertex -76.5 0 6
      vertex -68 45 6
      vertex -68.5 45 6
    endloop
  endfacet
  facet normal 0 0 1
    outer loop
      vertex -4.75 45 6
      vertex -76.5 0 6
      vertex 76.5 0 6
    endloop
  endfacet
  facet normal 0 0 1
    outer loop
      vertex -76.5 0 6
      vertex -68.5 45 6
      vertex -76.5 54 6
    endloop
  endfacet
  facet normal 0 1 -0
    outer loop
      vertex 68 55 4
      vertex 59 55 6
      vertex 68 55 6
    endloop
  endfacet
  facet normal 0 1 0
    outer loop
      vertex 59 55 6
      vertex 68 55 4
      vertex 59 55 4
    endloop
  endfacet
  facet normal 1.69889e-07 0.400819 0.916157
    outer loop
      vertex 59 55 6
      vertex 68 51 7.75
      vertex 68 55 6
    endloop
  endfacet
  facet normal 9.70795e-08 0.400819 0.916157
    outer loop
      vertex 68 51 7.75
      vertex 59 55 6
      vertex 59 51 7.75
    endloop
  endfacet
  facet normal 0 -1 0
    outer loop
      vertex 59 51 6
      vertex 68 51 7.75
      vertex 59 51 7.75
    endloop
  endfacet
  facet normal 0 -1 -0
    outer loop
      vertex 68 51 7.75
      vertex 59 51 6
      vertex 68 51 6
    endloop
  endfacet
  facet normal -1 0 0
    outer loop
      vertex -4.75 51 0
      vertex -4.75 55 0
      vertex -4.75 51 -1.75
    endloop
  endfacet
  facet normal -1 0 0
    outer loop
      vertex -4.75 55 0
      vertex -4.75 51 0
      vertex -4.75 55 2
    endloop
  endfacet
  facet normal -1 0 0
    outer loop
      vertex -4.75 45 2
      vertex -4.75 51 0
      vertex -4.75 45 0
    endloop
  endfacet
  facet normal -1 0 0
    outer loop
      vertex -4.75 51 0
      vertex -4.75 45 2
      vertex -4.75 55 2
    endloop
  endfacet
  facet normal -0 0 1
    outer loop
      vertex -4.75 55 2
      vertex 4.75 45 2
      vertex 4.75 55 2
    endloop
  endfacet
  facet normal 0 0 1
    outer loop
      vertex 4.75 45 2
      vertex -4.75 55 2
      vertex -4.75 45 2
    endloop
  endfacet
  facet normal 0 0 0
    outer loop
      vertex 0 55 0
      vertex -4.75 55 0
      vertex 4.75 55 0
    endloop
  endfacet
  facet normal 0 1 -0
    outer loop
      vertex 4.75 55 0
      vertex -4.75 55 2
      vertex 4.75 55 2
    endloop
  endfacet
  facet normal 0 1 0
    outer loop
      vertex -4.75 55 2
      vertex 4.75 55 0
      vertex -4.75 55 0
    endloop
  endfacet
  facet normal 9.19701e-08 0.400819 -0.916157
    outer loop
      vertex -4.75 51 -1.75
      vertex 0 55 0
      vertex 0 51 -1.75
    endloop
  endfacet
  facet normal 0 0.400819 -0.916157
    outer loop
      vertex 0 55 0
      vertex -4.75 51 -1.75
      vertex -4.75 55 0
    endloop
  endfacet
  facet normal 0 -1 0
    outer loop
      vertex -4.75 51 0
      vertex 0 51 -1.75
      vertex 4.75 51 0
    endloop
  endfacet
  facet normal -0 -1 0
    outer loop
      vertex 0 51 -1.75
      vertex -4.75 51 0
      vertex -4.75 51 -1.75
    endloop
  endfacet
  facet normal 0 -1 -0
    outer loop
      vertex 4.75 51 0
      vertex 0 51 -1.75
      vertex 4.75 51 -1.75
    endloop
  endfacet
  facet normal -1 0 0
    outer loop
      vertex -4.75 55 4
      vertex -4.75 51 6
      vertex -4.75 55 6
    endloop
  endfacet
  facet normal -1 0 0
    outer loop
      vertex -4.75 45 4
      vertex -4.75 51 6
      vertex -4.75 55 4
    endloop
  endfacet
  facet normal -1 -0 0
    outer loop
      vertex -4.75 51 6
      vertex -4.75 45 4
      vertex -4.75 45 6
    endloop
  endfacet
  facet normal -1 0 0
    outer loop
      vertex -4.75 55 6
      vertex -4.75 51 6
      vertex -4.75 51 7.75
    endloop
  endfacet
  facet normal 0 0 -1
    outer loop
      vertex -4.75 45 4
      vertex 4.75 55 4
      vertex 4.75 45 4
    endloop
  endfacet
  facet normal -0 0 -1
    outer loop
      vertex 4.75 55 4
      vertex -4.75 45 4
      vertex -4.75 55 4
    endloop
  endfacet
  facet normal 0 0 0
    outer loop
      vertex 0 55 6
      vertex 4.75 55 6
      vertex -4.75 55 6
    endloop
  endfacet
  facet normal 0 1 -0
    outer loop
      vertex 4.75 55 4
      vertex -4.75 55 6
      vertex 4.75 55 6
    endloop
  endfacet
  facet normal 0 1 0
    outer loop
      vertex -4.75 55 6
      vertex 4.75 55 4
      vertex -4.75 55 4
    endloop
  endfacet
  facet normal -0 0.400819 0.916157
    outer loop
      vertex -4.75 55 6
      vertex 0 51 7.75
      vertex 0 55 6
    endloop
  endfacet
  facet normal 9.19701e-08 0.400819 0.916157
    outer loop
      vertex 0 51 7.75
      vertex -4.75 55 6
      vertex -4.75 51 7.75
    endloop
  endfacet
  facet normal 0 -1 0
    outer loop
      vertex -4.75 51 7.75
      vertex -4.75 51 6
      vertex 0 51 7.75
    endloop
  endfacet
  facet normal 0 -1 0
    outer loop
      vertex 4.75 51 6
      vertex 0 51 7.75
      vertex -4.75 51 6
    endloop
  endfacet
  facet normal 0 -1 0
    outer loop
      vertex 0 51 7.75
      vertex 4.75 51 6
      vertex 4.75 51 7.75
    endloop
  endfacet
  facet normal 0 -0.309017 0.951056
    outer loop
      vertex 76.5 0 6
      vertex -76.5 0 6
      vertex 76.5 -0.451898 5.85317
    endloop
  endfacet
  facet normal 0 -0.309017 0.951056
    outer loop
      vertex 76.5 -0.451898 5.85317
      vertex 78.0135 -1.76336 5.42705
      vertex 77.427 -0.451898 5.85317
    endloop
  endfacet
  facet normal 0 -0.309017 0.951056
    outer loop
      vertex -76.5 -0.451898 5.85317
      vertex 76.5 -0.451898 5.85317
      vertex -76.5 0 6
    endloop
  endfacet
  facet normal 0 -0.309017 0.951056
    outer loop
      vertex 76.5 -0.451898 5.85317
      vertex -76.5 -0.451898 5.85317
      vertex 78.0135 -1.76336 5.42705
    endloop
  endfacet
  facet normal 0 -0.309017 0.951056
    outer loop
      vertex -78.0135 -1.76336 5.42705
      vertex -76.5 -0.451898 5.85317
      vertex -77.427 -0.451898 5.85317
    endloop
  endfacet
  facet normal 0 -0.309017 0.951056
    outer loop
      vertex -76.5 -0.451898 5.85317
      vertex -78.0135 -1.76336 5.42705
      vertex 78.0135 -1.76336 5.42705
    endloop
  endfacet
  facet normal 0 -0.309017 -0.951057
    outer loop
      vertex 78.0135 -1.76336 0.572948
      vertex 76.5 -0.451895 0.14683
      vertex 77.427 -0.451895 0.14683
    endloop
  endfacet
  facet normal -0 -0.309017 -0.951057
    outer loop
      vertex 76.5 -0.451895 0.14683
      vertex -76.5 -0.451895 0.14683
      vertex 76.5 0 0
    endloop
  endfacet
  facet normal 0 -0.309017 -0.951057
    outer loop
      vertex 78.0135 -1.76336 0.572948
      vertex -76.5 -0.451895 0.14683
      vertex 76.5 -0.451895 0.14683
    endloop
  endfacet
  facet normal 0 -0.309017 -0.951057
    outer loop
      vertex -78.0135 -1.76336 0.572948
      vertex -76.5 -0.451895 0.14683
      vertex 78.0135 -1.76336 0.572948
    endloop
  endfacet
  facet normal -0 -0.309017 -0.951057
    outer loop
      vertex -76.5 -0.451895 0.14683
      vertex -78.0135 -1.76336 0.572948
      vertex -77.427 -0.451895 0.14683
    endloop
  endfacet
  facet normal -0 -0.309017 -0.951057
    outer loop
      vertex 76.5 0 0
      vertex -76.5 -0.451895 0.14683
      vertex -76.5 0 0
    endloop
  endfacet
  facet normal -1.13165e-07 -0.809017 -0.587785
    outer loop
      vertex -78.0135 -1.76336 0.572948
      vertex -79.1988 -2.85317 2.07295
      vertex -78.927 -2.24556 1.23664
    endloop
  endfacet
  facet normal 0 -0.809017 -0.587785
    outer loop
      vertex -79.1988 -2.85317 2.07295
      vertex -78.0135 -1.76336 0.572948
      vertex 79.1988 -2.85317 2.07295
    endloop
  endfacet
  facet normal -0 -0.809017 -0.587785
    outer loop
      vertex 78.0135 -1.76336 0.572948
      vertex 79.1988 -2.85317 2.07295
      vertex -78.0135 -1.76336 0.572948
    endloop
  endfacet
  facet normal 1.13165e-07 -0.809017 -0.587785
    outer loop
      vertex 79.1988 -2.85317 2.07295
      vertex 78.0135 -1.76336 0.572948
      vertex 78.927 -2.24556 1.23664
    endloop
  endfacet
  facet normal 0 -1 0
    outer loop
      vertex -79.1988 -2.85317 2.07295
      vertex -79.1988 -2.85317 3.92705
      vertex -79.5 -2.85317 3
    endloop
  endfacet
  facet normal 0 -1 0
    outer loop
      vertex -79.1988 -2.85317 3.92705
      vertex -79.1988 -2.85317 2.07295
      vertex 79.1988 -2.85317 3.92705
    endloop
  endfacet
  facet normal 0 -1 0
    outer loop
      vertex 79.1988 -2.85317 2.07295
      vertex 79.1988 -2.85317 3.92705
      vertex -79.1988 -2.85317 2.07295
    endloop
  endfacet
  facet normal 0 -1 0
    outer loop
      vertex 79.1988 -2.85317 3.92705
      vertex 79.1988 -2.85317 2.07295
      vertex 79.5 -2.85317 3
    endloop
  endfacet
  facet normal -1.13165e-07 -0.809017 0.587785
    outer loop
      vertex -79.1988 -2.85317 3.92705
      vertex -78.0135 -1.76336 5.42705
      vertex -78.927 -2.24556 4.76336
    endloop
  endfacet
  facet normal 0 -0.809017 0.587785
    outer loop
      vertex -78.0135 -1.76336 5.42705
      vertex -79.1988 -2.85317 3.92705
      vertex 78.0135 -1.76336 5.42705
    endloop
  endfacet
  facet normal 0 -0.809017 0.587785
    outer loop
      vertex 79.1988 -2.85317 3.92705
      vertex 78.0135 -1.76336 5.42705
      vertex -79.1988 -2.85317 3.92705
    endloop
  endfacet
  facet normal 1.13165e-07 -0.809017 0.587785
    outer loop
      vertex 78.0135 -1.76336 5.42705
      vertex 79.1988 -2.85317 3.92705
      vertex 78.927 -2.24556 4.76336
    endloop
  endfacet
  facet normal 0.951056 0 -0.309019
    outer loop
      vertex 79.5 45 3
      vertex 78.927 -2.24556 1.23664
      vertex 78.927 45 1.23664
    endloop
  endfacet
  facet normal 0.951056 0 -0.309019
    outer loop
      vertex 79.5 -2.85317 3
      vertex 78.927 -2.24556 1.23664
      vertex 79.5 45 3
    endloop
  endfacet
  facet normal 0.951057 8.37795e-06 -0.309016
    outer loop
      vertex 78.927 -2.24556 1.23664
      vertex 79.5 -2.85317 3
      vertex 79.1988 -2.85317 2.07295
    endloop
  endfacet
  facet normal 0.587785 0 0.809017
    outer loop
      vertex 77.427 -0.451898 5.85317
      vertex 78.927 -2.24556 4.76336
      vertex 78.927 45 4.76336
    endloop
  endfacet
  facet normal 0.587785 -0 0.809017
    outer loop
      vertex 77.427 -0.451898 5.85317
      vertex 78.927 45 4.76336
      vertex 77.427 45 5.85317
    endloop
  endfacet
  facet normal 0.587785 5.00393e-09 0.809017
    outer loop
      vertex 78.927 -2.24556 4.76336
      vertex 77.427 -0.451898 5.85317
      vertex 78.0135 -1.76336 5.42705
    endloop
  endfacet
  facet normal 0.951056 -0 0.309019
    outer loop
      vertex 78.927 -2.24556 4.76336
      vertex 79.5 45 3
      vertex 78.927 45 4.76336
    endloop
  endfacet
  facet normal 0.951057 7.94042e-06 0.309016
    outer loop
      vertex 79.5 -2.85317 3
      vertex 78.927 -2.24556 4.76336
      vertex 79.1988 -2.85317 3.92705
    endloop
  endfacet
  facet normal 0.951056 0 0.309019
    outer loop
      vertex 78.927 -2.24556 4.76336
      vertex 79.5 -2.85317 3
      vertex 79.5 45 3
    endloop
  endfacet
  facet normal 0 0 -1
    outer loop
      vertex 76.5 -0.451895 0.14683
      vertex 77.427 45 0.14683
      vertex 77.427 -0.451895 0.14683
    endloop
  endfacet
  facet normal -0 0 -1
    outer loop
      vertex 77.427 45 0.14683
      vertex 76.5 -0.451895 0.14683
      vertex 76.5 45 0.14683
    endloop
  endfacet
  facet normal 0.587785 5.00392e-09 -0.809017
    outer loop
      vertex 77.427 -0.451895 0.14683
      vertex 78.927 -2.24556 1.23664
      vertex 78.0135 -1.76336 0.572948
    endloop
  endfacet
  facet normal 0.587785 0 -0.809017
    outer loop
      vertex 78.927 -2.24556 1.23664
      vertex 77.427 -0.451895 0.14683
      vertex 78.927 45 1.23664
    endloop
  endfacet
  facet normal 0.587785 0 -0.809017
    outer loop
      vertex 78.927 45 1.23664
      vertex 77.427 -0.451895 0.14683
      vertex 77.427 45 0.14683
    endloop
  endfacet
  facet normal -0 0 1
    outer loop
      vertex 76.5 45 5.85317
      vertex 77.427 -0.451898 5.85317
      vertex 77.427 45 5.85317
    endloop
  endfacet
  facet normal 0 0 1
    outer loop
      vertex 77.427 -0.451898 5.85317
      vertex 76.5 45 5.85317
      vertex 76.5 -0.451898 5.85317
    endloop
  endfacet
  facet normal 1 0 0
    outer loop
      vertex 76.5 54 6
      vertex 76.5 45 5.85317
      vertex 76.5 54 0
    endloop
  endfacet
  facet normal 1 -0 0
    outer loop
      vertex 76.5 0 6
      vertex 76.5 45 5.85317
      vertex 76.5 54 6
    endloop
  endfacet
  facet normal 1 0 0
    outer loop
      vertex 76.5 45 5.85317
      vertex 76.5 0 6
      vertex 76.5 -0.451898 5.85317
    endloop
  endfacet
  facet normal 1 -0 0
    outer loop
      vertex 76.5 45 0.14683
      vertex 76.5 54 0
      vertex 76.5 45 5.85317
    endloop
  endfacet
  facet normal 1 0 0
    outer loop
      vertex 76.5 45 0.14683
      vertex 76.5 0 0
      vertex 76.5 54 0
    endloop
  endfacet
  facet normal 1 0 -0
    outer loop
      vertex 76.5 0 0
      vertex 76.5 45 0.14683
      vertex 76.5 -0.451895 0.14683
    endloop
  endfacet
  facet normal 0 1 0
    outer loop
      vertex 78.927 45 4.76336
      vertex 76.5 45 5.85317
      vertex 77.427 45 5.85317
    endloop
  endfacet
  facet normal 0 1 0
    outer loop
      vertex 79.5 45 3
      vertex 76.5 45 5.85317
      vertex 78.927 45 4.76336
    endloop
  endfacet
  facet normal 0 1 0
    outer loop
      vertex 76.5 45 0.14683
      vertex 79.5 45 3
      vertex 78.927 45 1.23664
    endloop
  endfacet
  facet normal 0 1 0
    outer loop
      vertex 76.5 45 0.14683
      vertex 78.927 45 1.23664
      vertex 77.427 45 0.14683
    endloop
  endfacet
  facet normal 0 1 0
    outer loop
      vertex 79.5 45 3
      vertex 76.5 45 0.14683
      vertex 76.5 45 5.85317
    endloop
  endfacet
  facet normal -1 0 0
    outer loop
      vertex 68.5 45 0
      vertex 68.5 54 6
      vertex 68.5 54 0
    endloop
  endfacet
  facet normal -1 -0 0
    outer loop
      vertex 68.5 54 6
      vertex 68.5 45 0
      vertex 68.5 45 6
    endloop
  endfacet
  facet normal 0 1 -0
    outer loop
      vertex 76.5 54 0
      vertex 68.5 54 6
      vertex 76.5 54 6
    endloop
  endfacet
  facet normal 0 1 0
    outer loop
      vertex 68.5 54 6
      vertex 76.5 54 0
      vertex 68.5 54 0
    endloop
  endfacet
  facet normal -1 0 0
    outer loop
      vertex 5 45 0
      vertex 5 54 6
      vertex 5 54 0
    endloop
  endfacet
  facet normal -1 -0 0
    outer loop
      vertex 5 54 6
      vertex 5 45 0
      vertex 5 45 6
    endloop
  endfacet
  facet normal 1 -0 0
    outer loop
      vertex 58 45 6
      vertex 58 54 0
      vertex 58 54 6
    endloop
  endfacet
  facet normal 1 0 0
    outer loop
      vertex 58 54 0
      vertex 58 45 6
      vertex 58 45 0
    endloop
  endfacet
  facet normal 0 1 -0
    outer loop
      vertex 58 54 0
      vertex 5 54 6
      vertex 58 54 6
    endloop
  endfacet
  facet normal 0 1 0
    outer loop
      vertex 5 54 6
      vertex 58 54 0
      vertex 5 54 0
    endloop
  endfacet
  facet normal 1 0 0
    outer loop
      vertex -59 55 2
      vertex -59 51 0
      vertex -59 55 0
    endloop
  endfacet
  facet normal 1 -0 0
    outer loop
      vertex -59 45 2
      vertex -59 51 0
      vertex -59 55 2
    endloop
  endfacet
  facet normal 1 0 0
    outer loop
      vertex -59 51 0
      vertex -59 45 2
      vertex -59 45 0
    endloop
  endfacet
  facet normal 1 0 0
    outer loop
      vertex -59 55 0
      vertex -59 51 0
      vertex -59 51 -1.75
    endloop
  endfacet
  facet normal -0 0 1
    outer loop
      vertex -68 55 2
      vertex -59 45 2
      vertex -59 55 2
    endloop
  endfacet
  facet normal 0 0 1
    outer loop
      vertex -59 45 2
      vertex -68 55 2
      vertex -68 45 2
    endloop
  endfacet
  facet normal -1 0 0
    outer loop
      vertex -68 51 0
      vertex -68 55 0
      vertex -68 51 -1.75
    endloop
  endfacet
  facet normal -1 0 0
    outer loop
      vertex -68 55 0
      vertex -68 51 0
      vertex -68 55 2
    endloop
  endfacet
  facet normal -1 0 0
    outer loop
      vertex -68 45 2
      vertex -68 51 0
      vertex -68 45 0
    endloop
  endfacet
  facet normal -1 0 0
    outer loop
      vertex -68 51 0
      vertex -68 45 2
      vertex -68 55 2
    endloop
  endfacet
  facet normal 0 1 0
    outer loop
      vertex -58 45 6
      vertex -59 45 4
      vertex -59 45 6
    endloop
  endfacet
  facet normal 0 1 0
    outer loop
      vertex -59 45 4
      vertex -59 45 2
      vertex -68 45 4
    endloop
  endfacet
  facet normal 0 1 0
    outer loop
      vertex -58 45 6
      vertex -59 45 2
      vertex -59 45 4
    endloop
  endfacet
  facet normal 0 1 -0
    outer loop
      vertex -58 45 0
      vertex -59 45 2
      vertex -58 45 6
    endloop
  endfacet
  facet normal 0 1 0
    outer loop
      vertex -59 45 2
      vertex -58 45 0
      vertex -59 45 0
    endloop
  endfacet
  facet normal 0 1 -0
    outer loop
      vertex -68 45 4
      vertex -68.5 45 6
      vertex -68 45 6
    endloop
  endfacet
  facet normal 0 1 0
    outer loop
      vertex -68 45 2
      vertex -68 45 4
      vertex -59 45 2
    endloop
  endfacet
  facet normal 0 1 -0
    outer loop
      vertex -68 45 2
      vertex -68.5 45 6
      vertex -68 45 4
    endloop
  endfacet
  facet normal 0 1 0
    outer loop
      vertex -68.5 45 0
      vertex -68 45 2
      vertex -68 45 0
    endloop
  endfacet
  facet normal 0 1 0
    outer loop
      vertex -68 45 2
      vertex -68.5 45 0
      vertex -68.5 45 6
    endloop
  endfacet
  facet normal 0 1 -0
    outer loop
      vertex -59 55 0
      vertex -68 55 2
      vertex -59 55 2
    endloop
  endfacet
  facet normal 0 1 0
    outer loop
      vertex -68 55 2
      vertex -59 55 0
      vertex -68 55 0
    endloop
  endfacet
  facet normal -9.70795e-08 0.400819 -0.916157
    outer loop
      vertex -68 51 -1.75
      vertex -59 55 0
      vertex -59 51 -1.75
    endloop
  endfacet
  facet normal -1.69889e-07 0.400819 -0.916157
    outer loop
      vertex -59 55 0
      vertex -68 51 -1.75
      vertex -68 55 0
    endloop
  endfacet
  facet normal 0 -1 0
    outer loop
      vertex -68 51 -1.75
      vertex -59 51 0
      vertex -68 51 0
    endloop
  endfacet
  facet normal 0 -1 -0
    outer loop
      vertex -59 51 0
      vertex -68 51 -1.75
      vertex -59 51 -1.75
    endloop
  endfacet
  facet normal 1 0 0
    outer loop
      vertex -59 51 6
      vertex -59 55 6
      vertex -59 51 7.75
    endloop
  endfacet
  facet normal 1 0 0
    outer loop
      vertex -59 55 6
      vertex -59 51 6
      vertex -59 55 4
    endloop
  endfacet
  facet normal 1 0 0
    outer loop
      vertex -59 45 4
      vertex -59 51 6
      vertex -59 45 6
    endloop
  endfacet
  facet normal 1 0 0
    outer loop
      vertex -59 51 6
      vertex -59 45 4
      vertex -59 55 4
    endloop
  endfacet
  facet normal 0 0 -1
    outer loop
      vertex -68 45 4
      vertex -59 55 4
      vertex -59 45 4
    endloop
  endfacet
  facet normal -0 0 -1
    outer loop
      vertex -59 55 4
      vertex -68 45 4
      vertex -68 55 4
    endloop
  endfacet
  facet normal -1 0 0
    outer loop
      vertex -68 55 4
      vertex -68 51 6
      vertex -68 55 6
    endloop
  endfacet
  facet normal -1 0 0
    outer loop
      vertex -68 45 4
      vertex -68 51 6
      vertex -68 55 4
    endloop
  endfacet
  facet normal -1 -0 0
    outer loop
      vertex -68 51 6
      vertex -68 45 4
      vertex -68 45 6
    endloop
  endfacet
  facet normal -1 0 0
    outer loop
      vertex -68 55 6
      vertex -68 51 6
      vertex -68 51 7.75
    endloop
  endfacet
  facet normal 0 1 -0
    outer loop
      vertex -59 55 4
      vertex -68 55 6
      vertex -59 55 6
    endloop
  endfacet
  facet normal 0 1 0
    outer loop
      vertex -68 55 6
      vertex -59 55 4
      vertex -68 55 4
    endloop
  endfacet
  facet normal -1.69889e-07 0.400819 0.916157
    outer loop
      vertex -68 55 6
      vertex -59 51 7.75
      vertex -59 55 6
    endloop
  endfacet
  facet normal -9.70795e-08 0.400819 0.916157
    outer loop
      vertex -59 51 7.75
      vertex -68 55 6
      vertex -68 51 7.75
    endloop
  endfacet
  facet normal 0 -1 0
    outer loop
      vertex -68 51 6
      vertex -59 51 7.75
      vertex -68 51 7.75
    endloop
  endfacet
  facet normal 0 -1 -0
    outer loop
      vertex -59 51 7.75
      vertex -68 51 6
      vertex -59 51 6
    endloop
  endfacet
  facet normal 1 0 0
    outer loop
      vertex 4.75 55 2
      vertex 4.75 51 0
      vertex 4.75 55 0
    endloop
  endfacet
  facet normal 1 -0 0
    outer loop
      vertex 4.75 45 2
      vertex 4.75 51 0
      vertex 4.75 55 2
    endloop
  endfacet
  facet normal 1 0 0
    outer loop
      vertex 4.75 51 0
      vertex 4.75 45 2
      vertex 4.75 45 0
    endloop
  endfacet
  facet normal 1 0 0
    outer loop
      vertex 4.75 55 0
      vertex 4.75 51 0
      vertex 4.75 51 -1.75
    endloop
  endfacet
  facet normal -9.19701e-08 0.400819 -0.916157
    outer loop
      vertex 0 51 -1.75
      vertex 4.75 55 0
      vertex 4.75 51 -1.75
    endloop
  endfacet
  facet normal 0 0.400819 -0.916157
    outer loop
      vertex 4.75 55 0
      vertex 0 51 -1.75
      vertex 0 55 0
    endloop
  endfacet
  facet normal 1 0 0
    outer loop
      vertex 4.75 51 6
      vertex 4.75 55 6
      vertex 4.75 51 7.75
    endloop
  endfacet
  facet normal 1 0 0
    outer loop
      vertex 4.75 55 6
      vertex 4.75 51 6
      vertex 4.75 55 4
    endloop
  endfacet
  facet normal 1 0 0
    outer loop
      vertex 4.75 45 4
      vertex 4.75 51 6
      vertex 4.75 45 6
    endloop
  endfacet
  facet normal 1 0 0
    outer loop
      vertex 4.75 51 6
      vertex 4.75 45 4
      vertex 4.75 55 4
    endloop
  endfacet
  facet normal -0 0.400819 0.916157
    outer loop
      vertex 0 55 6
      vertex 4.75 51 7.75
      vertex 4.75 55 6
    endloop
  endfacet
  facet normal -9.19701e-08 0.400819 0.916157
    outer loop
      vertex 4.75 51 7.75
      vertex 0 55 6
      vertex 0 51 7.75
    endloop
  endfacet
  facet normal -0.951056 0 -0.309019
    outer loop
      vertex -78.927 -2.24556 1.23664
      vertex -79.5 45 3
      vertex -78.927 45 1.23664
    endloop
  endfacet
  facet normal -0.951057 8.37795e-06 -0.309016
    outer loop
      vertex -79.5 -2.85317 3
      vertex -78.927 -2.24556 1.23664
      vertex -79.1988 -2.85317 2.07295
    endloop
  endfacet
  facet normal -0.951056 0 -0.309019
    outer loop
      vertex -78.927 -2.24556 1.23664
      vertex -79.5 -2.85317 3
      vertex -79.5 45 3
    endloop
  endfacet
  facet normal -0.587785 0 0.809017
    outer loop
      vertex -78.927 45 4.76336
      vertex -77.427 -0.451898 5.85317
      vertex -77.427 45 5.85317
    endloop
  endfacet
  facet normal -0.587785 0 0.809017
    outer loop
      vertex -78.927 -2.24556 4.76336
      vertex -77.427 -0.451898 5.85317
      vertex -78.927 45 4.76336
    endloop
  endfacet
  facet normal -0.587785 5.00393e-09 0.809017
    outer loop
      vertex -77.427 -0.451898 5.85317
      vertex -78.927 -2.24556 4.76336
      vertex -78.0135 -1.76336 5.42705
    endloop
  endfacet
  facet normal -0.951056 0 0.309019
    outer loop
      vertex -79.5 45 3
      vertex -78.927 -2.24556 4.76336
      vertex -78.927 45 4.76336
    endloop
  endfacet
  facet normal -0.951056 0 0.309019
    outer loop
      vertex -79.5 -2.85317 3
      vertex -78.927 -2.24556 4.76336
      vertex -79.5 45 3
    endloop
  endfacet
  facet normal -0.951057 7.94042e-06 0.309016
    outer loop
      vertex -78.927 -2.24556 4.76336
      vertex -79.5 -2.85317 3
      vertex -79.1988 -2.85317 3.92705
    endloop
  endfacet
  facet normal 0 0 -1
    outer loop
      vertex -77.427 -0.451895 0.14683
      vertex -76.5 45 0.14683
      vertex -76.5 -0.451895 0.14683
    endloop
  endfacet
  facet normal -0 0 -1
    outer loop
      vertex -76.5 45 0.14683
      vertex -77.427 -0.451895 0.14683
      vertex -77.427 45 0.14683
    endloop
  endfacet
  facet normal -0.587785 5.00392e-09 -0.809017
    outer loop
      vertex -78.927 -2.24556 1.23664
      vertex -77.427 -0.451895 0.14683
      vertex -78.0135 -1.76336 0.572948
    endloop
  endfacet
  facet normal -0.587785 0 -0.809017
    outer loop
      vertex -77.427 -0.451895 0.14683
      vertex -78.927 -2.24556 1.23664
      vertex -78.927 45 1.23664
    endloop
  endfacet
  facet normal -0.587785 0 -0.809017
    outer loop
      vertex -77.427 -0.451895 0.14683
      vertex -78.927 45 1.23664
      vertex -77.427 45 0.14683
    endloop
  endfacet
  facet normal -0 0 1
    outer loop
      vertex -77.427 45 5.85317
      vertex -76.5 -0.451898 5.85317
      vertex -76.5 45 5.85317
    endloop
  endfacet
  facet normal 0 0 1
    outer loop
      vertex -76.5 -0.451898 5.85317
      vertex -77.427 45 5.85317
      vertex -77.427 -0.451898 5.85317
    endloop
  endfacet
  facet normal -1 0 0
    outer loop
      vertex -76.5 54 0
      vertex -76.5 45 0.14683
      vertex -76.5 54 6
    endloop
  endfacet
  facet normal -1 0 0
    outer loop
      vertex -76.5 0 0
      vertex -76.5 45 0.14683
      vertex -76.5 54 0
    endloop
  endfacet
  facet normal -1 -0 0
    outer loop
      vertex -76.5 45 0.14683
      vertex -76.5 0 0
      vertex -76.5 -0.451895 0.14683
    endloop
  endfacet
  facet normal -1 0 0
    outer loop
      vertex -76.5 45 5.85317
      vertex -76.5 54 6
      vertex -76.5 45 0.14683
    endloop
  endfacet
  facet normal -1 0 0
    outer loop
      vertex -76.5 45 5.85317
      vertex -76.5 0 6
      vertex -76.5 54 6
    endloop
  endfacet
  facet normal -1 0 -0
    outer loop
      vertex -76.5 0 6
      vertex -76.5 45 5.85317
      vertex -76.5 -0.451898 5.85317
    endloop
  endfacet
  facet normal 0 1 0
    outer loop
      vertex -76.5 45 5.85317
      vertex -78.927 45 4.76336
      vertex -77.427 45 5.85317
    endloop
  endfacet
  facet normal 0 1 0
    outer loop
      vertex -76.5 45 5.85317
      vertex -79.5 45 3
      vertex -78.927 45 4.76336
    endloop
  endfacet
  facet normal 0 1 -0
    outer loop
      vertex -76.5 45 0.14683
      vertex -79.5 45 3
      vertex -76.5 45 5.85317
    endloop
  endfacet
  facet normal 0 1 0
    outer loop
      vertex -79.5 45 3
      vertex -76.5 45 0.14683
      vertex -78.927 45 1.23664
    endloop
  endfacet
  facet normal 0 1 0
    outer loop
      vertex -78.927 45 1.23664
      vertex -76.5 45 0.14683
      vertex -77.427 45 0.14683
    endloop
  endfacet
  facet normal 1 -0 0
    outer loop
      vertex -68.5 45 6
      vertex -68.5 54 0
      vertex -68.5 54 6
    endloop
  endfacet
  facet normal 1 0 0
    outer loop
      vertex -68.5 54 0
      vertex -68.5 45 6
      vertex -68.5 45 0
    endloop
  endfacet
  facet normal 0 1 -0
    outer loop
      vertex -68.5 54 0
      vertex -76.5 54 6
      vertex -68.5 54 6
    endloop
  endfacet
  facet normal 0 1 0
    outer loop
      vertex -76.5 54 6
      vertex -68.5 54 0
      vertex -76.5 54 0
    endloop
  endfacet
  facet normal 1 -0 0
    outer loop
      vertex -5 45 6
      vertex -5 54 0
      vertex -5 54 6
    endloop
  endfacet
  facet normal 1 0 0
    outer loop
      vertex -5 54 0
      vertex -5 45 6
      vertex -5 45 0
    endloop
  endfacet
  facet normal -1 0 0
    outer loop
      vertex -58 45 0
      vertex -58 54 6
      vertex -58 54 0
    endloop
  endfacet
  facet normal -1 -0 0
    outer loop
      vertex -58 54 6
      vertex -58 45 0
      vertex -58 45 6
    endloop
  endfacet
  facet normal 0 1 -0
    outer loop
      vertex -5 54 0
      vertex -58 54 6
      vertex -5 54 6
    endloop
  endfacet
  facet normal 0 1 0
    outer loop
      vertex -58 54 6
      vertex -5 54 0
      vertex -58 54 0
    endloop
  endfacet
endsolid OpenSCAD_Model
