solid OpenSCAD_Model
  facet normal 0.866026 0.5 0
    outer loop
      vertex 9.13545 4.06737 1.125
      vertex 8.09017 5.87785 -0.375
      vertex 8.09017 5.87785 1.125
    endloop
  endfacet
  facet normal 0.866026 0.5 0
    outer loop
      vertex 8.09017 5.87785 -0.375
      vertex 9.13545 4.06737 1.125
      vertex 9.13545 4.06737 -0.375
    endloop
  endfacet
  facet normal -0.951057 0.309017 0
    outer loop
      vertex -9.78148 2.07912 -0.375
      vertex -9.13545 4.06737 1.125
      vertex -9.13545 4.06737 -0.375
    endloop
  endfacet
  facet normal -0.951057 0.309017 0
    outer loop
      vertex -9.13545 4.06737 1.125
      vertex -9.78148 2.07912 -0.375
      vertex -9.78148 2.07912 1.125
    endloop
  endfacet
  facet normal 0.743145 0.669131 0
    outer loop
      vertex 8.09017 5.87785 1.125
      vertex 6.69131 7.43145 -0.375
      vertex 6.69131 7.43145 1.125
    endloop
  endfacet
  facet normal 0.743145 0.669131 0
    outer loop
      vertex 6.69131 7.43145 -0.375
      vertex 8.09017 5.87785 1.125
      vertex 8.09017 5.87785 -0.375
    endloop
  endfacet
  facet normal 0.207911 0.978148 -0
    outer loop
      vertex 3.09017 9.51056 -0.375
      vertex 1.04528 9.94522 1.125
      vertex 3.09017 9.51056 1.125
    endloop
  endfacet
  facet normal 0.207911 0.978148 0
    outer loop
      vertex 1.04528 9.94522 1.125
      vertex 3.09017 9.51056 -0.375
      vertex 1.04528 9.94522 -0.375
    endloop
  endfacet
  facet normal 0.406737 0.913545 -0
    outer loop
      vertex 5 8.66025 -0.375
      vertex 3.09017 9.51056 1.125
      vertex 5 8.66025 1.125
    endloop
  endfacet
  facet normal 0.406737 0.913545 0
    outer loop
      vertex 3.09017 9.51056 1.125
      vertex 5 8.66025 -0.375
      vertex 3.09017 9.51056 -0.375
    endloop
  endfacet
  facet normal -0.406737 0.913545 0
    outer loop
      vertex -3.09017 9.51056 -0.375
      vertex -5 8.66025 1.125
      vertex -3.09017 9.51056 1.125
    endloop
  endfacet
  facet normal -0.406737 0.913545 0
    outer loop
      vertex -5 8.66025 1.125
      vertex -3.09017 9.51056 -0.375
      vertex -5 8.66025 -0.375
    endloop
  endfacet
  facet normal -0.866026 0.5 0
    outer loop
      vertex -9.13545 4.06737 -0.375
      vertex -8.09017 5.87785 1.125
      vertex -8.09017 5.87785 -0.375
    endloop
  endfacet
  facet normal -0.866026 0.5 0
    outer loop
      vertex -8.09017 5.87785 1.125
      vertex -9.13545 4.06737 -0.375
      vertex -9.13545 4.06737 1.125
    endloop
  endfacet
  facet normal 0.994522 -0.104529 0
    outer loop
      vertex 9.78148 -2.07912 1.125
      vertex 10 0 -0.375
      vertex 10 0 1.125
    endloop
  endfacet
  facet normal 0.994522 -0.104529 0
    outer loop
      vertex 10 0 -0.375
      vertex 9.78148 -2.07912 1.125
      vertex 9.78148 -2.07912 -0.375
    endloop
  endfacet
  facet normal 0.587785 0.809017 -0
    outer loop
      vertex 6.69131 7.43145 -0.375
      vertex 5 8.66025 1.125
      vertex 6.69131 7.43145 1.125
    endloop
  endfacet
  facet normal 0.587785 0.809017 0
    outer loop
      vertex 5 8.66025 1.125
      vertex 6.69131 7.43145 -0.375
      vertex 5 8.66025 -0.375
    endloop
  endfacet
  facet normal 0 1 -0
    outer loop
      vertex 1.04528 9.94522 -0.375
      vertex -1.04528 9.94522 1.125
      vertex 1.04528 9.94522 1.125
    endloop
  endfacet
  facet normal 0 1 0
    outer loop
      vertex -1.04528 9.94522 1.125
      vertex 1.04528 9.94522 -0.375
      vertex -1.04528 9.94522 -0.375
    endloop
  endfacet
  facet normal -0.994522 0.104529 0
    outer loop
      vertex -10 0 -0.375
      vertex -9.78148 2.07912 1.125
      vertex -9.78148 2.07912 -0.375
    endloop
  endfacet
  facet normal -0.994522 0.104529 0
    outer loop
      vertex -9.78148 2.07912 1.125
      vertex -10 0 -0.375
      vertex -10 0 1.125
    endloop
  endfacet
  facet normal -0.587785 0.809017 0
    outer loop
      vertex -5 8.66025 -0.375
      vertex -6.69131 7.43145 1.125
      vertex -5 8.66025 1.125
    endloop
  endfacet
  facet normal -0.587785 0.809017 0
    outer loop
      vertex -6.69131 7.43145 1.125
      vertex -5 8.66025 -0.375
      vertex -6.69131 7.43145 -0.375
    endloop
  endfacet
  facet normal -0.207911 0.978148 0
    outer loop
      vertex -1.04528 9.94522 -0.375
      vertex -3.09017 9.51056 1.125
      vertex -1.04528 9.94522 1.125
    endloop
  endfacet
  facet normal -0.207911 0.978148 0
    outer loop
      vertex -3.09017 9.51056 1.125
      vertex -1.04528 9.94522 -0.375
      vertex -3.09017 9.51056 -0.375
    endloop
  endfacet
  facet normal -0.743145 0.669131 0
    outer loop
      vertex -8.09017 5.87785 -0.375
      vertex -6.69131 7.43145 1.125
      vertex -6.69131 7.43145 -0.375
    endloop
  endfacet
  facet normal -0.743145 0.669131 0
    outer loop
      vertex -6.69131 7.43145 1.125
      vertex -8.09017 5.87785 -0.375
      vertex -8.09017 5.87785 1.125
    endloop
  endfacet
  facet normal 0.994522 0.104529 0
    outer loop
      vertex 10 0 1.125
      vertex 9.78148 2.07912 -0.375
      vertex 9.78148 2.07912 1.125
    endloop
  endfacet
  facet normal 0.994522 0.104529 0
    outer loop
      vertex 9.78148 2.07912 -0.375
      vertex 10 0 1.125
      vertex 10 0 -0.375
    endloop
  endfacet
  facet normal -0.866026 -0.5 0
    outer loop
      vertex -8.09017 -5.87785 -0.375
      vertex -9.13545 -4.06737 1.125
      vertex -9.13545 -4.06737 -0.375
    endloop
  endfacet
  facet normal -0.866026 -0.5 0
    outer loop
      vertex -9.13545 -4.06737 1.125
      vertex -8.09017 -5.87785 -0.375
      vertex -8.09017 -5.87785 1.125
    endloop
  endfacet
  facet normal 0.587785 -0.809017 0
    outer loop
      vertex 5 -8.66025 -0.375
      vertex 6.69131 -7.43145 1.125
      vertex 5 -8.66025 1.125
    endloop
  endfacet
  facet normal 0.587785 -0.809017 0
    outer loop
      vertex 6.69131 -7.43145 1.125
      vertex 5 -8.66025 -0.375
      vertex 6.69131 -7.43145 -0.375
    endloop
  endfacet
  facet normal 0.951057 0.309017 0
    outer loop
      vertex 9.78148 2.07912 1.125
      vertex 9.13545 4.06737 -0.375
      vertex 9.13545 4.06737 1.125
    endloop
  endfacet
  facet normal 0.951057 0.309017 0
    outer loop
      vertex 9.13545 4.06737 -0.375
      vertex 9.78148 2.07912 1.125
      vertex 9.78148 2.07912 -0.375
    endloop
  endfacet
  facet normal 0 0 -1
    outer loop
      vertex 4.90054 0.499999 0.375
      vertex 8.57936 1.95818 0.375
      vertex 8.74366 0.499999 0.375
    endloop
  endfacet
  facet normal -0 0 -1
    outer loop
      vertex 8.57936 1.95818 0.375
      vertex 4.6194 1.91342 0.375
      vertex 7.92853 3.81818 0.375
    endloop
  endfacet
  facet normal 0 0 -1
    outer loop
      vertex 3.81876 3.11165 0.375
      vertex 7.92853 3.81818 0.375
      vertex 4.6194 1.91342 0.375
    endloop
  endfacet
  facet normal 0 0 -1
    outer loop
      vertex 8.57936 1.95818 0.375
      vertex 4.90054 0.499999 0.375
      vertex 4.6194 1.91342 0.375
    endloop
  endfacet
  facet normal -0 0 -1
    outer loop
      vertex 7.92853 3.81818 0.375
      vertex 3.81876 3.11165 0.375
      vertex 6.88012 5.48671 0.375
    endloop
  endfacet
  facet normal -0 0 -1
    outer loop
      vertex 6.88012 5.48671 0.375
      vertex 3.81876 3.11165 0.375
      vertex 6.53697 5.82986 0.375
    endloop
  endfacet
  facet normal 0 0 -1
    outer loop
      vertex -7.92853 3.81818 0.375
      vertex -3.81876 3.11165 0.375
      vertex -4.6194 1.91342 0.375
    endloop
  endfacet
  facet normal 0 0 -1
    outer loop
      vertex -8.57936 1.95818 0.375
      vertex -4.6194 1.91342 0.375
      vertex -4.90054 0.5 0.375
    endloop
  endfacet
  facet normal 0 0 -1
    outer loop
      vertex -3.81876 3.11165 0.375
      vertex -6.88012 5.48671 0.375
      vertex -6.53697 5.82986 0.375
    endloop
  endfacet
  facet normal 0 0 -1
    outer loop
      vertex -3.81876 3.11165 0.375
      vertex -7.92853 3.81818 0.375
      vertex -6.88012 5.48671 0.375
    endloop
  endfacet
  facet normal 0 0 -1
    outer loop
      vertex -4.6194 1.91342 0.375
      vertex -8.57936 1.95818 0.375
      vertex -7.92853 3.81818 0.375
    endloop
  endfacet
  facet normal 0 -0 -1
    outer loop
      vertex -8.57936 1.95818 0.375
      vertex -4.90054 0.5 0.375
      vertex -8.74366 0.5 0.375
    endloop
  endfacet
  facet normal 0 0 -1
    outer loop
      vertex -1.95818 8.57936 0.375
      vertex -0.5 4.90054 0.375
      vertex -1.91342 4.6194 0.375
    endloop
  endfacet
  facet normal 0 0 -1
    outer loop
      vertex -0.5 4.90054 0.375
      vertex -1.95818 8.57936 0.375
      vertex -0.5 8.74366 0.375
    endloop
  endfacet
  facet normal 0 0 -1
    outer loop
      vertex -3.81818 7.92853 0.375
      vertex -1.91342 4.6194 0.375
      vertex -3.11165 3.81876 0.375
    endloop
  endfacet
  facet normal 0 0 -1
    outer loop
      vertex -1.91342 4.6194 0.375
      vertex -3.81818 7.92853 0.375
      vertex -1.95818 8.57936 0.375
    endloop
  endfacet
  facet normal 0 0 -1
    outer loop
      vertex -3.11165 3.81876 0.375
      vertex -5.48671 6.88012 0.375
      vertex -3.81818 7.92853 0.375
    endloop
  endfacet
  facet normal 0 -0 -1
    outer loop
      vertex -5.48671 6.88012 0.375
      vertex -3.11165 3.81876 0.375
      vertex -5.82986 6.53697 0.375
    endloop
  endfacet
  facet normal 0 0 -1
    outer loop
      vertex 3.11165 -3.81876 0.375
      vertex 5.48671 -6.88012 0.375
      vertex 3.81818 -7.92853 0.375
    endloop
  endfacet
  facet normal 0 0 -1
    outer loop
      vertex 5.48671 -6.88012 0.375
      vertex 3.11165 -3.81876 0.375
      vertex 5.82986 -6.53697 0.375
    endloop
  endfacet
  facet normal 0 0 -1
    outer loop
      vertex 1.91342 -4.6194 0.375
      vertex 3.81818 -7.92853 0.375
      vertex 1.95818 -8.57936 0.375
    endloop
  endfacet
  facet normal 0 0 -1
    outer loop
      vertex 3.81818 -7.92853 0.375
      vertex 1.91342 -4.6194 0.375
      vertex 3.11165 -3.81876 0.375
    endloop
  endfacet
  facet normal 0 0 -1
    outer loop
      vertex 0.499999 -4.90054 0.375
      vertex 1.95818 -8.57936 0.375
      vertex 0.499999 -8.74366 0.375
    endloop
  endfacet
  facet normal 0 0 -1
    outer loop
      vertex 1.95818 -8.57936 0.375
      vertex 0.499999 -4.90054 0.375
      vertex 1.91342 -4.6194 0.375
    endloop
  endfacet
  facet normal 0 0 -1
    outer loop
      vertex -1.95818 -8.57936 0.375
      vertex -0.5 -4.90054 0.375
      vertex -0.5 -8.74366 0.375
    endloop
  endfacet
  facet normal -0 0 -1
    outer loop
      vertex -0.5 -4.90054 0.375
      vertex -1.95818 -8.57936 0.375
      vertex -1.91342 -4.6194 0.375
    endloop
  endfacet
  facet normal 0 0 -1
    outer loop
      vertex -3.81818 -7.92853 0.375
      vertex -1.91342 -4.6194 0.375
      vertex -1.95818 -8.57936 0.375
    endloop
  endfacet
  facet normal -0 0 -1
    outer loop
      vertex -1.91342 -4.6194 0.375
      vertex -3.81818 -7.92853 0.375
      vertex -3.11165 -3.81876 0.375
    endloop
  endfacet
  facet normal 0 0 -1
    outer loop
      vertex -5.48671 -6.88012 0.375
      vertex -3.11165 -3.81876 0.375
      vertex -3.81818 -7.92853 0.375
    endloop
  endfacet
  facet normal 0 0 -1
    outer loop
      vertex -3.11165 -3.81876 0.375
      vertex -5.48671 -6.88012 0.375
      vertex -5.82986 -6.53697 0.375
    endloop
  endfacet
  facet normal 0 0 -1
    outer loop
      vertex -6.88012 -5.48671 0.375
      vertex -3.81876 -3.11165 0.375
      vertex -6.53697 -5.82986 0.375
    endloop
  endfacet
  facet normal 0 0 -1
    outer loop
      vertex -7.92853 -3.81818 0.375
      vertex -3.81876 -3.11165 0.375
      vertex -6.88012 -5.48671 0.375
    endloop
  endfacet
  facet normal -0 0 -1
    outer loop
      vertex -3.81876 -3.11165 0.375
      vertex -7.92853 -3.81818 0.375
      vertex -4.6194 -1.91342 0.375
    endloop
  endfacet
  facet normal 0 0 -1
    outer loop
      vertex -8.57936 -1.95818 0.375
      vertex -4.6194 -1.91342 0.375
      vertex -7.92853 -3.81818 0.375
    endloop
  endfacet
  facet normal -0 0 -1
    outer loop
      vertex -4.6194 -1.91342 0.375
      vertex -8.57936 -1.95818 0.375
      vertex -4.90054 -0.499999 0.375
    endloop
  endfacet
  facet normal -0 0 -1
    outer loop
      vertex -4.90054 -0.499999 0.375
      vertex -8.57936 -1.95818 0.375
      vertex -8.74366 -0.499999 0.375
    endloop
  endfacet
  facet normal 0 0 -1
    outer loop
      vertex 3.11165 3.81876 0.375
      vertex 5.48671 6.88012 0.375
      vertex 5.82986 6.53697 0.375
    endloop
  endfacet
  facet normal -0 0 -1
    outer loop
      vertex 5.48671 6.88012 0.375
      vertex 3.11165 3.81876 0.375
      vertex 3.81818 7.92853 0.375
    endloop
  endfacet
  facet normal 0 0 -1
    outer loop
      vertex 1.91342 4.6194 0.375
      vertex 3.81818 7.92853 0.375
      vertex 3.11165 3.81876 0.375
    endloop
  endfacet
  facet normal -0 0 -1
    outer loop
      vertex 3.81818 7.92853 0.375
      vertex 1.91342 4.6194 0.375
      vertex 1.95818 8.57936 0.375
    endloop
  endfacet
  facet normal 0 0 -1
    outer loop
      vertex 0.5 4.90054 0.375
      vertex 1.95818 8.57936 0.375
      vertex 1.91342 4.6194 0.375
    endloop
  endfacet
  facet normal -0 0 -1
    outer loop
      vertex 1.95818 8.57936 0.375
      vertex 0.5 4.90054 0.375
      vertex 0.5 8.74366 0.375
    endloop
  endfacet
  facet normal 0 0 -1
    outer loop
      vertex 4.6194 -1.91342 0.375
      vertex 8.57936 -1.95818 0.375
      vertex 7.92853 -3.81818 0.375
    endloop
  endfacet
  facet normal 0 0 -1
    outer loop
      vertex 3.81876 -3.11165 0.375
      vertex 7.92853 -3.81818 0.375
      vertex 6.88012 -5.48671 0.375
    endloop
  endfacet
  facet normal 0 0 -1
    outer loop
      vertex 3.81876 -3.11165 0.375
      vertex 6.88012 -5.48671 0.375
      vertex 6.53697 -5.82986 0.375
    endloop
  endfacet
  facet normal 0 -0 -1
    outer loop
      vertex 4.90054 -0.5 0.375
      vertex 8.57936 -1.95818 0.375
      vertex 4.6194 -1.91342 0.375
    endloop
  endfacet
  facet normal 0 0 -1
    outer loop
      vertex 8.57936 -1.95818 0.375
      vertex 4.90054 -0.5 0.375
      vertex 8.74366 -0.5 0.375
    endloop
  endfacet
  facet normal 0 0 -1
    outer loop
      vertex 7.92853 -3.81818 0.375
      vertex 3.81876 -3.11165 0.375
      vertex 4.6194 -1.91342 0.375
    endloop
  endfacet
  facet normal 0 0 -1
    outer loop
      vertex 3.2909 -1.9 0.375
      vertex 3.2909 1.9 0.375
      vertex 3.8 0 0.375
    endloop
  endfacet
  facet normal 0 0 -1
    outer loop
      vertex 1.9 -3.2909 0.375
      vertex 3.2909 1.9 0.375
      vertex 3.2909 -1.9 0.375
    endloop
  endfacet
  facet normal 0 0 -1
    outer loop
      vertex 1.9 -3.2909 0.375
      vertex 1.9 3.2909 0.375
      vertex 3.2909 1.9 0.375
    endloop
  endfacet
  facet normal 0 0 -1
    outer loop
      vertex 0 -3.8 0.375
      vertex 1.9 3.2909 0.375
      vertex 1.9 -3.2909 0.375
    endloop
  endfacet
  facet normal 0 0 -1
    outer loop
      vertex 0 -3.8 0.375
      vertex 0 3.8 0.375
      vertex 1.9 3.2909 0.375
    endloop
  endfacet
  facet normal 0 0 -1
    outer loop
      vertex -1.9 -3.2909 0.375
      vertex 0 3.8 0.375
      vertex 0 -3.8 0.375
    endloop
  endfacet
  facet normal 0 0 -1
    outer loop
      vertex -1.9 -3.2909 0.375
      vertex -1.9 3.2909 0.375
      vertex 0 3.8 0.375
    endloop
  endfacet
  facet normal 0 0 -1
    outer loop
      vertex -3.2909 -1.9 0.375
      vertex -1.9 3.2909 0.375
      vertex -1.9 -3.2909 0.375
    endloop
  endfacet
  facet normal 0 0 -1
    outer loop
      vertex -3.2909 -1.9 0.375
      vertex -3.2909 1.9 0.375
      vertex -1.9 3.2909 0.375
    endloop
  endfacet
  facet normal 0 -0 -1
    outer loop
      vertex -3.2909 1.9 0.375
      vertex -3.2909 -1.9 0.375
      vertex -3.8 0 0.375
    endloop
  endfacet
  facet normal 0.866026 -0.5 0
    outer loop
      vertex 8.09017 -5.87785 1.125
      vertex 9.13545 -4.06737 -0.375
      vertex 9.13545 -4.06737 1.125
    endloop
  endfacet
  facet normal 0.866026 -0.5 0
    outer loop
      vertex 9.13545 -4.06737 -0.375
      vertex 8.09017 -5.87785 1.125
      vertex 8.09017 -5.87785 -0.375
    endloop
  endfacet
  facet normal -0.994522 -0.104529 0
    outer loop
      vertex -9.78148 -2.07912 -0.375
      vertex -10 0 1.125
      vertex -10 0 -0.375
    endloop
  endfacet
  facet normal -0.994522 -0.104529 0
    outer loop
      vertex -10 0 1.125
      vertex -9.78148 -2.07912 -0.375
      vertex -9.78148 -2.07912 1.125
    endloop
  endfacet
  facet normal 0.207911 -0.978148 0
    outer loop
      vertex 1.04528 -9.94522 -0.375
      vertex 3.09017 -9.51056 1.125
      vertex 1.04528 -9.94522 1.125
    endloop
  endfacet
  facet normal 0.207911 -0.978148 0
    outer loop
      vertex 3.09017 -9.51056 1.125
      vertex 1.04528 -9.94522 -0.375
      vertex 3.09017 -9.51056 -0.375
    endloop
  endfacet
  facet normal 0.406737 -0.913545 0
    outer loop
      vertex 3.09017 -9.51056 -0.375
      vertex 5 -8.66025 1.125
      vertex 3.09017 -9.51056 1.125
    endloop
  endfacet
  facet normal 0.406737 -0.913545 0
    outer loop
      vertex 5 -8.66025 1.125
      vertex 3.09017 -9.51056 -0.375
      vertex 5 -8.66025 -0.375
    endloop
  endfacet
  facet normal 0.951057 -0.309017 0
    outer loop
      vertex 9.13545 -4.06737 1.125
      vertex 9.78148 -2.07912 -0.375
      vertex 9.78148 -2.07912 1.125
    endloop
  endfacet
  facet normal 0.951057 -0.309017 0
    outer loop
      vertex 9.78148 -2.07912 -0.375
      vertex 9.13545 -4.06737 1.125
      vertex 9.13545 -4.06737 -0.375
    endloop
  endfacet
  facet normal -0.207911 -0.978148 0
    outer loop
      vertex -3.09017 -9.51056 -0.375
      vertex -1.04528 -9.94522 1.125
      vertex -3.09017 -9.51056 1.125
    endloop
  endfacet
  facet normal -0.207911 -0.978148 -0
    outer loop
      vertex -1.04528 -9.94522 1.125
      vertex -3.09017 -9.51056 -0.375
      vertex -1.04528 -9.94522 -0.375
    endloop
  endfacet
  facet normal 0 -1 0
    outer loop
      vertex -1.04528 -9.94522 -0.375
      vertex 1.04528 -9.94522 1.125
      vertex -1.04528 -9.94522 1.125
    endloop
  endfacet
  facet normal 0 -1 -0
    outer loop
      vertex 1.04528 -9.94522 1.125
      vertex -1.04528 -9.94522 -0.375
      vertex 1.04528 -9.94522 -0.375
    endloop
  endfacet
  facet normal 0 0 -1
    outer loop
      vertex -4.90054 -0.499999 -0.375
      vertex -3.8 0 -0.375
      vertex -4.6194 -1.91342 -0.375
    endloop
  endfacet
  facet normal 0 0 -1
    outer loop
      vertex -4.90054 0.5 -0.375
      vertex -3.8 0 -0.375
      vertex -4.90054 -0.499999 -0.375
    endloop
  endfacet
  facet normal 0 -0 -1
    outer loop
      vertex -4.6194 1.91342 -0.375
      vertex -3.8 0 -0.375
      vertex -4.90054 0.5 -0.375
    endloop
  endfacet
  facet normal 0 0 -1
    outer loop
      vertex -3.8 0 -0.375
      vertex -4.6194 1.91342 -0.375
      vertex -3.81876 3.11165 -0.375
    endloop
  endfacet
  facet normal 0 0 -1
    outer loop
      vertex -8.74366 -0.499999 -0.375
      vertex -4.90054 0.5 -0.375
      vertex -4.90054 -0.499999 -0.375
    endloop
  endfacet
  facet normal -0 0 -1
    outer loop
      vertex -4.90054 0.5 -0.375
      vertex -8.74366 -0.499999 -0.375
      vertex -8.74366 0.5 -0.375
    endloop
  endfacet
  facet normal 0 0 -1
    outer loop
      vertex -1.91342 4.6194 -0.375
      vertex 0 3.8 -0.375
      vertex -1.9 3.2909 -0.375
    endloop
  endfacet
  facet normal 0 0 -1
    outer loop
      vertex 0 3.8 -0.375
      vertex -1.91342 4.6194 -0.375
      vertex -0.5 4.90054 -0.375
    endloop
  endfacet
  facet normal 0 0 -1
    outer loop
      vertex -1.9 3.2909 -0.375
      vertex -3.11165 3.81876 -0.375
      vertex -1.91342 4.6194 -0.375
    endloop
  endfacet
  facet normal 0 0 -1
    outer loop
      vertex -3.2909 1.9 -0.375
      vertex -3.11165 3.81876 -0.375
      vertex -1.9 3.2909 -0.375
    endloop
  endfacet
  facet normal 0 0 -1
    outer loop
      vertex -3.81876 3.11165 -0.375
      vertex -3.2909 1.9 -0.375
      vertex -3.8 0 -0.375
    endloop
  endfacet
  facet normal -0 0 -1
    outer loop
      vertex -3.2909 -1.9 -0.375
      vertex -4.6194 -1.91342 -0.375
      vertex -3.8 0 -0.375
    endloop
  endfacet
  facet normal 0 0 -1
    outer loop
      vertex -3.2909 1.9 -0.375
      vertex -3.81876 3.11165 -0.375
      vertex -3.11165 3.81876 -0.375
    endloop
  endfacet
  facet normal 0 0 -1
    outer loop
      vertex -3.81876 3.11165 -0.375
      vertex -5.82986 6.53697 -0.375
      vertex -3.11165 3.81876 -0.375
    endloop
  endfacet
  facet normal 0 -0 -1
    outer loop
      vertex -5.82986 6.53697 -0.375
      vertex -3.81876 3.11165 -0.375
      vertex -6.53697 5.82986 -0.375
    endloop
  endfacet
  facet normal 0 0 -1
    outer loop
      vertex 0.499999 -4.90054 -0.375
      vertex -0.5 -4.90054 -0.375
      vertex 0 -3.8 -0.375
    endloop
  endfacet
  facet normal 0 0 -1
    outer loop
      vertex -1.91342 -4.6194 -0.375
      vertex 0 -3.8 -0.375
      vertex -0.5 -4.90054 -0.375
    endloop
  endfacet
  facet normal -0 0 -1
    outer loop
      vertex 0 -3.8 -0.375
      vertex -1.91342 -4.6194 -0.375
      vertex -1.9 -3.2909 -0.375
    endloop
  endfacet
  facet normal 0 0 -1
    outer loop
      vertex -3.11165 -3.81876 -0.375
      vertex -1.9 -3.2909 -0.375
      vertex -1.91342 -4.6194 -0.375
    endloop
  endfacet
  facet normal 0 0 -1
    outer loop
      vertex -3.11165 -3.81876 -0.375
      vertex -3.2909 -1.9 -0.375
      vertex -1.9 -3.2909 -0.375
    endloop
  endfacet
  facet normal 0 0 -1
    outer loop
      vertex -3.81876 -3.11165 -0.375
      vertex -3.2909 -1.9 -0.375
      vertex -3.11165 -3.81876 -0.375
    endloop
  endfacet
  facet normal 0 0 -1
    outer loop
      vertex -4.6194 -1.91342 -0.375
      vertex -3.2909 -1.9 -0.375
      vertex -3.81876 -3.11165 -0.375
    endloop
  endfacet
  facet normal 0 0 -1
    outer loop
      vertex -5.82986 -6.53697 -0.375
      vertex -3.81876 -3.11165 -0.375
      vertex -3.11165 -3.81876 -0.375
    endloop
  endfacet
  facet normal 0 0 -1
    outer loop
      vertex -3.81876 -3.11165 -0.375
      vertex -5.82986 -6.53697 -0.375
      vertex -6.53697 -5.82986 -0.375
    endloop
  endfacet
  facet normal 0 0 -1
    outer loop
      vertex 3.81876 3.11165 -0.375
      vertex 5.82986 6.53697 -0.375
      vertex 6.53697 5.82986 -0.375
    endloop
  endfacet
  facet normal -0 0 -1
    outer loop
      vertex 4.6194 1.91342 -0.375
      vertex 3.2909 1.9 -0.375
      vertex 3.81876 3.11165 -0.375
    endloop
  endfacet
  facet normal 0 0 -1
    outer loop
      vertex 3.81876 3.11165 -0.375
      vertex 3.11165 3.81876 -0.375
      vertex 5.82986 6.53697 -0.375
    endloop
  endfacet
  facet normal 0 0 -1
    outer loop
      vertex 3.2909 1.9 -0.375
      vertex 3.11165 3.81876 -0.375
      vertex 3.81876 3.11165 -0.375
    endloop
  endfacet
  facet normal 0 0 -1
    outer loop
      vertex 1.9 3.2909 -0.375
      vertex 3.11165 3.81876 -0.375
      vertex 3.2909 1.9 -0.375
    endloop
  endfacet
  facet normal -0 0 -1
    outer loop
      vertex 3.11165 3.81876 -0.375
      vertex 1.9 3.2909 -0.375
      vertex 1.91342 4.6194 -0.375
    endloop
  endfacet
  facet normal 0 0 -1
    outer loop
      vertex 0 3.8 -0.375
      vertex 1.91342 4.6194 -0.375
      vertex 1.9 3.2909 -0.375
    endloop
  endfacet
  facet normal 0 0 -1
    outer loop
      vertex -0.5 4.90054 -0.375
      vertex 0.5 4.90054 -0.375
      vertex 0 3.8 -0.375
    endloop
  endfacet
  facet normal -0 0 -1
    outer loop
      vertex 1.91342 4.6194 -0.375
      vertex 0 3.8 -0.375
      vertex 0.5 4.90054 -0.375
    endloop
  endfacet
  facet normal 0 0 -1
    outer loop
      vertex 4.90054 -0.5 -0.375
      vertex 8.74366 0.499999 -0.375
      vertex 8.74366 -0.5 -0.375
    endloop
  endfacet
  facet normal 0 0 -1
    outer loop
      vertex 4.90054 -0.5 -0.375
      vertex 4.90054 0.499999 -0.375
      vertex 8.74366 0.499999 -0.375
    endloop
  endfacet
  facet normal 0 0 -1
    outer loop
      vertex 3.8 0 -0.375
      vertex 4.90054 -0.5 -0.375
      vertex 4.6194 -1.91342 -0.375
    endloop
  endfacet
  facet normal 0 0 -1
    outer loop
      vertex 4.90054 -0.5 -0.375
      vertex 3.8 0 -0.375
      vertex 4.90054 0.499999 -0.375
    endloop
  endfacet
  facet normal 0 0 -1
    outer loop
      vertex 3.2909 -1.9 -0.375
      vertex 4.6194 -1.91342 -0.375
      vertex 3.81876 -3.11165 -0.375
    endloop
  endfacet
  facet normal -0 0 -1
    outer loop
      vertex 4.90054 0.499999 -0.375
      vertex 3.8 0 -0.375
      vertex 4.6194 1.91342 -0.375
    endloop
  endfacet
  facet normal 0 0 -1
    outer loop
      vertex 8.74366 -0.5 -0.375
      vertex 10 0 -0.375
      vertex 9.78148 -2.07912 -0.375
    endloop
  endfacet
  facet normal 0 0 -1
    outer loop
      vertex 8.57936 -1.95818 -0.375
      vertex 9.78148 -2.07912 -0.375
      vertex 9.13545 -4.06737 -0.375
    endloop
  endfacet
  facet normal 0 0 -1
    outer loop
      vertex 8.74366 0.499999 -0.375
      vertex 10 0 -0.375
      vertex 8.74366 -0.5 -0.375
    endloop
  endfacet
  facet normal 0 0 -1
    outer loop
      vertex 10 0 -0.375
      vertex 8.74366 0.499999 -0.375
      vertex 9.78148 2.07912 -0.375
    endloop
  endfacet
  facet normal 0 0 -1
    outer loop
      vertex 9.78148 -2.07912 -0.375
      vertex 8.57936 -1.95818 -0.375
      vertex 8.74366 -0.5 -0.375
    endloop
  endfacet
  facet normal 0 0 -1
    outer loop
      vertex 7.92853 -3.81818 -0.375
      vertex 9.13545 -4.06737 -0.375
      vertex 8.09017 -5.87785 -0.375
    endloop
  endfacet
  facet normal 0 0 -1
    outer loop
      vertex 9.13545 -4.06737 -0.375
      vertex 7.92853 -3.81818 -0.375
      vertex 8.57936 -1.95818 -0.375
    endloop
  endfacet
  facet normal 0 0 -1
    outer loop
      vertex 8.09017 -5.87785 -0.375
      vertex 6.88012 -5.48671 -0.375
      vertex 7.92853 -3.81818 -0.375
    endloop
  endfacet
  facet normal 0 0 -1
    outer loop
      vertex 6.53697 -5.82986 -0.375
      vertex 8.09017 -5.87785 -0.375
      vertex 6.69131 -7.43145 -0.375
    endloop
  endfacet
  facet normal 0 0 -1
    outer loop
      vertex 8.09017 -5.87785 -0.375
      vertex 6.53697 -5.82986 -0.375
      vertex 6.88012 -5.48671 -0.375
    endloop
  endfacet
  facet normal 0 0 -1
    outer loop
      vertex 6.69131 -7.43145 -0.375
      vertex 5.82986 -6.53697 -0.375
      vertex 6.53697 -5.82986 -0.375
    endloop
  endfacet
  facet normal 0 0 -1
    outer loop
      vertex 6.69131 -7.43145 -0.375
      vertex 5.48671 -6.88012 -0.375
      vertex 5.82986 -6.53697 -0.375
    endloop
  endfacet
  facet normal 0 0 -1
    outer loop
      vertex 5 -8.66025 -0.375
      vertex 5.48671 -6.88012 -0.375
      vertex 6.69131 -7.43145 -0.375
    endloop
  endfacet
  facet normal 0 0 -1
    outer loop
      vertex 5 -8.66025 -0.375
      vertex 3.81818 -7.92853 -0.375
      vertex 5.48671 -6.88012 -0.375
    endloop
  endfacet
  facet normal 0 0 -1
    outer loop
      vertex 3.09017 -9.51056 -0.375
      vertex 3.81818 -7.92853 -0.375
      vertex 5 -8.66025 -0.375
    endloop
  endfacet
  facet normal 0 0 -1
    outer loop
      vertex 3.09017 -9.51056 -0.375
      vertex 1.95818 -8.57936 -0.375
      vertex 3.81818 -7.92853 -0.375
    endloop
  endfacet
  facet normal 0 0 -1
    outer loop
      vertex 1.04528 -9.94522 -0.375
      vertex 1.95818 -8.57936 -0.375
      vertex 3.09017 -9.51056 -0.375
    endloop
  endfacet
  facet normal 0 0 -1
    outer loop
      vertex 1.04528 -9.94522 -0.375
      vertex 0.499999 -8.74366 -0.375
      vertex 1.95818 -8.57936 -0.375
    endloop
  endfacet
  facet normal 0 0 -1
    outer loop
      vertex -0.5 -8.74366 -0.375
      vertex 0.499999 -4.90054 -0.375
      vertex 0.499999 -8.74366 -0.375
    endloop
  endfacet
  facet normal 0 0 -1
    outer loop
      vertex -0.5 -4.90054 -0.375
      vertex 0.499999 -4.90054 -0.375
      vertex -0.5 -8.74366 -0.375
    endloop
  endfacet
  facet normal 0 0 -1
    outer loop
      vertex 1.04528 -9.94522 -0.375
      vertex -0.5 -8.74366 -0.375
      vertex 0.499999 -8.74366 -0.375
    endloop
  endfacet
  facet normal 0 0 -1
    outer loop
      vertex -1.04528 -9.94522 -0.375
      vertex -0.5 -8.74366 -0.375
      vertex 1.04528 -9.94522 -0.375
    endloop
  endfacet
  facet normal 0 0 -1
    outer loop
      vertex -1.04528 -9.94522 -0.375
      vertex -1.95818 -8.57936 -0.375
      vertex -0.5 -8.74366 -0.375
    endloop
  endfacet
  facet normal 0 0 -1
    outer loop
      vertex -3.09017 -9.51056 -0.375
      vertex -1.95818 -8.57936 -0.375
      vertex -1.04528 -9.94522 -0.375
    endloop
  endfacet
  facet normal 0 0 -1
    outer loop
      vertex -3.09017 -9.51056 -0.375
      vertex -3.81818 -7.92853 -0.375
      vertex -1.95818 -8.57936 -0.375
    endloop
  endfacet
  facet normal 0 0 -1
    outer loop
      vertex -5 -8.66025 -0.375
      vertex -3.81818 -7.92853 -0.375
      vertex -3.09017 -9.51056 -0.375
    endloop
  endfacet
  facet normal 0 0 -1
    outer loop
      vertex -5 -8.66025 -0.375
      vertex -5.48671 -6.88012 -0.375
      vertex -3.81818 -7.92853 -0.375
    endloop
  endfacet
  facet normal 0 0 -1
    outer loop
      vertex -6.69131 -7.43145 -0.375
      vertex -5.48671 -6.88012 -0.375
      vertex -5 -8.66025 -0.375
    endloop
  endfacet
  facet normal -0 0 -1
    outer loop
      vertex -5.48671 -6.88012 -0.375
      vertex -6.69131 -7.43145 -0.375
      vertex -5.82986 -6.53697 -0.375
    endloop
  endfacet
  facet normal -0 0 -1
    outer loop
      vertex -5.82986 -6.53697 -0.375
      vertex -6.69131 -7.43145 -0.375
      vertex -6.53697 -5.82986 -0.375
    endloop
  endfacet
  facet normal 0 0 -1
    outer loop
      vertex -8.09017 -5.87785 -0.375
      vertex -6.53697 -5.82986 -0.375
      vertex -6.69131 -7.43145 -0.375
    endloop
  endfacet
  facet normal -0 0 -1
    outer loop
      vertex -6.53697 -5.82986 -0.375
      vertex -8.09017 -5.87785 -0.375
      vertex -6.88012 -5.48671 -0.375
    endloop
  endfacet
  facet normal -0 0 -1
    outer loop
      vertex -6.88012 -5.48671 -0.375
      vertex -8.09017 -5.87785 -0.375
      vertex -7.92853 -3.81818 -0.375
    endloop
  endfacet
  facet normal 0 0 -1
    outer loop
      vertex -9.13545 -4.06737 -0.375
      vertex -7.92853 -3.81818 -0.375
      vertex -8.09017 -5.87785 -0.375
    endloop
  endfacet
  facet normal -0 0 -1
    outer loop
      vertex -8.57936 -1.95818 -0.375
      vertex -9.78148 -2.07912 -0.375
      vertex -8.74366 -0.499999 -0.375
    endloop
  endfacet
  facet normal 0 0 -1
    outer loop
      vertex -9.78148 -2.07912 -0.375
      vertex -8.57936 -1.95818 -0.375
      vertex -9.13545 -4.06737 -0.375
    endloop
  endfacet
  facet normal -0 0 -1
    outer loop
      vertex -7.92853 -3.81818 -0.375
      vertex -9.13545 -4.06737 -0.375
      vertex -8.57936 -1.95818 -0.375
    endloop
  endfacet
  facet normal 0 0 -1
    outer loop
      vertex 8.57936 1.95818 -0.375
      vertex 9.78148 2.07912 -0.375
      vertex 8.74366 0.499999 -0.375
    endloop
  endfacet
  facet normal -0 0 -1
    outer loop
      vertex 9.78148 2.07912 -0.375
      vertex 8.57936 1.95818 -0.375
      vertex 9.13545 4.06737 -0.375
    endloop
  endfacet
  facet normal 0 0 -1
    outer loop
      vertex 7.92853 3.81818 -0.375
      vertex 9.13545 4.06737 -0.375
      vertex 8.57936 1.95818 -0.375
    endloop
  endfacet
  facet normal -0 0 -1
    outer loop
      vertex 9.13545 4.06737 -0.375
      vertex 7.92853 3.81818 -0.375
      vertex 8.09017 5.87785 -0.375
    endloop
  endfacet
  facet normal 0 0 -1
    outer loop
      vertex 6.88012 5.48671 -0.375
      vertex 8.09017 5.87785 -0.375
      vertex 7.92853 3.81818 -0.375
    endloop
  endfacet
  facet normal 0 0 -1
    outer loop
      vertex 6.53697 5.82986 -0.375
      vertex 8.09017 5.87785 -0.375
      vertex 6.88012 5.48671 -0.375
    endloop
  endfacet
  facet normal -0 0 -1
    outer loop
      vertex 8.09017 5.87785 -0.375
      vertex 6.53697 5.82986 -0.375
      vertex 6.69131 7.43145 -0.375
    endloop
  endfacet
  facet normal 0 0 -1
    outer loop
      vertex 5.82986 6.53697 -0.375
      vertex 6.69131 7.43145 -0.375
      vertex 6.53697 5.82986 -0.375
    endloop
  endfacet
  facet normal 0 0 -1
    outer loop
      vertex 5.48671 6.88012 -0.375
      vertex 6.69131 7.43145 -0.375
      vertex 5.82986 6.53697 -0.375
    endloop
  endfacet
  facet normal 0 0 -1
    outer loop
      vertex 5.48671 6.88012 -0.375
      vertex 5 8.66025 -0.375
      vertex 6.69131 7.43145 -0.375
    endloop
  endfacet
  facet normal 0 0 -1
    outer loop
      vertex 3.81818 7.92853 -0.375
      vertex 5 8.66025 -0.375
      vertex 5.48671 6.88012 -0.375
    endloop
  endfacet
  facet normal 0 0 -1
    outer loop
      vertex 3.81818 7.92853 -0.375
      vertex 3.09017 9.51056 -0.375
      vertex 5 8.66025 -0.375
    endloop
  endfacet
  facet normal 0 0 -1
    outer loop
      vertex 1.95818 8.57936 -0.375
      vertex 3.09017 9.51056 -0.375
      vertex 3.81818 7.92853 -0.375
    endloop
  endfacet
  facet normal 0 0 -1
    outer loop
      vertex 1.95818 8.57936 -0.375
      vertex 1.04528 9.94522 -0.375
      vertex 3.09017 9.51056 -0.375
    endloop
  endfacet
  facet normal 0 0 -1
    outer loop
      vertex 0.5 8.74366 -0.375
      vertex 1.04528 9.94522 -0.375
      vertex 1.95818 8.57936 -0.375
    endloop
  endfacet
  facet normal 0 0 -1
    outer loop
      vertex 0.5 4.90054 -0.375
      vertex -0.5 4.90054 -0.375
      vertex 0.5 8.74366 -0.375
    endloop
  endfacet
  facet normal 0 0 -1
    outer loop
      vertex -0.5 8.74366 -0.375
      vertex 0.5 8.74366 -0.375
      vertex -0.5 4.90054 -0.375
    endloop
  endfacet
  facet normal 0 0 -1
    outer loop
      vertex -0.5 8.74366 -0.375
      vertex 1.04528 9.94522 -0.375
      vertex 0.5 8.74366 -0.375
    endloop
  endfacet
  facet normal 0 0 -1
    outer loop
      vertex -0.5 8.74366 -0.375
      vertex -1.04528 9.94522 -0.375
      vertex 1.04528 9.94522 -0.375
    endloop
  endfacet
  facet normal 0 0 -1
    outer loop
      vertex -1.95818 8.57936 -0.375
      vertex -1.04528 9.94522 -0.375
      vertex -0.5 8.74366 -0.375
    endloop
  endfacet
  facet normal 0 0 -1
    outer loop
      vertex -1.95818 8.57936 -0.375
      vertex -3.09017 9.51056 -0.375
      vertex -1.04528 9.94522 -0.375
    endloop
  endfacet
  facet normal 0 0 -1
    outer loop
      vertex -3.81818 7.92853 -0.375
      vertex -3.09017 9.51056 -0.375
      vertex -1.95818 8.57936 -0.375
    endloop
  endfacet
  facet normal 0 0 -1
    outer loop
      vertex -3.81818 7.92853 -0.375
      vertex -5 8.66025 -0.375
      vertex -3.09017 9.51056 -0.375
    endloop
  endfacet
  facet normal 0 0 -1
    outer loop
      vertex -5.48671 6.88012 -0.375
      vertex -5 8.66025 -0.375
      vertex -3.81818 7.92853 -0.375
    endloop
  endfacet
  facet normal 0 0 -1
    outer loop
      vertex -6.69131 7.43145 -0.375
      vertex -5.48671 6.88012 -0.375
      vertex -5.82986 6.53697 -0.375
    endloop
  endfacet
  facet normal 0 0 -1
    outer loop
      vertex -6.69131 7.43145 -0.375
      vertex -5.82986 6.53697 -0.375
      vertex -6.53697 5.82986 -0.375
    endloop
  endfacet
  facet normal 0 0 -1
    outer loop
      vertex -5.48671 6.88012 -0.375
      vertex -6.69131 7.43145 -0.375
      vertex -5 8.66025 -0.375
    endloop
  endfacet
  facet normal 0 0 -1
    outer loop
      vertex -8.09017 5.87785 -0.375
      vertex -6.53697 5.82986 -0.375
      vertex -6.88012 5.48671 -0.375
    endloop
  endfacet
  facet normal 0 0 -1
    outer loop
      vertex -8.09017 5.87785 -0.375
      vertex -6.88012 5.48671 -0.375
      vertex -7.92853 3.81818 -0.375
    endloop
  endfacet
  facet normal 0 0 -1
    outer loop
      vertex -6.53697 5.82986 -0.375
      vertex -8.09017 5.87785 -0.375
      vertex -6.69131 7.43145 -0.375
    endloop
  endfacet
  facet normal 0 0 -1
    outer loop
      vertex -9.13545 4.06737 -0.375
      vertex -7.92853 3.81818 -0.375
      vertex -8.57936 1.95818 -0.375
    endloop
  endfacet
  facet normal 0 0 -1
    outer loop
      vertex -7.92853 3.81818 -0.375
      vertex -9.13545 4.06737 -0.375
      vertex -8.09017 5.87785 -0.375
    endloop
  endfacet
  facet normal 0 0 -1
    outer loop
      vertex -9.78148 2.07912 -0.375
      vertex -8.57936 1.95818 -0.375
      vertex -8.74366 0.5 -0.375
    endloop
  endfacet
  facet normal 0 0 -1
    outer loop
      vertex -10 0 -0.375
      vertex -8.74366 -0.499999 -0.375
      vertex -9.78148 -2.07912 -0.375
    endloop
  endfacet
  facet normal 0 0 -1
    outer loop
      vertex -8.74366 -0.499999 -0.375
      vertex -10 0 -0.375
      vertex -8.74366 0.5 -0.375
    endloop
  endfacet
  facet normal 0 0 -1
    outer loop
      vertex -8.57936 1.95818 -0.375
      vertex -9.78148 2.07912 -0.375
      vertex -9.13545 4.06737 -0.375
    endloop
  endfacet
  facet normal -0 0 -1
    outer loop
      vertex -8.74366 0.5 -0.375
      vertex -10 0 -0.375
      vertex -9.78148 2.07912 -0.375
    endloop
  endfacet
  facet normal 0 0 -1
    outer loop
      vertex 5.82986 -6.53697 -0.375
      vertex 3.81876 -3.11165 -0.375
      vertex 6.53697 -5.82986 -0.375
    endloop
  endfacet
  facet normal 0 0 -1
    outer loop
      vertex 3.2909 1.9 -0.375
      vertex 4.6194 1.91342 -0.375
      vertex 3.8 0 -0.375
    endloop
  endfacet
  facet normal 0 0 -1
    outer loop
      vertex 4.6194 -1.91342 -0.375
      vertex 3.2909 -1.9 -0.375
      vertex 3.8 0 -0.375
    endloop
  endfacet
  facet normal 0 0 -1
    outer loop
      vertex 3.11165 -3.81876 -0.375
      vertex 3.81876 -3.11165 -0.375
      vertex 5.82986 -6.53697 -0.375
    endloop
  endfacet
  facet normal 0 0 -1
    outer loop
      vertex 3.11165 -3.81876 -0.375
      vertex 3.2909 -1.9 -0.375
      vertex 3.81876 -3.11165 -0.375
    endloop
  endfacet
  facet normal 0 0 -1
    outer loop
      vertex 1.9 -3.2909 -0.375
      vertex 3.11165 -3.81876 -0.375
      vertex 1.91342 -4.6194 -0.375
    endloop
  endfacet
  facet normal 0 0 -1
    outer loop
      vertex 3.11165 -3.81876 -0.375
      vertex 1.9 -3.2909 -0.375
      vertex 3.2909 -1.9 -0.375
    endloop
  endfacet
  facet normal 0 0 -1
    outer loop
      vertex 0 -3.8 -0.375
      vertex 1.91342 -4.6194 -0.375
      vertex 0.499999 -4.90054 -0.375
    endloop
  endfacet
  facet normal 0 0 -1
    outer loop
      vertex 1.91342 -4.6194 -0.375
      vertex 0 -3.8 -0.375
      vertex 1.9 -3.2909 -0.375
    endloop
  endfacet
  facet normal -0.951057 -0.309017 0
    outer loop
      vertex -9.13545 -4.06737 -0.375
      vertex -9.78148 -2.07912 1.125
      vertex -9.78148 -2.07912 -0.375
    endloop
  endfacet
  facet normal -0.951057 -0.309017 0
    outer loop
      vertex -9.78148 -2.07912 1.125
      vertex -9.13545 -4.06737 -0.375
      vertex -9.13545 -4.06737 1.125
    endloop
  endfacet
  facet normal -0.743145 -0.669131 0
    outer loop
      vertex -6.69131 -7.43145 -0.375
      vertex -8.09017 -5.87785 1.125
      vertex -8.09017 -5.87785 -0.375
    endloop
  endfacet
  facet normal -0.743145 -0.669131 0
    outer loop
      vertex -8.09017 -5.87785 1.125
      vertex -6.69131 -7.43145 -0.375
      vertex -6.69131 -7.43145 1.125
    endloop
  endfacet
  facet normal 0.743145 -0.669131 0
    outer loop
      vertex 6.69131 -7.43145 1.125
      vertex 8.09017 -5.87785 -0.375
      vertex 8.09017 -5.87785 1.125
    endloop
  endfacet
  facet normal 0.743145 -0.669131 0
    outer loop
      vertex 8.09017 -5.87785 -0.375
      vertex 6.69131 -7.43145 1.125
      vertex 6.69131 -7.43145 -0.375
    endloop
  endfacet
  facet normal -0.406737 -0.913545 0
    outer loop
      vertex -5 -8.66025 -0.375
      vertex -3.09017 -9.51056 1.125
      vertex -5 -8.66025 1.125
    endloop
  endfacet
  facet normal -0.406737 -0.913545 -0
    outer loop
      vertex -3.09017 -9.51056 1.125
      vertex -5 -8.66025 -0.375
      vertex -3.09017 -9.51056 -0.375
    endloop
  endfacet
  facet normal -0.587785 -0.809017 0
    outer loop
      vertex -6.69131 -7.43145 -0.375
      vertex -5 -8.66025 1.125
      vertex -6.69131 -7.43145 1.125
    endloop
  endfacet
  facet normal -0.587785 -0.809017 -0
    outer loop
      vertex -5 -8.66025 1.125
      vertex -6.69131 -7.43145 -0.375
      vertex -5 -8.66025 -0.375
    endloop
  endfacet
  facet normal -0.532032 -0.846724 0
    outer loop
      vertex 3.81818 7.92853 -0.375
      vertex 5.48671 6.88012 0.375
      vertex 3.81818 7.92853 0.375
    endloop
  endfacet
  facet normal -0.532032 -0.846724 -0
    outer loop
      vertex 5.48671 6.88012 0.375
      vertex 3.81818 7.92853 -0.375
      vertex 5.48671 6.88012 -0.375
    endloop
  endfacet
  facet normal -0.993712 0.111965 0
    outer loop
      vertex 8.57936 -1.95818 -0.375
      vertex 8.74366 -0.5 0.375
      vertex 8.74366 -0.5 -0.375
    endloop
  endfacet
  facet normal -0.993712 0.111965 0
    outer loop
      vertex 8.74366 -0.5 0.375
      vertex 8.57936 -1.95818 -0.375
      vertex 8.57936 -1.95818 0.375
    endloop
  endfacet
  facet normal 0.330279 0.943883 -0
    outer loop
      vertex -1.95818 -8.57936 -0.375
      vertex -3.81818 -7.92853 0.375
      vertex -1.95818 -8.57936 0.375
    endloop
  endfacet
  facet normal 0.330279 0.943883 0
    outer loop
      vertex -3.81818 -7.92853 0.375
      vertex -1.95818 -8.57936 -0.375
      vertex -3.81818 -7.92853 -0.375
    endloop
  endfacet
  facet normal -0.943883 -0.330279 0
    outer loop
      vertex 8.57936 1.95818 -0.375
      vertex 7.92853 3.81818 0.375
      vertex 7.92853 3.81818 -0.375
    endloop
  endfacet
  facet normal -0.943883 -0.330279 0
    outer loop
      vertex 7.92853 3.81818 0.375
      vertex 8.57936 1.95818 -0.375
      vertex 8.57936 1.95818 0.375
    endloop
  endfacet
  facet normal 0.330279 -0.943883 0
    outer loop
      vertex -3.81818 7.92853 -0.375
      vertex -1.95818 8.57936 0.375
      vertex -3.81818 7.92853 0.375
    endloop
  endfacet
  facet normal 0.330279 -0.943883 0
    outer loop
      vertex -1.95818 8.57936 0.375
      vertex -3.81818 7.92853 -0.375
      vertex -1.95818 8.57936 -0.375
    endloop
  endfacet
  facet normal 0.846724 -0.532032 0
    outer loop
      vertex -7.92853 3.81818 0.375
      vertex -6.88012 5.48671 -0.375
      vertex -6.88012 5.48671 0.375
    endloop
  endfacet
  facet normal 0.846724 -0.532032 0
    outer loop
      vertex -6.88012 5.48671 -0.375
      vertex -7.92853 3.81818 0.375
      vertex -7.92853 3.81818 -0.375
    endloop
  endfacet
  facet normal 0.532032 -0.846724 0
    outer loop
      vertex -5.48671 6.88012 -0.375
      vertex -3.81818 7.92853 0.375
      vertex -5.48671 6.88012 0.375
    endloop
  endfacet
  facet normal 0.532032 -0.846724 0
    outer loop
      vertex -3.81818 7.92853 0.375
      vertex -5.48671 6.88012 -0.375
      vertex -3.81818 7.92853 -0.375
    endloop
  endfacet
  facet normal -0.707107 0.707107 0
    outer loop
      vertex 5.48671 -6.88012 -0.375
      vertex 5.82986 -6.53697 0.375
      vertex 5.82986 -6.53697 -0.375
    endloop
  endfacet
  facet normal -0.707107 0.707107 0
    outer loop
      vertex 5.82986 -6.53697 0.375
      vertex 5.48671 -6.88012 -0.375
      vertex 5.48671 -6.88012 0.375
    endloop
  endfacet
  facet normal -0.707107 0.707107 0
    outer loop
      vertex 6.53697 -5.82986 -0.375
      vertex 6.88012 -5.48671 0.375
      vertex 6.88012 -5.48671 -0.375
    endloop
  endfacet
  facet normal -0.707107 0.707107 0
    outer loop
      vertex 6.88012 -5.48671 0.375
      vertex 6.53697 -5.82986 -0.375
      vertex 6.53697 -5.82986 0.375
    endloop
  endfacet
  facet normal 0.943883 0.330279 0
    outer loop
      vertex -7.92853 -3.81818 0.375
      vertex -8.57936 -1.95818 -0.375
      vertex -8.57936 -1.95818 0.375
    endloop
  endfacet
  facet normal 0.943883 0.330279 0
    outer loop
      vertex -8.57936 -1.95818 -0.375
      vertex -7.92853 -3.81818 0.375
      vertex -7.92853 -3.81818 -0.375
    endloop
  endfacet
  facet normal -0.846724 -0.532032 0
    outer loop
      vertex 7.92853 3.81818 -0.375
      vertex 6.88012 5.48671 0.375
      vertex 6.88012 5.48671 -0.375
    endloop
  endfacet
  facet normal -0.846724 -0.532032 0
    outer loop
      vertex 6.88012 5.48671 0.375
      vertex 7.92853 3.81818 -0.375
      vertex 7.92853 3.81818 0.375
    endloop
  endfacet
  facet normal -0.707107 -0.707107 0
    outer loop
      vertex 5.82986 6.53697 -0.375
      vertex 5.48671 6.88012 0.375
      vertex 5.48671 6.88012 -0.375
    endloop
  endfacet
  facet normal -0.707107 -0.707107 0
    outer loop
      vertex 5.48671 6.88012 0.375
      vertex 5.82986 6.53697 -0.375
      vertex 5.82986 6.53697 0.375
    endloop
  endfacet
  facet normal -0.707107 -0.707107 0
    outer loop
      vertex 6.88012 5.48671 -0.375
      vertex 6.53697 5.82986 0.375
      vertex 6.53697 5.82986 -0.375
    endloop
  endfacet
  facet normal -0.707107 -0.707107 0
    outer loop
      vertex 6.53697 5.82986 0.375
      vertex 6.88012 5.48671 -0.375
      vertex 6.88012 5.48671 0.375
    endloop
  endfacet
  facet normal -0.111965 -0.993712 0
    outer loop
      vertex 0.5 8.74366 -0.375
      vertex 1.95818 8.57936 0.375
      vertex 0.5 8.74366 0.375
    endloop
  endfacet
  facet normal -0.111965 -0.993712 -0
    outer loop
      vertex 1.95818 8.57936 0.375
      vertex 0.5 8.74366 -0.375
      vertex 1.95818 8.57936 -0.375
    endloop
  endfacet
  facet normal 0.993712 -0.111965 0
    outer loop
      vertex -8.74366 0.5 0.375
      vertex -8.57936 1.95818 -0.375
      vertex -8.57936 1.95818 0.375
    endloop
  endfacet
  facet normal 0.993712 -0.111965 0
    outer loop
      vertex -8.57936 1.95818 -0.375
      vertex -8.74366 0.5 0.375
      vertex -8.74366 0.5 -0.375
    endloop
  endfacet
  facet normal 0.707107 -0.707107 0
    outer loop
      vertex -6.88012 5.48671 0.375
      vertex -6.53697 5.82986 -0.375
      vertex -6.53697 5.82986 0.375
    endloop
  endfacet
  facet normal 0.707107 -0.707107 0
    outer loop
      vertex -6.53697 5.82986 -0.375
      vertex -6.88012 5.48671 0.375
      vertex -6.88012 5.48671 -0.375
    endloop
  endfacet
  facet normal 0.707107 -0.707107 0
    outer loop
      vertex -5.82986 6.53697 0.375
      vertex -5.48671 6.88012 -0.375
      vertex -5.48671 6.88012 0.375
    endloop
  endfacet
  facet normal 0.707107 -0.707107 0
    outer loop
      vertex -5.48671 6.88012 -0.375
      vertex -5.82986 6.53697 0.375
      vertex -5.82986 6.53697 -0.375
    endloop
  endfacet
  facet normal 0.111965 -0.993712 0
    outer loop
      vertex -1.95818 8.57936 -0.375
      vertex -0.5 8.74366 0.375
      vertex -1.95818 8.57936 0.375
    endloop
  endfacet
  facet normal 0.111965 -0.993712 0
    outer loop
      vertex -0.5 8.74366 0.375
      vertex -1.95818 8.57936 -0.375
      vertex -0.5 8.74366 -0.375
    endloop
  endfacet
  facet normal -0.993712 -0.111965 0
    outer loop
      vertex 8.74366 0.499999 -0.375
      vertex 8.57936 1.95818 0.375
      vertex 8.57936 1.95818 -0.375
    endloop
  endfacet
  facet normal -0.993712 -0.111965 0
    outer loop
      vertex 8.57936 1.95818 0.375
      vertex 8.74366 0.499999 -0.375
      vertex 8.74366 0.499999 0.375
    endloop
  endfacet
  facet normal -0.111965 0.993712 0
    outer loop
      vertex 1.95818 -8.57936 -0.375
      vertex 0.499999 -8.74366 0.375
      vertex 1.95818 -8.57936 0.375
    endloop
  endfacet
  facet normal -0.111965 0.993712 0
    outer loop
      vertex 0.499999 -8.74366 0.375
      vertex 1.95818 -8.57936 -0.375
      vertex 0.499999 -8.74366 -0.375
    endloop
  endfacet
  facet normal -0.846724 0.532032 0
    outer loop
      vertex 6.88012 -5.48671 -0.375
      vertex 7.92853 -3.81818 0.375
      vertex 7.92853 -3.81818 -0.375
    endloop
  endfacet
  facet normal -0.846724 0.532032 0
    outer loop
      vertex 7.92853 -3.81818 0.375
      vertex 6.88012 -5.48671 -0.375
      vertex 6.88012 -5.48671 0.375
    endloop
  endfacet
  facet normal -0.943883 0.330279 0
    outer loop
      vertex 7.92853 -3.81818 -0.375
      vertex 8.57936 -1.95818 0.375
      vertex 8.57936 -1.95818 -0.375
    endloop
  endfacet
  facet normal -0.943883 0.330279 0
    outer loop
      vertex 8.57936 -1.95818 0.375
      vertex 7.92853 -3.81818 -0.375
      vertex 7.92853 -3.81818 0.375
    endloop
  endfacet
  facet normal -0.330279 0.943883 0
    outer loop
      vertex 3.81818 -7.92853 -0.375
      vertex 1.95818 -8.57936 0.375
      vertex 3.81818 -7.92853 0.375
    endloop
  endfacet
  facet normal -0.330279 0.943883 0
    outer loop
      vertex 1.95818 -8.57936 0.375
      vertex 3.81818 -7.92853 -0.375
      vertex 1.95818 -8.57936 -0.375
    endloop
  endfacet
  facet normal -0.532032 0.846724 0
    outer loop
      vertex 5.48671 -6.88012 -0.375
      vertex 3.81818 -7.92853 0.375
      vertex 5.48671 -6.88012 0.375
    endloop
  endfacet
  facet normal -0.532032 0.846724 0
    outer loop
      vertex 3.81818 -7.92853 0.375
      vertex 5.48671 -6.88012 -0.375
      vertex 3.81818 -7.92853 -0.375
    endloop
  endfacet
  facet normal 0.111965 0.993712 -0
    outer loop
      vertex -0.5 -8.74366 -0.375
      vertex -1.95818 -8.57936 0.375
      vertex -0.5 -8.74366 0.375
    endloop
  endfacet
  facet normal 0.111965 0.993712 0
    outer loop
      vertex -1.95818 -8.57936 0.375
      vertex -0.5 -8.74366 -0.375
      vertex -1.95818 -8.57936 -0.375
    endloop
  endfacet
  facet normal 0.707107 0.707107 0
    outer loop
      vertex -6.53697 -5.82986 0.375
      vertex -6.88012 -5.48671 -0.375
      vertex -6.88012 -5.48671 0.375
    endloop
  endfacet
  facet normal 0.707107 0.707107 0
    outer loop
      vertex -6.88012 -5.48671 -0.375
      vertex -6.53697 -5.82986 0.375
      vertex -6.53697 -5.82986 -0.375
    endloop
  endfacet
  facet normal 0.707107 0.707107 0
    outer loop
      vertex -5.48671 -6.88012 0.375
      vertex -5.82986 -6.53697 -0.375
      vertex -5.82986 -6.53697 0.375
    endloop
  endfacet
  facet normal 0.707107 0.707107 0
    outer loop
      vertex -5.82986 -6.53697 -0.375
      vertex -5.48671 -6.88012 0.375
      vertex -5.48671 -6.88012 -0.375
    endloop
  endfacet
  facet normal 0.846724 0.532032 0
    outer loop
      vertex -6.88012 -5.48671 0.375
      vertex -7.92853 -3.81818 -0.375
      vertex -7.92853 -3.81818 0.375
    endloop
  endfacet
  facet normal 0.846724 0.532032 0
    outer loop
      vertex -7.92853 -3.81818 -0.375
      vertex -6.88012 -5.48671 0.375
      vertex -6.88012 -5.48671 -0.375
    endloop
  endfacet
  facet normal 0.993712 0.111965 0
    outer loop
      vertex -8.57936 -1.95818 0.375
      vertex -8.74366 -0.499999 -0.375
      vertex -8.74366 -0.499999 0.375
    endloop
  endfacet
  facet normal 0.993712 0.111965 0
    outer loop
      vertex -8.74366 -0.499999 -0.375
      vertex -8.57936 -1.95818 0.375
      vertex -8.57936 -1.95818 -0.375
    endloop
  endfacet
  facet normal -0.330279 -0.943883 0
    outer loop
      vertex 1.95818 8.57936 -0.375
      vertex 3.81818 7.92853 0.375
      vertex 1.95818 8.57936 0.375
    endloop
  endfacet
  facet normal -0.330279 -0.943883 -0
    outer loop
      vertex 3.81818 7.92853 0.375
      vertex 1.95818 8.57936 -0.375
      vertex 3.81818 7.92853 -0.375
    endloop
  endfacet
  facet normal 0.943883 -0.330279 0
    outer loop
      vertex -8.57936 1.95818 0.375
      vertex -7.92853 3.81818 -0.375
      vertex -7.92853 3.81818 0.375
    endloop
  endfacet
  facet normal 0.943883 -0.330279 0
    outer loop
      vertex -7.92853 3.81818 -0.375
      vertex -8.57936 1.95818 0.375
      vertex -8.57936 1.95818 -0.375
    endloop
  endfacet
  facet normal 0.532032 0.846724 -0
    outer loop
      vertex -3.81818 -7.92853 -0.375
      vertex -5.48671 -6.88012 0.375
      vertex -3.81818 -7.92853 0.375
    endloop
  endfacet
  facet normal 0.532032 0.846724 0
    outer loop
      vertex -5.48671 -6.88012 0.375
      vertex -3.81818 -7.92853 -0.375
      vertex -5.48671 -6.88012 -0.375
    endloop
  endfacet
  facet normal 0.980785 0.19509 0
    outer loop
      vertex 4.90054 0.499999 0.375
      vertex 4.6194 1.91342 -0.375
      vertex 4.6194 1.91342 0.375
    endloop
  endfacet
  facet normal 0.980785 0.19509 0
    outer loop
      vertex 4.6194 1.91342 -0.375
      vertex 4.90054 0.499999 0.375
      vertex 4.90054 0.499999 -0.375
    endloop
  endfacet
  facet normal -0.980785 0.195091 0
    outer loop
      vertex -4.90054 0.5 -0.375
      vertex -4.6194 1.91342 0.375
      vertex -4.6194 1.91342 -0.375
    endloop
  endfacet
  facet normal -0.980785 0.195091 0
    outer loop
      vertex -4.6194 1.91342 0.375
      vertex -4.90054 0.5 -0.375
      vertex -4.90054 0.5 0.375
    endloop
  endfacet
  facet normal 0.195091 0.980785 -0
    outer loop
      vertex 1.91342 4.6194 -0.375
      vertex 0.5 4.90054 0.375
      vertex 1.91342 4.6194 0.375
    endloop
  endfacet
  facet normal 0.195091 0.980785 0
    outer loop
      vertex 0.5 4.90054 0.375
      vertex 1.91342 4.6194 -0.375
      vertex 0.5 4.90054 -0.375
    endloop
  endfacet
  facet normal 0.83147 0.55557 0
    outer loop
      vertex 4.6194 1.91342 0.375
      vertex 3.81876 3.11165 -0.375
      vertex 3.81876 3.11165 0.375
    endloop
  endfacet
  facet normal 0.83147 0.55557 0
    outer loop
      vertex 3.81876 3.11165 -0.375
      vertex 4.6194 1.91342 0.375
      vertex 4.6194 1.91342 -0.375
    endloop
  endfacet
  facet normal 0.19509 -0.980785 0
    outer loop
      vertex 0.499999 -4.90054 -0.375
      vertex 1.91342 -4.6194 0.375
      vertex 0.499999 -4.90054 0.375
    endloop
  endfacet
  facet normal 0.19509 -0.980785 0
    outer loop
      vertex 1.91342 -4.6194 0.375
      vertex 0.499999 -4.90054 -0.375
      vertex 1.91342 -4.6194 -0.375
    endloop
  endfacet
  facet normal -0.195091 -0.980785 0
    outer loop
      vertex -1.91342 -4.6194 -0.375
      vertex -0.5 -4.90054 0.375
      vertex -1.91342 -4.6194 0.375
    endloop
  endfacet
  facet normal -0.195091 -0.980785 -0
    outer loop
      vertex -0.5 -4.90054 0.375
      vertex -1.91342 -4.6194 -0.375
      vertex -0.5 -4.90054 -0.375
    endloop
  endfacet
  facet normal -0.195091 0.980785 0
    outer loop
      vertex -0.5 4.90054 -0.375
      vertex -1.91342 4.6194 0.375
      vertex -0.5 4.90054 0.375
    endloop
  endfacet
  facet normal -0.195091 0.980785 0
    outer loop
      vertex -1.91342 4.6194 0.375
      vertex -0.5 4.90054 -0.375
      vertex -1.91342 4.6194 -0.375
    endloop
  endfacet
  facet normal -0.83147 0.55557 0
    outer loop
      vertex -4.6194 1.91342 -0.375
      vertex -3.81876 3.11165 0.375
      vertex -3.81876 3.11165 -0.375
    endloop
  endfacet
  facet normal -0.83147 0.55557 0
    outer loop
      vertex -3.81876 3.11165 0.375
      vertex -4.6194 1.91342 -0.375
      vertex -4.6194 1.91342 0.375
    endloop
  endfacet
  facet normal -0.55557 0.83147 0
    outer loop
      vertex -1.91342 4.6194 -0.375
      vertex -3.11165 3.81876 0.375
      vertex -1.91342 4.6194 0.375
    endloop
  endfacet
  facet normal -0.55557 0.83147 0
    outer loop
      vertex -3.11165 3.81876 0.375
      vertex -1.91342 4.6194 -0.375
      vertex -3.11165 3.81876 -0.375
    endloop
  endfacet
  facet normal -0.980785 -0.19509 0
    outer loop
      vertex -4.6194 -1.91342 -0.375
      vertex -4.90054 -0.499999 0.375
      vertex -4.90054 -0.499999 -0.375
    endloop
  endfacet
  facet normal -0.980785 -0.19509 0
    outer loop
      vertex -4.90054 -0.499999 0.375
      vertex -4.6194 -1.91342 -0.375
      vertex -4.6194 -1.91342 0.375
    endloop
  endfacet
  facet normal -0.55557 -0.83147 0
    outer loop
      vertex -3.11165 -3.81876 -0.375
      vertex -1.91342 -4.6194 0.375
      vertex -3.11165 -3.81876 0.375
    endloop
  endfacet
  facet normal -0.55557 -0.83147 -0
    outer loop
      vertex -1.91342 -4.6194 0.375
      vertex -3.11165 -3.81876 -0.375
      vertex -1.91342 -4.6194 -0.375
    endloop
  endfacet
  facet normal -0.83147 -0.55557 0
    outer loop
      vertex -3.81876 -3.11165 -0.375
      vertex -4.6194 -1.91342 0.375
      vertex -4.6194 -1.91342 -0.375
    endloop
  endfacet
  facet normal -0.83147 -0.55557 0
    outer loop
      vertex -4.6194 -1.91342 0.375
      vertex -3.81876 -3.11165 -0.375
      vertex -3.81876 -3.11165 0.375
    endloop
  endfacet
  facet normal 0.55557 0.83147 -0
    outer loop
      vertex 3.11165 3.81876 -0.375
      vertex 1.91342 4.6194 0.375
      vertex 3.11165 3.81876 0.375
    endloop
  endfacet
  facet normal 0.55557 0.83147 0
    outer loop
      vertex 1.91342 4.6194 0.375
      vertex 3.11165 3.81876 -0.375
      vertex 1.91342 4.6194 -0.375
    endloop
  endfacet
  facet normal 0.83147 -0.55557 0
    outer loop
      vertex 3.81876 -3.11165 0.375
      vertex 4.6194 -1.91342 -0.375
      vertex 4.6194 -1.91342 0.375
    endloop
  endfacet
  facet normal 0.83147 -0.55557 0
    outer loop
      vertex 4.6194 -1.91342 -0.375
      vertex 3.81876 -3.11165 0.375
      vertex 3.81876 -3.11165 -0.375
    endloop
  endfacet
  facet normal 0.55557 -0.83147 0
    outer loop
      vertex 1.91342 -4.6194 -0.375
      vertex 3.11165 -3.81876 0.375
      vertex 1.91342 -4.6194 0.375
    endloop
  endfacet
  facet normal 0.55557 -0.83147 0
    outer loop
      vertex 3.11165 -3.81876 0.375
      vertex 1.91342 -4.6194 -0.375
      vertex 3.11165 -3.81876 -0.375
    endloop
  endfacet
  facet normal 0.980785 -0.195091 0
    outer loop
      vertex 4.6194 -1.91342 0.375
      vertex 4.90054 -0.5 -0.375
      vertex 4.90054 -0.5 0.375
    endloop
  endfacet
  facet normal 0.980785 -0.195091 0
    outer loop
      vertex 4.90054 -0.5 -0.375
      vertex 4.6194 -1.91342 0.375
      vertex 4.6194 -1.91342 -0.375
    endloop
  endfacet
  facet normal -0.965926 -0.258819 0
    outer loop
      vertex 3.8 0 -0.375
      vertex 3.2909 1.9 0.375
      vertex 3.2909 1.9 -0.375
    endloop
  endfacet
  facet normal -0.965926 -0.258819 0
    outer loop
      vertex 3.2909 1.9 0.375
      vertex 3.8 0 -0.375
      vertex 3.8 0 0.375
    endloop
  endfacet
  facet normal 0.965926 -0.258819 0
    outer loop
      vertex -3.8 0 0.375
      vertex -3.2909 1.9 -0.375
      vertex -3.2909 1.9 0.375
    endloop
  endfacet
  facet normal 0.965926 -0.258819 0
    outer loop
      vertex -3.2909 1.9 -0.375
      vertex -3.8 0 0.375
      vertex -3.8 0 -0.375
    endloop
  endfacet
  facet normal 0.258819 -0.965926 0
    outer loop
      vertex -1.9 3.2909 -0.375
      vertex 0 3.8 0.375
      vertex -1.9 3.2909 0.375
    endloop
  endfacet
  facet normal 0.258819 -0.965926 0
    outer loop
      vertex 0 3.8 0.375
      vertex -1.9 3.2909 -0.375
      vertex 0 3.8 -0.375
    endloop
  endfacet
  facet normal -0.707107 -0.707107 0
    outer loop
      vertex 3.2909 1.9 -0.375
      vertex 1.9 3.2909 0.375
      vertex 1.9 3.2909 -0.375
    endloop
  endfacet
  facet normal -0.707107 -0.707107 0
    outer loop
      vertex 1.9 3.2909 0.375
      vertex 3.2909 1.9 -0.375
      vertex 3.2909 1.9 0.375
    endloop
  endfacet
  facet normal 0.707107 -0.707107 0
    outer loop
      vertex -3.2909 1.9 0.375
      vertex -1.9 3.2909 -0.375
      vertex -1.9 3.2909 0.375
    endloop
  endfacet
  facet normal 0.707107 -0.707107 0
    outer loop
      vertex -1.9 3.2909 -0.375
      vertex -3.2909 1.9 0.375
      vertex -3.2909 1.9 -0.375
    endloop
  endfacet
  facet normal -0.258819 -0.965926 0
    outer loop
      vertex 0 3.8 -0.375
      vertex 1.9 3.2909 0.375
      vertex 0 3.8 0.375
    endloop
  endfacet
  facet normal -0.258819 -0.965926 -0
    outer loop
      vertex 1.9 3.2909 0.375
      vertex 0 3.8 -0.375
      vertex 1.9 3.2909 -0.375
    endloop
  endfacet
  facet normal -0.965926 0.258819 0
    outer loop
      vertex 3.2909 -1.9 -0.375
      vertex 3.8 0 0.375
      vertex 3.8 0 -0.375
    endloop
  endfacet
  facet normal -0.965926 0.258819 0
    outer loop
      vertex 3.8 0 0.375
      vertex 3.2909 -1.9 -0.375
      vertex 3.2909 -1.9 0.375
    endloop
  endfacet
  facet normal 0.965926 0.258819 0
    outer loop
      vertex -3.2909 -1.9 0.375
      vertex -3.8 0 -0.375
      vertex -3.8 0 0.375
    endloop
  endfacet
  facet normal 0.965926 0.258819 0
    outer loop
      vertex -3.8 0 -0.375
      vertex -3.2909 -1.9 0.375
      vertex -3.2909 -1.9 -0.375
    endloop
  endfacet
  facet normal -0.707107 0.707107 0
    outer loop
      vertex 1.9 -3.2909 -0.375
      vertex 3.2909 -1.9 0.375
      vertex 3.2909 -1.9 -0.375
    endloop
  endfacet
  facet normal -0.707107 0.707107 0
    outer loop
      vertex 3.2909 -1.9 0.375
      vertex 1.9 -3.2909 -0.375
      vertex 1.9 -3.2909 0.375
    endloop
  endfacet
  facet normal 0.707107 0.707107 0
    outer loop
      vertex -1.9 -3.2909 0.375
      vertex -3.2909 -1.9 -0.375
      vertex -3.2909 -1.9 0.375
    endloop
  endfacet
  facet normal 0.707107 0.707107 0
    outer loop
      vertex -3.2909 -1.9 -0.375
      vertex -1.9 -3.2909 0.375
      vertex -1.9 -3.2909 -0.375
    endloop
  endfacet
  facet normal -0.258819 0.965926 0
    outer loop
      vertex 1.9 -3.2909 -0.375
      vertex 0 -3.8 0.375
      vertex 1.9 -3.2909 0.375
    endloop
  endfacet
  facet normal -0.258819 0.965926 0
    outer loop
      vertex 0 -3.8 0.375
      vertex 1.9 -3.2909 -0.375
      vertex 0 -3.8 -0.375
    endloop
  endfacet
  facet normal 0.258819 0.965926 -0
    outer loop
      vertex 0 -3.8 -0.375
      vertex -1.9 -3.2909 0.375
      vertex 0 -3.8 0.375
    endloop
  endfacet
  facet normal 0.258819 0.965926 0
    outer loop
      vertex -1.9 -3.2909 0.375
      vertex 0 -3.8 -0.375
      vertex -1.9 -3.2909 -0.375
    endloop
  endfacet
  facet normal -1 0 0
    outer loop
      vertex -0.5 4.90054 -0.375
      vertex -0.5 8.74366 0.375
      vertex -0.5 8.74366 -0.375
    endloop
  endfacet
  facet normal -1 -0 0
    outer loop
      vertex -0.5 8.74366 0.375
      vertex -0.5 4.90054 -0.375
      vertex -0.5 4.90054 0.375
    endloop
  endfacet
  facet normal 1 -0 0
    outer loop
      vertex 0.5 4.90054 0.375
      vertex 0.5 8.74366 -0.375
      vertex 0.5 8.74366 0.375
    endloop
  endfacet
  facet normal 1 0 0
    outer loop
      vertex 0.5 8.74366 -0.375
      vertex 0.5 4.90054 0.375
      vertex 0.5 4.90054 -0.375
    endloop
  endfacet
  facet normal 0.707107 0.707107 0
    outer loop
      vertex -3.11165 3.81876 0.375
      vertex -5.82986 6.53697 -0.375
      vertex -5.82986 6.53697 0.375
    endloop
  endfacet
  facet normal 0.707107 0.707107 0
    outer loop
      vertex -5.82986 6.53697 -0.375
      vertex -3.11165 3.81876 0.375
      vertex -3.11165 3.81876 -0.375
    endloop
  endfacet
  facet normal -0.707107 -0.707107 0
    outer loop
      vertex -3.81876 3.11165 -0.375
      vertex -6.53697 5.82986 0.375
      vertex -6.53697 5.82986 -0.375
    endloop
  endfacet
  facet normal -0.707107 -0.707107 0
    outer loop
      vertex -6.53697 5.82986 0.375
      vertex -3.81876 3.11165 -0.375
      vertex -3.81876 3.11165 0.375
    endloop
  endfacet
  facet normal 0 1 -0
    outer loop
      vertex -4.90054 0.5 -0.375
      vertex -8.74366 0.5 0.375
      vertex -4.90054 0.5 0.375
    endloop
  endfacet
  facet normal 0 1 0
    outer loop
      vertex -8.74366 0.5 0.375
      vertex -4.90054 0.5 -0.375
      vertex -8.74366 0.5 -0.375
    endloop
  endfacet
  facet normal 0 -1 0
    outer loop
      vertex -8.74366 -0.499999 -0.375
      vertex -4.90054 -0.499999 0.375
      vertex -8.74366 -0.499999 0.375
    endloop
  endfacet
  facet normal 0 -1 -0
    outer loop
      vertex -4.90054 -0.499999 0.375
      vertex -8.74366 -0.499999 -0.375
      vertex -4.90054 -0.499999 -0.375
    endloop
  endfacet
  facet normal -0.707107 0.707107 0
    outer loop
      vertex -6.53697 -5.82986 -0.375
      vertex -3.81876 -3.11165 0.375
      vertex -3.81876 -3.11165 -0.375
    endloop
  endfacet
  facet normal -0.707107 0.707107 0
    outer loop
      vertex -3.81876 -3.11165 0.375
      vertex -6.53697 -5.82986 -0.375
      vertex -6.53697 -5.82986 0.375
    endloop
  endfacet
  facet normal 0.707107 -0.707107 0
    outer loop
      vertex -5.82986 -6.53697 0.375
      vertex -3.11165 -3.81876 -0.375
      vertex -3.11165 -3.81876 0.375
    endloop
  endfacet
  facet normal 0.707107 -0.707107 0
    outer loop
      vertex -3.11165 -3.81876 -0.375
      vertex -5.82986 -6.53697 0.375
      vertex -5.82986 -6.53697 -0.375
    endloop
  endfacet
  facet normal -1 0 0
    outer loop
      vertex -0.5 -8.74366 -0.375
      vertex -0.5 -4.90054 0.375
      vertex -0.5 -4.90054 -0.375
    endloop
  endfacet
  facet normal -1 -0 0
    outer loop
      vertex -0.5 -4.90054 0.375
      vertex -0.5 -8.74366 -0.375
      vertex -0.5 -8.74366 0.375
    endloop
  endfacet
  facet normal 1 -0 0
    outer loop
      vertex 0.499999 -8.74366 0.375
      vertex 0.499999 -4.90054 -0.375
      vertex 0.499999 -4.90054 0.375
    endloop
  endfacet
  facet normal 1 0 0
    outer loop
      vertex 0.499999 -4.90054 -0.375
      vertex 0.499999 -8.74366 0.375
      vertex 0.499999 -8.74366 -0.375
    endloop
  endfacet
  facet normal 0.707107 0.707107 0
    outer loop
      vertex 6.53697 -5.82986 0.375
      vertex 3.81876 -3.11165 -0.375
      vertex 3.81876 -3.11165 0.375
    endloop
  endfacet
  facet normal 0.707107 0.707107 0
    outer loop
      vertex 3.81876 -3.11165 -0.375
      vertex 6.53697 -5.82986 0.375
      vertex 6.53697 -5.82986 -0.375
    endloop
  endfacet
  facet normal -0.707107 -0.707107 0
    outer loop
      vertex 5.82986 -6.53697 -0.375
      vertex 3.11165 -3.81876 0.375
      vertex 3.11165 -3.81876 -0.375
    endloop
  endfacet
  facet normal -0.707107 -0.707107 0
    outer loop
      vertex 3.11165 -3.81876 0.375
      vertex 5.82986 -6.53697 -0.375
      vertex 5.82986 -6.53697 0.375
    endloop
  endfacet
  facet normal 0 1 -0
    outer loop
      vertex 8.74366 0.499999 -0.375
      vertex 4.90054 0.499999 0.375
      vertex 8.74366 0.499999 0.375
    endloop
  endfacet
  facet normal 0 1 0
    outer loop
      vertex 4.90054 0.499999 0.375
      vertex 8.74366 0.499999 -0.375
      vertex 4.90054 0.499999 -0.375
    endloop
  endfacet
  facet normal 0 -1 0
    outer loop
      vertex 4.90054 -0.5 -0.375
      vertex 8.74366 -0.5 0.375
      vertex 4.90054 -0.5 0.375
    endloop
  endfacet
  facet normal 0 -1 -0
    outer loop
      vertex 8.74366 -0.5 0.375
      vertex 4.90054 -0.5 -0.375
      vertex 8.74366 -0.5 -0.375
    endloop
  endfacet
  facet normal -0.707107 0.707107 0
    outer loop
      vertex 3.11165 3.81876 -0.375
      vertex 5.82986 6.53697 0.375
      vertex 5.82986 6.53697 -0.375
    endloop
  endfacet
  facet normal -0.707107 0.707107 0
    outer loop
      vertex 5.82986 6.53697 0.375
      vertex 3.11165 3.81876 -0.375
      vertex 3.11165 3.81876 0.375
    endloop
  endfacet
  facet normal 0.707107 -0.707107 0
    outer loop
      vertex 3.81876 3.11165 0.375
      vertex 6.53697 5.82986 -0.375
      vertex 6.53697 5.82986 0.375
    endloop
  endfacet
  facet normal 0.707107 -0.707107 0
    outer loop
      vertex 6.53697 5.82986 -0.375
      vertex 3.81876 3.11165 0.375
      vertex 3.81876 3.11165 -0.375
    endloop
  endfacet
  facet normal 0 0 1
    outer loop
      vertex 5.75 0 1.125
      vertex 10 0 1.125
      vertex 9.78148 2.07912 1.125
    endloop
  endfacet
  facet normal 0 0 1
    outer loop
      vertex 5.43845 1.86702 1.125
      vertex 9.78148 2.07912 1.125
      vertex 9.13545 4.06737 1.125
    endloop
  endfacet
  facet normal 0 0 1
    outer loop
      vertex 10 0 1.125
      vertex 5.75 0 1.125
      vertex 9.78148 -2.07912 1.125
    endloop
  endfacet
  facet normal 0 0 1
    outer loop
      vertex 4.53756 3.53172 1.125
      vertex 9.13545 4.06737 1.125
      vertex 8.09017 5.87785 1.125
    endloop
  endfacet
  facet normal -0 0 1
    outer loop
      vertex 5.43845 -1.86702 1.125
      vertex 9.78148 -2.07912 1.125
      vertex 5.75 0 1.125
    endloop
  endfacet
  facet normal 0 0 1
    outer loop
      vertex 4.53756 3.53172 1.125
      vertex 8.09017 5.87785 1.125
      vertex 6.69131 7.43145 1.125
    endloop
  endfacet
  facet normal 0 0 1
    outer loop
      vertex 9.78148 -2.07912 1.125
      vertex 5.43845 -1.86702 1.125
      vertex 9.13545 -4.06737 1.125
    endloop
  endfacet
  facet normal -0 0 1
    outer loop
      vertex 4.53756 -3.53172 1.125
      vertex 9.13545 -4.06737 1.125
      vertex 5.43845 -1.86702 1.125
    endloop
  endfacet
  facet normal 0 0 1
    outer loop
      vertex 9.78148 2.07912 1.125
      vertex 5.43845 1.86702 1.125
      vertex 5.75 0 1.125
    endloop
  endfacet
  facet normal 0 0 1
    outer loop
      vertex 3.14495 4.81371 1.125
      vertex 6.69131 7.43145 1.125
      vertex 5 8.66025 1.125
    endloop
  endfacet
  facet normal 0 0 1
    outer loop
      vertex 9.13545 4.06737 1.125
      vertex 4.53756 3.53172 1.125
      vertex 5.43845 1.86702 1.125
    endloop
  endfacet
  facet normal 0 0 1
    outer loop
      vertex 6.69131 7.43145 1.125
      vertex 3.14495 4.81371 1.125
      vertex 4.53756 3.53172 1.125
    endloop
  endfacet
  facet normal 0 0 1
    outer loop
      vertex 3.09017 9.51056 1.125
      vertex 3.14495 4.81371 1.125
      vertex 5 8.66025 1.125
    endloop
  endfacet
  facet normal 0 0 1
    outer loop
      vertex 3.09017 9.51056 1.125
      vertex 1.41154 5.57405 1.125
      vertex 3.14495 4.81371 1.125
    endloop
  endfacet
  facet normal 0 0 1
    outer loop
      vertex 1.04528 9.94522 1.125
      vertex 1.41154 5.57405 1.125
      vertex 3.09017 9.51056 1.125
    endloop
  endfacet
  facet normal 0 0 1
    outer loop
      vertex 1.04528 9.94522 1.125
      vertex -0.474831 5.73036 1.125
      vertex 1.41154 5.57405 1.125
    endloop
  endfacet
  facet normal -0 0 1
    outer loop
      vertex -1.04528 9.94522 1.125
      vertex -0.474831 5.73036 1.125
      vertex 1.04528 9.94522 1.125
    endloop
  endfacet
  facet normal -0 0 1
    outer loop
      vertex -3.09017 9.51056 1.125
      vertex -0.474831 5.73036 1.125
      vertex -1.04528 9.94522 1.125
    endloop
  endfacet
  facet normal 0 0 1
    outer loop
      vertex -0.474831 5.73036 1.125
      vertex -3.09017 9.51056 1.125
      vertex -2.30975 5.2657 1.125
    endloop
  endfacet
  facet normal -0 0 1
    outer loop
      vertex -5 8.66025 1.125
      vertex -2.30975 5.2657 1.125
      vertex -3.09017 9.51056 1.125
    endloop
  endfacet
  facet normal 0 0 1
    outer loop
      vertex -2.30975 5.2657 1.125
      vertex -5 8.66025 1.125
      vertex -3.89437 4.23041 1.125
    endloop
  endfacet
  facet normal -0 0 1
    outer loop
      vertex -6.69131 7.43145 1.125
      vertex -3.89437 4.23041 1.125
      vertex -5 8.66025 1.125
    endloop
  endfacet
  facet normal -0 0 1
    outer loop
      vertex -8.09017 5.87785 1.125
      vertex -3.89437 4.23041 1.125
      vertex -6.69131 7.43145 1.125
    endloop
  endfacet
  facet normal -0 0 1
    outer loop
      vertex -9.13545 4.06737 1.125
      vertex -5.05697 2.7367 1.125
      vertex -8.09017 5.87785 1.125
    endloop
  endfacet
  facet normal 0 0 1
    outer loop
      vertex -3.89437 4.23041 1.125
      vertex -8.09017 5.87785 1.125
      vertex -5.05697 2.7367 1.125
    endloop
  endfacet
  facet normal 0 0 1
    outer loop
      vertex 9.13545 -4.06737 1.125
      vertex 4.53756 -3.53172 1.125
      vertex 8.09017 -5.87785 1.125
    endloop
  endfacet
  facet normal 0 0 1
    outer loop
      vertex 8.09017 -5.87785 1.125
      vertex 4.53756 -3.53172 1.125
      vertex 6.69131 -7.43145 1.125
    endloop
  endfacet
  facet normal -0 0 1
    outer loop
      vertex 3.14495 -4.81371 1.125
      vertex 6.69131 -7.43145 1.125
      vertex 4.53756 -3.53172 1.125
    endloop
  endfacet
  facet normal 0 0 1
    outer loop
      vertex 6.69131 -7.43145 1.125
      vertex 3.14495 -4.81371 1.125
      vertex 5 -8.66025 1.125
    endloop
  endfacet
  facet normal 0 0 1
    outer loop
      vertex 3.14495 -4.81371 1.125
      vertex 3.09017 -9.51056 1.125
      vertex 5 -8.66025 1.125
    endloop
  endfacet
  facet normal -0 0 1
    outer loop
      vertex 1.41154 -5.57405 1.125
      vertex 3.09017 -9.51056 1.125
      vertex 3.14495 -4.81371 1.125
    endloop
  endfacet
  facet normal 0 0 1
    outer loop
      vertex 1.41154 -5.57405 1.125
      vertex 1.04528 -9.94522 1.125
      vertex 3.09017 -9.51056 1.125
    endloop
  endfacet
  facet normal -0 0 1
    outer loop
      vertex -0.474831 -5.73036 1.125
      vertex 1.04528 -9.94522 1.125
      vertex 1.41154 -5.57405 1.125
    endloop
  endfacet
  facet normal 0 0 1
    outer loop
      vertex -0.474831 -5.73036 1.125
      vertex -1.04528 -9.94522 1.125
      vertex 1.04528 -9.94522 1.125
    endloop
  endfacet
  facet normal 0 0 1
    outer loop
      vertex -3.09017 -9.51056 1.125
      vertex -0.474831 -5.73036 1.125
      vertex -2.30975 -5.2657 1.125
    endloop
  endfacet
  facet normal 0 0 1
    outer loop
      vertex -0.474831 -5.73036 1.125
      vertex -3.09017 -9.51056 1.125
      vertex -1.04528 -9.94522 1.125
    endloop
  endfacet
  facet normal 0 0 1
    outer loop
      vertex -5 -8.66025 1.125
      vertex -2.30975 -5.2657 1.125
      vertex -3.89437 -4.23041 1.125
    endloop
  endfacet
  facet normal 0 0 1
    outer loop
      vertex -2.30975 -5.2657 1.125
      vertex -5 -8.66025 1.125
      vertex -3.09017 -9.51056 1.125
    endloop
  endfacet
  facet normal 0 0 1
    outer loop
      vertex -8.09017 -5.87785 1.125
      vertex -3.89437 -4.23041 1.125
      vertex -5.05697 -2.7367 1.125
    endloop
  endfacet
  facet normal 0 0 1
    outer loop
      vertex -9.13545 -4.06737 1.125
      vertex -5.05697 -2.7367 1.125
      vertex -5.67158 -0.946419 1.125
    endloop
  endfacet
  facet normal 0 0 1
    outer loop
      vertex -5.05697 2.7367 1.125
      vertex -9.13545 4.06737 1.125
      vertex -5.67158 0.946419 1.125
    endloop
  endfacet
  facet normal 0 0 1
    outer loop
      vertex -3.89437 -4.23041 1.125
      vertex -6.69131 -7.43145 1.125
      vertex -5 -8.66025 1.125
    endloop
  endfacet
  facet normal -0 0 1
    outer loop
      vertex -9.78148 2.07912 1.125
      vertex -5.67158 0.946419 1.125
      vertex -9.13545 4.06737 1.125
    endloop
  endfacet
  facet normal 0 0 1
    outer loop
      vertex -3.89437 -4.23041 1.125
      vertex -8.09017 -5.87785 1.125
      vertex -6.69131 -7.43145 1.125
    endloop
  endfacet
  facet normal 0 0 1
    outer loop
      vertex -10 0 1.125
      vertex -5.67158 0.946419 1.125
      vertex -9.78148 2.07912 1.125
    endloop
  endfacet
  facet normal 0 0 1
    outer loop
      vertex -5.05697 -2.7367 1.125
      vertex -9.13545 -4.06737 1.125
      vertex -8.09017 -5.87785 1.125
    endloop
  endfacet
  facet normal 0 0 1
    outer loop
      vertex -5.67158 0.946419 1.125
      vertex -10 0 1.125
      vertex -5.67158 -0.946419 1.125
    endloop
  endfacet
  facet normal 0 0 1
    outer loop
      vertex -5.67158 -0.946419 1.125
      vertex -9.78148 -2.07912 1.125
      vertex -9.13545 -4.06737 1.125
    endloop
  endfacet
  facet normal 0 0 1
    outer loop
      vertex -5.67158 -0.946419 1.125
      vertex -10 0 1.125
      vertex -9.78148 -2.07912 1.125
    endloop
  endfacet
  facet normal 0.986361 0.164595 0
    outer loop
      vertex 5.75 0 2
      vertex 5.43845 1.86702 1.125
      vertex 5.43845 1.86702 2
    endloop
  endfacet
  facet normal 0.986361 0.164595 0
    outer loop
      vertex 5.43845 1.86702 1.125
      vertex 5.75 0 2
      vertex 5.75 0 1.125
    endloop
  endfacet
  facet normal -1 0 0
    outer loop
      vertex -5.67158 -0.946419 1.125
      vertex -5.67158 0.946419 2
      vertex -5.67158 0.946419 1.125
    endloop
  endfacet
  facet normal -1 -0 0
    outer loop
      vertex -5.67158 0.946419 2
      vertex -5.67158 -0.946419 1.125
      vertex -5.67158 -0.946419 2
    endloop
  endfacet
  facet normal -0.245485 0.9694 0
    outer loop
      vertex -0.474831 5.73036 1.125
      vertex -2.30975 5.2657 2
      vertex -0.474831 5.73036 2
    endloop
  endfacet
  facet normal -0.245485 0.9694 0
    outer loop
      vertex -2.30975 5.2657 2
      vertex -0.474831 5.73036 1.125
      vertex -2.30975 5.2657 1.125
    endloop
  endfacet
  facet normal 0.677281 0.735724 -0
    outer loop
      vertex 4.53756 3.53172 1.125
      vertex 3.14495 4.81371 2
      vertex 4.53756 3.53172 2
    endloop
  endfacet
  facet normal 0.677281 0.735724 0
    outer loop
      vertex 3.14495 4.81371 2
      vertex 4.53756 3.53172 1.125
      vertex 3.14495 4.81371 1.125
    endloop
  endfacet
  facet normal 0.879474 0.475947 0
    outer loop
      vertex 5.43845 1.86702 2
      vertex 4.53756 3.53172 1.125
      vertex 4.53756 3.53172 2
    endloop
  endfacet
  facet normal 0.879474 0.475947 0
    outer loop
      vertex 4.53756 3.53172 1.125
      vertex 5.43845 1.86702 2
      vertex 5.43845 1.86702 1.125
    endloop
  endfacet
  facet normal 0.401695 0.915773 -0
    outer loop
      vertex 3.14495 4.81371 1.125
      vertex 1.41154 5.57405 2
      vertex 3.14495 4.81371 2
    endloop
  endfacet
  facet normal 0.401695 0.915773 0
    outer loop
      vertex 1.41154 5.57405 2
      vertex 3.14495 4.81371 1.125
      vertex 1.41154 5.57405 1.125
    endloop
  endfacet
  facet normal -0.789141 0.614213 0
    outer loop
      vertex -5.05697 2.7367 1.125
      vertex -3.89437 4.23041 2
      vertex -3.89437 4.23041 1.125
    endloop
  endfacet
  facet normal -0.789141 0.614213 0
    outer loop
      vertex -3.89437 4.23041 2
      vertex -5.05697 2.7367 1.125
      vertex -5.05697 2.7367 2
    endloop
  endfacet
  facet normal -0.945817 0.3247 0
    outer loop
      vertex -5.67158 0.946419 1.125
      vertex -5.05697 2.7367 2
      vertex -5.05697 2.7367 1.125
    endloop
  endfacet
  facet normal -0.945817 0.3247 0
    outer loop
      vertex -5.05697 2.7367 2
      vertex -5.67158 0.946419 1.125
      vertex -5.67158 0.946419 2
    endloop
  endfacet
  facet normal 0 0 1
    outer loop
      vertex 4.05 0 2
      vertex 5.75 0 2
      vertex 5.43845 1.86702 2
    endloop
  endfacet
  facet normal -0 0 1
    outer loop
      vertex 3.5861 1.88213 2
      vertex 5.43845 1.86702 2
      vertex 4.53756 3.53172 2
    endloop
  endfacet
  facet normal 0 0 1
    outer loop
      vertex 5.75 0 2
      vertex 4.05 0 2
      vertex 5.43845 -1.86702 2
    endloop
  endfacet
  facet normal 0 0 1
    outer loop
      vertex 3.5861 -1.88213 2
      vertex 5.43845 -1.86702 2
      vertex 4.05 0 2
    endloop
  endfacet
  facet normal 0 0 1
    outer loop
      vertex 5.43845 1.86702 2
      vertex 3.5861 1.88213 2
      vertex 4.05 0 2
    endloop
  endfacet
  facet normal 0 0 1
    outer loop
      vertex 2.30066 3.33308 2
      vertex 4.53756 3.53172 2
      vertex 3.14495 4.81371 2
    endloop
  endfacet
  facet normal 0 0 1
    outer loop
      vertex 4.53756 3.53172 2
      vertex 2.30066 3.33308 2
      vertex 3.5861 1.88213 2
    endloop
  endfacet
  facet normal 0 0 1
    outer loop
      vertex 1.41154 5.57405 2
      vertex 2.30066 3.33308 2
      vertex 3.14495 4.81371 2
    endloop
  endfacet
  facet normal 0 0 1
    outer loop
      vertex 1.41154 5.57405 2
      vertex 0.488173 4.02047 2
      vertex 2.30066 3.33308 2
    endloop
  endfacet
  facet normal 0 0 1
    outer loop
      vertex -0.474831 5.73036 2
      vertex 0.488173 4.02047 2
      vertex 1.41154 5.57405 2
    endloop
  endfacet
  facet normal 0 0 1
    outer loop
      vertex -0.474831 5.73036 2
      vertex -1.43615 3.78682 2
      vertex 0.488173 4.02047 2
    endloop
  endfacet
  facet normal -0 0 1
    outer loop
      vertex -2.30975 5.2657 2
      vertex -1.43615 3.78682 2
      vertex -0.474831 5.73036 2
    endloop
  endfacet
  facet normal -0 0 1
    outer loop
      vertex -3.89437 4.23041 2
      vertex -1.43615 3.78682 2
      vertex -2.30975 5.2657 2
    endloop
  endfacet
  facet normal 0 0 1
    outer loop
      vertex -1.43615 3.78682 2
      vertex -3.89437 4.23041 2
      vertex -3.03147 2.68565 2
    endloop
  endfacet
  facet normal -0 0 1
    outer loop
      vertex -5.05697 2.7367 2
      vertex -3.03147 2.68565 2
      vertex -3.89437 4.23041 2
    endloop
  endfacet
  facet normal 0 0 1
    outer loop
      vertex -5.67158 0.946419 2
      vertex -3.93231 0.969228 2
      vertex -5.05697 2.7367 2
    endloop
  endfacet
  facet normal 0 0 1
    outer loop
      vertex -3.03147 2.68565 2
      vertex -5.05697 2.7367 2
      vertex -3.93231 0.969228 2
    endloop
  endfacet
  facet normal 0 0 1
    outer loop
      vertex 5.43845 -1.86702 2
      vertex 3.5861 -1.88213 2
      vertex 4.53756 -3.53172 2
    endloop
  endfacet
  facet normal -0 0 1
    outer loop
      vertex 2.30066 -3.33308 2
      vertex 4.53756 -3.53172 2
      vertex 3.5861 -1.88213 2
    endloop
  endfacet
  facet normal 0 0 1
    outer loop
      vertex 4.53756 -3.53172 2
      vertex 2.30066 -3.33308 2
      vertex 3.14495 -4.81371 2
    endloop
  endfacet
  facet normal 0 0 1
    outer loop
      vertex 2.30066 -3.33308 2
      vertex 1.41154 -5.57405 2
      vertex 3.14495 -4.81371 2
    endloop
  endfacet
  facet normal -0 0 1
    outer loop
      vertex 0.488173 -4.02047 2
      vertex 1.41154 -5.57405 2
      vertex 2.30066 -3.33308 2
    endloop
  endfacet
  facet normal 0 0 1
    outer loop
      vertex 0.488173 -4.02047 2
      vertex -0.474831 -5.73036 2
      vertex 1.41154 -5.57405 2
    endloop
  endfacet
  facet normal 0 0 1
    outer loop
      vertex -1.43615 -3.78682 2
      vertex -0.474831 -5.73036 2
      vertex 0.488173 -4.02047 2
    endloop
  endfacet
  facet normal 0 0 1
    outer loop
      vertex -1.43615 -3.78682 2
      vertex -2.30975 -5.2657 2
      vertex -0.474831 -5.73036 2
    endloop
  endfacet
  facet normal 0 0 1
    outer loop
      vertex -3.89437 -4.23041 2
      vertex -1.43615 -3.78682 2
      vertex -3.03147 -2.68565 2
    endloop
  endfacet
  facet normal 0 0 1
    outer loop
      vertex -1.43615 -3.78682 2
      vertex -3.89437 -4.23041 2
      vertex -2.30975 -5.2657 2
    endloop
  endfacet
  facet normal 0 0 1
    outer loop
      vertex -5.05697 -2.7367 2
      vertex -3.03147 -2.68565 2
      vertex -3.93231 -0.969228 2
    endloop
  endfacet
  facet normal 0 0 1
    outer loop
      vertex -3.93231 0.969228 2
      vertex -5.67158 0.946419 2
      vertex -3.93231 -0.969228 2
    endloop
  endfacet
  facet normal 0 0 1
    outer loop
      vertex -3.03147 -2.68565 2
      vertex -5.05697 -2.7367 2
      vertex -3.89437 -4.23041 2
    endloop
  endfacet
  facet normal -0 0 1
    outer loop
      vertex -5.67158 -0.946419 2
      vertex -3.93231 -0.969228 2
      vertex -5.67158 0.946419 2
    endloop
  endfacet
  facet normal 0 0 1
    outer loop
      vertex -3.93231 -0.969228 2
      vertex -5.67158 -0.946419 2
      vertex -5.05697 -2.7367 2
    endloop
  endfacet
  facet normal -0.546948 0.837166 0
    outer loop
      vertex -2.30975 5.2657 1.125
      vertex -3.89437 4.23041 2
      vertex -2.30975 5.2657 2
    endloop
  endfacet
  facet normal -0.546948 0.837166 0
    outer loop
      vertex -3.89437 4.23041 2
      vertex -2.30975 5.2657 1.125
      vertex -3.89437 4.23041 1.125
    endloop
  endfacet
  facet normal 0.401695 -0.915773 0
    outer loop
      vertex 1.41154 -5.57405 1.125
      vertex 3.14495 -4.81371 2
      vertex 1.41154 -5.57405 2
    endloop
  endfacet
  facet normal 0.401695 -0.915773 0
    outer loop
      vertex 3.14495 -4.81371 2
      vertex 1.41154 -5.57405 1.125
      vertex 3.14495 -4.81371 1.125
    endloop
  endfacet
  facet normal 0.879474 -0.475947 0
    outer loop
      vertex 4.53756 -3.53172 2
      vertex 5.43845 -1.86702 1.125
      vertex 5.43845 -1.86702 2
    endloop
  endfacet
  facet normal 0.879474 -0.475947 0
    outer loop
      vertex 5.43845 -1.86702 1.125
      vertex 4.53756 -3.53172 2
      vertex 4.53756 -3.53172 1.125
    endloop
  endfacet
  facet normal -0.245485 -0.9694 0
    outer loop
      vertex -2.30975 -5.2657 1.125
      vertex -0.474831 -5.73036 2
      vertex -2.30975 -5.2657 2
    endloop
  endfacet
  facet normal -0.245485 -0.9694 -0
    outer loop
      vertex -0.474831 -5.73036 2
      vertex -2.30975 -5.2657 1.125
      vertex -0.474831 -5.73036 1.125
    endloop
  endfacet
  facet normal -0.945817 -0.3247 0
    outer loop
      vertex -5.05697 -2.7367 1.125
      vertex -5.67158 -0.946419 2
      vertex -5.67158 -0.946419 1.125
    endloop
  endfacet
  facet normal -0.945817 -0.3247 0
    outer loop
      vertex -5.67158 -0.946419 2
      vertex -5.05697 -2.7367 1.125
      vertex -5.05697 -2.7367 2
    endloop
  endfacet
  facet normal 0.0825793 0.996584 -0
    outer loop
      vertex 1.41154 5.57405 1.125
      vertex -0.474831 5.73036 2
      vertex 1.41154 5.57405 2
    endloop
  endfacet
  facet normal 0.0825793 0.996584 0
    outer loop
      vertex -0.474831 5.73036 2
      vertex 1.41154 5.57405 1.125
      vertex -0.474831 5.73036 1.125
    endloop
  endfacet
  facet normal 0.677281 -0.735724 0
    outer loop
      vertex 3.14495 -4.81371 1.125
      vertex 4.53756 -3.53172 2
      vertex 3.14495 -4.81371 2
    endloop
  endfacet
  facet normal 0.677281 -0.735724 0
    outer loop
      vertex 4.53756 -3.53172 2
      vertex 3.14495 -4.81371 1.125
      vertex 4.53756 -3.53172 1.125
    endloop
  endfacet
  facet normal 0.0825793 -0.996584 0
    outer loop
      vertex -0.474831 -5.73036 1.125
      vertex 1.41154 -5.57405 2
      vertex -0.474831 -5.73036 2
    endloop
  endfacet
  facet normal 0.0825793 -0.996584 0
    outer loop
      vertex 1.41154 -5.57405 2
      vertex -0.474831 -5.73036 1.125
      vertex 1.41154 -5.57405 1.125
    endloop
  endfacet
  facet normal -0.789141 -0.614213 0
    outer loop
      vertex -3.89437 -4.23041 1.125
      vertex -5.05697 -2.7367 2
      vertex -5.05697 -2.7367 1.125
    endloop
  endfacet
  facet normal -0.789141 -0.614213 0
    outer loop
      vertex -5.05697 -2.7367 2
      vertex -3.89437 -4.23041 1.125
      vertex -3.89437 -4.23041 2
    endloop
  endfacet
  facet normal 0.986361 -0.164595 0
    outer loop
      vertex 5.43845 -1.86702 2
      vertex 5.75 0 1.125
      vertex 5.75 0 2
    endloop
  endfacet
  facet normal 0.986361 -0.164595 0
    outer loop
      vertex 5.75 0 1.125
      vertex 5.43845 -1.86702 2
      vertex 5.43845 -1.86702 1.125
    endloop
  endfacet
  facet normal -0.546948 -0.837166 0
    outer loop
      vertex -3.89437 -4.23041 1.125
      vertex -2.30975 -5.2657 2
      vertex -3.89437 -4.23041 2
    endloop
  endfacet
  facet normal -0.546948 -0.837166 -0
    outer loop
      vertex -2.30975 -5.2657 2
      vertex -3.89437 -4.23041 1.125
      vertex -2.30975 -5.2657 1.125
    endloop
  endfacet
  facet normal 0.970942 0.239315 0
    outer loop
      vertex 4.05 0 4
      vertex 3.5861 1.88213 2
      vertex 3.5861 1.88213 4
    endloop
  endfacet
  facet normal 0.970942 0.239315 0
    outer loop
      vertex 3.5861 1.88213 2
      vertex 4.05 0 4
      vertex 4.05 0 2
    endloop
  endfacet
  facet normal -1 0 0
    outer loop
      vertex -3.93231 -0.969228 2
      vertex -3.93231 0.969228 4
      vertex -3.93231 0.969228 2
    endloop
  endfacet
  facet normal -1 -0 0
    outer loop
      vertex -3.93231 0.969228 4
      vertex -3.93231 -0.969228 2
      vertex -3.93231 -0.969228 4
    endloop
  endfacet
  facet normal -0.120537 0.992709 0
    outer loop
      vertex 0.488173 4.02047 2
      vertex -1.43615 3.78682 4
      vertex 0.488173 4.02047 4
    endloop
  endfacet
  facet normal -0.120537 0.992709 0
    outer loop
      vertex -1.43615 3.78682 4
      vertex 0.488173 4.02047 2
      vertex -1.43615 3.78682 2
    endloop
  endfacet
  facet normal -0.568065 0.822984 0
    outer loop
      vertex -1.43615 3.78682 2
      vertex -3.03147 2.68565 4
      vertex -1.43615 3.78682 4
    endloop
  endfacet
  facet normal -0.568065 0.822984 0
    outer loop
      vertex -3.03147 2.68565 4
      vertex -1.43615 3.78682 2
      vertex -3.03147 2.68565 2
    endloop
  endfacet
  facet normal -0.885456 -0.464723 0
    outer loop
      vertex -3.03147 -2.68565 2
      vertex -3.93231 -0.969228 4
      vertex -3.93231 -0.969228 2
    endloop
  endfacet
  facet normal -0.885456 -0.464723 0
    outer loop
      vertex -3.93231 -0.969228 4
      vertex -3.03147 -2.68565 2
      vertex -3.03147 -2.68565 4
    endloop
  endfacet
  facet normal 0.354605 0.935016 -0
    outer loop
      vertex 2.30066 3.33308 2
      vertex 0.488173 4.02047 4
      vertex 2.30066 3.33308 4
    endloop
  endfacet
  facet normal 0.354605 0.935016 0
    outer loop
      vertex 0.488173 4.02047 4
      vertex 2.30066 3.33308 2
      vertex 0.488173 4.02047 2
    endloop
  endfacet
  facet normal 0.748511 0.663123 0
    outer loop
      vertex 3.5861 1.88213 4
      vertex 2.30066 3.33308 2
      vertex 2.30066 3.33308 4
    endloop
  endfacet
  facet normal 0.748511 0.663123 0
    outer loop
      vertex 2.30066 3.33308 2
      vertex 3.5861 1.88213 4
      vertex 3.5861 1.88213 2
    endloop
  endfacet
  facet normal -0.885456 0.464723 0
    outer loop
      vertex -3.93231 0.969228 2
      vertex -3.03147 2.68565 4
      vertex -3.03147 2.68565 2
    endloop
  endfacet
  facet normal -0.885456 0.464723 0
    outer loop
      vertex -3.03147 2.68565 4
      vertex -3.93231 0.969228 2
      vertex -3.93231 0.969228 4
    endloop
  endfacet
  facet normal 0.970942 -0.239315 0
    outer loop
      vertex 3.5861 -1.88213 4
      vertex 4.05 0 2
      vertex 4.05 0 4
    endloop
  endfacet
  facet normal 0.970942 -0.239315 0
    outer loop
      vertex 4.05 0 2
      vertex 3.5861 -1.88213 4
      vertex 3.5861 -1.88213 2
    endloop
  endfacet
  facet normal 0.354605 -0.935016 0
    outer loop
      vertex 0.488173 -4.02047 2
      vertex 2.30066 -3.33308 4
      vertex 0.488173 -4.02047 4
    endloop
  endfacet
  facet normal 0.354605 -0.935016 0
    outer loop
      vertex 2.30066 -3.33308 4
      vertex 0.488173 -4.02047 2
      vertex 2.30066 -3.33308 2
    endloop
  endfacet
  facet normal 0.748511 -0.663123 0
    outer loop
      vertex 2.30066 -3.33308 4
      vertex 3.5861 -1.88213 2
      vertex 3.5861 -1.88213 4
    endloop
  endfacet
  facet normal 0.748511 -0.663123 0
    outer loop
      vertex 3.5861 -1.88213 2
      vertex 2.30066 -3.33308 4
      vertex 2.30066 -3.33308 2
    endloop
  endfacet
  facet normal -0.120537 -0.992709 0
    outer loop
      vertex -1.43615 -3.78682 2
      vertex 0.488173 -4.02047 4
      vertex -1.43615 -3.78682 4
    endloop
  endfacet
  facet normal -0.120537 -0.992709 -0
    outer loop
      vertex 0.488173 -4.02047 4
      vertex -1.43615 -3.78682 2
      vertex 0.488173 -4.02047 2
    endloop
  endfacet
  facet normal 0 0 1
    outer loop
      vertex 3.5861 1.88213 4
      vertex 3.5861 -1.88213 4
      vertex 4.05 0 4
    endloop
  endfacet
  facet normal 0 0 1
    outer loop
      vertex 2.30066 3.33308 4
      vertex 3.5861 -1.88213 4
      vertex 3.5861 1.88213 4
    endloop
  endfacet
  facet normal 0 0 1
    outer loop
      vertex 2.30066 3.33308 4
      vertex 2.30066 -3.33308 4
      vertex 3.5861 -1.88213 4
    endloop
  endfacet
  facet normal 0 0 1
    outer loop
      vertex 0.488173 4.02047 4
      vertex 2.30066 -3.33308 4
      vertex 2.30066 3.33308 4
    endloop
  endfacet
  facet normal 0 0 1
    outer loop
      vertex 0.488173 4.02047 4
      vertex 0.488173 -4.02047 4
      vertex 2.30066 -3.33308 4
    endloop
  endfacet
  facet normal -0 0 1
    outer loop
      vertex -1.43615 3.78682 4
      vertex 0.488173 -4.02047 4
      vertex 0.488173 4.02047 4
    endloop
  endfacet
  facet normal 0 0 1
    outer loop
      vertex -1.43615 3.78682 4
      vertex -1.43615 -3.78682 4
      vertex 0.488173 -4.02047 4
    endloop
  endfacet
  facet normal -0 0 1
    outer loop
      vertex -3.03147 2.68565 4
      vertex -1.43615 -3.78682 4
      vertex -1.43615 3.78682 4
    endloop
  endfacet
  facet normal 0 0 1
    outer loop
      vertex -3.03147 2.68565 4
      vertex -3.03147 -2.68565 4
      vertex -1.43615 -3.78682 4
    endloop
  endfacet
  facet normal -0 0 1
    outer loop
      vertex -3.93231 0.969228 4
      vertex -3.03147 -2.68565 4
      vertex -3.03147 2.68565 4
    endloop
  endfacet
  facet normal 0 0 1
    outer loop
      vertex -3.03147 -2.68565 4
      vertex -3.93231 0.969228 4
      vertex -3.93231 -0.969228 4
    endloop
  endfacet
  facet normal -0.568065 -0.822984 0
    outer loop
      vertex -3.03147 -2.68565 2
      vertex -1.43615 -3.78682 4
      vertex -3.03147 -2.68565 4
    endloop
  endfacet
  facet normal -0.568065 -0.822984 -0
    outer loop
      vertex -1.43615 -3.78682 4
      vertex -3.03147 -2.68565 2
      vertex -1.43615 -3.78682 2
    endloop
  endfacet
endsolid OpenSCAD_Model
