solid OpenSCAD_Model
  facet normal 0.994522 0.104529 0
    outer loop
      vertex 75 0 4
      vertex 73.3611 15.5934 0
      vertex 73.3611 15.5934 4
    endloop
  endfacet
  facet normal 0.994522 0.104529 0
    outer loop
      vertex 73.3611 15.5934 0
      vertex 75 0 4
      vertex 75 0 0
    endloop
  endfacet
  facet normal -0.994522 0.104529 0
    outer loop
      vertex -75 0 0
      vertex -73.3611 15.5934 4
      vertex -73.3611 15.5934 0
    endloop
  endfacet
  facet normal -0.994522 0.104529 0
    outer loop
      vertex -73.3611 15.5934 4
      vertex -75 0 0
      vertex -75 0 4
    endloop
  endfacet
  facet normal 0 1 -0
    outer loop
      vertex 7.83963 74.5891 0
      vertex -7.83963 74.5891 4
      vertex 7.83963 74.5891 4
    endloop
  endfacet
  facet normal 0 1 0
    outer loop
      vertex -7.83963 74.5891 4
      vertex 7.83963 74.5891 0
      vertex -7.83963 74.5891 0
    endloop
  endfacet
  facet normal 0 -1 0
    outer loop
      vertex -7.83963 -74.5891 0
      vertex 7.83963 -74.5891 4
      vertex -7.83963 -74.5891 4
    endloop
  endfacet
  facet normal 0 -1 -0
    outer loop
      vertex 7.83963 -74.5891 4
      vertex -7.83963 -74.5891 0
      vertex 7.83963 -74.5891 0
    endloop
  endfacet
  facet normal 0.743145 0.669131 0
    outer loop
      vertex 50.1848 55.7359 4
      vertex 53.9 51.6097 3
      vertex 50.1848 55.7359 3
    endloop
  endfacet
  facet normal 0.743145 0.669131 2.36145e-06
    outer loop
      vertex 60.6763 44.0839 4
      vertex 53.9 51.6097 3
      vertex 50.1848 55.7359 4
    endloop
  endfacet
  facet normal 0.743145 0.66913 -0
    outer loop
      vertex 60.6763 44.0839 0
      vertex 53.9 51.6097 3
      vertex 60.6763 44.0839 4
    endloop
  endfacet
  facet normal 0.743145 0.66913 0
    outer loop
      vertex 53.9 51.6097 3
      vertex 60.6763 44.0839 0
      vertex 53.9 51.6097 0
    endloop
  endfacet
  facet normal 0.951057 0.309017 0
    outer loop
      vertex 73.3611 15.5934 4
      vertex 68.5159 30.5052 0
      vertex 68.5159 30.5052 4
    endloop
  endfacet
  facet normal 0.951057 0.309017 0
    outer loop
      vertex 68.5159 30.5052 0
      vertex 73.3611 15.5934 4
      vertex 73.3611 15.5934 0
    endloop
  endfacet
  facet normal -0.587785 0.809017 4.73342e-07
    outer loop
      vertex -37.5 64.9519 4
      vertex -43.9 60.302 3
      vertex -50.1848 55.7359 4
    endloop
  endfacet
  facet normal -0.587785 0.809017 0
    outer loop
      vertex -37.5 64.9519 0
      vertex -43.9 60.302 3
      vertex -37.5 64.9519 4
    endloop
  endfacet
  facet normal -0.587785 0.809017 0
    outer loop
      vertex -43.9 60.302 3
      vertex -37.5 64.9519 0
      vertex -43.9 60.302 0
    endloop
  endfacet
  facet normal -0.587785 0.809017 0
    outer loop
      vertex -50.1848 55.7359 4
      vertex -43.9 60.302 3
      vertex -50.1848 55.7359 3
    endloop
  endfacet
  facet normal -0.406737 0.913545 0
    outer loop
      vertex -23.1763 71.3292 0
      vertex -37.5 64.9519 4
      vertex -23.1763 71.3292 4
    endloop
  endfacet
  facet normal -0.406737 0.913545 0
    outer loop
      vertex -37.5 64.9519 4
      vertex -23.1763 71.3292 0
      vertex -37.5 64.9519 0
    endloop
  endfacet
  facet normal 0.866025 0.5 0
    outer loop
      vertex 68.5159 30.5052 4
      vertex 60.6763 44.0839 0
      vertex 60.6763 44.0839 4
    endloop
  endfacet
  facet normal 0.866025 0.5 0
    outer loop
      vertex 60.6763 44.0839 0
      vertex 68.5159 30.5052 4
      vertex 68.5159 30.5052 0
    endloop
  endfacet
  facet normal 0.406737 0.913545 -0
    outer loop
      vertex 37.5 64.9519 0
      vertex 23.1763 71.3292 4
      vertex 37.5 64.9519 4
    endloop
  endfacet
  facet normal 0.406737 0.913545 0
    outer loop
      vertex 23.1763 71.3292 4
      vertex 37.5 64.9519 0
      vertex 23.1763 71.3292 0
    endloop
  endfacet
  facet normal 0.207912 0.978148 -3.79391e-06
    outer loop
      vertex 10.3 74.0662 3
      vertex 23.1763 71.3292 4
      vertex 21.3 71.7281 3
    endloop
  endfacet
  facet normal 0.20791 0.978148 -0
    outer loop
      vertex 23.1763 71.3292 0
      vertex 21.3 71.7281 3
      vertex 23.1763 71.3292 4
    endloop
  endfacet
  facet normal 0.20791 0.978148 0
    outer loop
      vertex 21.3 71.7281 3
      vertex 23.1763 71.3292 0
      vertex 21.3 71.7281 0
    endloop
  endfacet
  facet normal 0.207912 0.978148 2.19917e-06
    outer loop
      vertex 23.1763 71.3292 4
      vertex 10.3 74.0662 3
      vertex 7.83963 74.5891 4
    endloop
  endfacet
  facet normal 0.207911 0.978148 0
    outer loop
      vertex 7.83963 74.5891 0
      vertex 10.3 74.0662 3
      vertex 10.3 74.0662 0
    endloop
  endfacet
  facet normal 0.207911 0.978148 0
    outer loop
      vertex 10.3 74.0662 3
      vertex 7.83963 74.5891 0
      vertex 7.83963 74.5891 4
    endloop
  endfacet
  facet normal 0.587785 0.809017 0
    outer loop
      vertex 42.9 61.0286 3
      vertex 50.1848 55.7359 4
      vertex 50.1848 55.7359 3
    endloop
  endfacet
  facet normal 0.587785 0.809017 1.31106e-06
    outer loop
      vertex 50.1848 55.7359 4
      vertex 42.9 61.0286 3
      vertex 37.5 64.9519 4
    endloop
  endfacet
  facet normal 0.587785 0.809017 0
    outer loop
      vertex 37.5 64.9519 0
      vertex 42.9 61.0286 3
      vertex 42.9 61.0286 0
    endloop
  endfacet
  facet normal 0.587785 0.809017 0
    outer loop
      vertex 42.9 61.0286 3
      vertex 37.5 64.9519 0
      vertex 37.5 64.9519 4
    endloop
  endfacet
  facet normal -0.866025 0.5 0
    outer loop
      vertex -68.5159 30.5052 0
      vertex -60.6763 44.0839 4
      vertex -60.6763 44.0839 0
    endloop
  endfacet
  facet normal -0.866025 0.5 0
    outer loop
      vertex -60.6763 44.0839 4
      vertex -68.5159 30.5052 0
      vertex -68.5159 30.5052 4
    endloop
  endfacet
  facet normal -0.743145 0.66913 0
    outer loop
      vertex -54.9 50.4991 0
      vertex -60.6763 44.0839 0
      vertex -54.9 50.4991 3
    endloop
  endfacet
  facet normal -0.743145 0.669131 0
    outer loop
      vertex -54.9 50.4991 3
      vertex -50.1848 55.7359 4
      vertex -50.1848 55.7359 3
    endloop
  endfacet
  facet normal -0.743145 0.669131 1.05092e-06
    outer loop
      vertex -54.9 50.4991 3
      vertex -60.6763 44.0839 4
      vertex -50.1848 55.7359 4
    endloop
  endfacet
  facet normal -0.743145 0.66913 0
    outer loop
      vertex -60.6763 44.0839 4
      vertex -54.9 50.4991 3
      vertex -60.6763 44.0839 0
    endloop
  endfacet
  facet normal -0.951057 0.309017 0
    outer loop
      vertex -73.3611 15.5934 0
      vertex -68.5159 30.5052 4
      vertex -68.5159 30.5052 0
    endloop
  endfacet
  facet normal -0.951057 0.309017 0
    outer loop
      vertex -68.5159 30.5052 4
      vertex -73.3611 15.5934 0
      vertex -73.3611 15.5934 4
    endloop
  endfacet
  facet normal -0.207912 0.978148 -3.49538e-06
    outer loop
      vertex -7.83963 74.5891 4
      vertex -11.3 73.8536 3
      vertex -23.1763 71.3292 4
    endloop
  endfacet
  facet normal -0.207913 0.978147 0
    outer loop
      vertex -7.83963 74.5891 0
      vertex -11.3 73.8536 3
      vertex -7.83963 74.5891 4
    endloop
  endfacet
  facet normal -0.207913 0.978147 0
    outer loop
      vertex -11.3 73.8536 3
      vertex -7.83963 74.5891 0
      vertex -11.3 73.8536 0
    endloop
  endfacet
  facet normal -0.207911 0.978148 -1.17994e-06
    outer loop
      vertex -22.3 71.5155 3
      vertex -23.1763 71.3292 4
      vertex -11.3 73.8536 3
    endloop
  endfacet
  facet normal -0.20791 0.978148 0
    outer loop
      vertex -23.1763 71.3292 0
      vertex -22.3 71.5155 3
      vertex -22.3 71.5155 0
    endloop
  endfacet
  facet normal -0.20791 0.978148 0
    outer loop
      vertex -22.3 71.5155 3
      vertex -23.1763 71.3292 0
      vertex -23.1763 71.3292 4
    endloop
  endfacet
  facet normal 0.994522 -0.104529 0
    outer loop
      vertex 73.3611 -15.5934 4
      vertex 75 0 0
      vertex 75 0 4
    endloop
  endfacet
  facet normal 0.994522 -0.104529 0
    outer loop
      vertex 75 0 0
      vertex 73.3611 -15.5934 4
      vertex 73.3611 -15.5934 0
    endloop
  endfacet
  facet normal 0 0 -1
    outer loop
      vertex 73.3611 -15.5934 0
      vertex 73.3611 15.5934 0
      vertex 75 0 0
    endloop
  endfacet
  facet normal 0 0 -1
    outer loop
      vertex 68.5159 -30.5052 0
      vertex 73.3611 15.5934 0
      vertex 73.3611 -15.5934 0
    endloop
  endfacet
  facet normal 0 0 -1
    outer loop
      vertex 53.9 -51.6097 0
      vertex 73.3611 15.5934 0
      vertex 68.5159 -30.5052 0
    endloop
  endfacet
  facet normal 0 0 -1
    outer loop
      vertex 53.9 -51.6097 0
      vertex 68.5159 -30.5052 0
      vertex 60.6763 -44.0839 0
    endloop
  endfacet
  facet normal -0 0 -1
    outer loop
      vertex 73.3611 15.5934 0
      vertex 53.9 -51.6097 0
      vertex 68.5159 30.5052 0
    endloop
  endfacet
  facet normal 0 0 -1
    outer loop
      vertex 53.9 51.6097 0
      vertex 68.5159 30.5052 0
      vertex 53.9 -51.6097 0
    endloop
  endfacet
  facet normal 0 0 -1
    outer loop
      vertex 68.5159 30.5052 0
      vertex 53.9 51.6097 0
      vertex 60.6763 44.0839 0
    endloop
  endfacet
  facet normal 0 0 -1
    outer loop
      vertex -68.5159 -30.5052 0
      vertex -54.9 -50.4991 0
      vertex -60.6763 -44.0839 0
    endloop
  endfacet
  facet normal 0 0 -1
    outer loop
      vertex -73.3611 -15.5934 0
      vertex -54.9 -50.4991 0
      vertex -68.5159 -30.5052 0
    endloop
  endfacet
  facet normal 0 0 -1
    outer loop
      vertex -54.9 -50.4991 0
      vertex -73.3611 -15.5934 0
      vertex -54.9 50.4991 0
    endloop
  endfacet
  facet normal 0 0 -1
    outer loop
      vertex -54.9 50.4991 0
      vertex -68.5159 30.5052 0
      vertex -60.6763 44.0839 0
    endloop
  endfacet
  facet normal 0 0 -1
    outer loop
      vertex -73.3611 15.5934 0
      vertex -54.9 50.4991 0
      vertex -73.3611 -15.5934 0
    endloop
  endfacet
  facet normal 0 0 -1
    outer loop
      vertex -54.9 50.4991 0
      vertex -73.3611 15.5934 0
      vertex -68.5159 30.5052 0
    endloop
  endfacet
  facet normal 0 -0 -1
    outer loop
      vertex -73.3611 15.5934 0
      vertex -73.3611 -15.5934 0
      vertex -75 0 0
    endloop
  endfacet
  facet normal 0 0 -1
    outer loop
      vertex -11.3 -73.8536 0
      vertex 10.3 -74.0662 0
      vertex 7.83963 -74.5891 0
    endloop
  endfacet
  facet normal 0 0 -1
    outer loop
      vertex 10.3 -74.0662 0
      vertex -11.3 -73.8536 0
      vertex 10.3 74.0662 0
    endloop
  endfacet
  facet normal 0 0 -1
    outer loop
      vertex -11.3 -73.8536 0
      vertex 7.83963 -74.5891 0
      vertex -7.83963 -74.5891 0
    endloop
  endfacet
  facet normal 0 0 -1
    outer loop
      vertex -11.3 73.8536 0
      vertex 10.3 74.0662 0
      vertex -11.3 -73.8536 0
    endloop
  endfacet
  facet normal -0 0 -1
    outer loop
      vertex 10.3 74.0662 0
      vertex -11.3 73.8536 0
      vertex 7.83963 74.5891 0
    endloop
  endfacet
  facet normal -0 0 -1
    outer loop
      vertex 7.83963 74.5891 0
      vertex -11.3 73.8536 0
      vertex -7.83963 74.5891 0
    endloop
  endfacet
  facet normal 0 0 -1
    outer loop
      vertex -37.5 -64.9519 0
      vertex -22.3 -71.5155 0
      vertex -23.1763 -71.3292 0
    endloop
  endfacet
  facet normal 0 0 -1
    outer loop
      vertex -22.3 -71.5155 0
      vertex -43.9 -60.302 0
      vertex -22.3 71.5155 0
    endloop
  endfacet
  facet normal 0 0 -1
    outer loop
      vertex -22.3 -71.5155 0
      vertex -37.5 -64.9519 0
      vertex -43.9 -60.302 0
    endloop
  endfacet
  facet normal 0 0 -1
    outer loop
      vertex -43.9 60.302 0
      vertex -22.3 71.5155 0
      vertex -43.9 -60.302 0
    endloop
  endfacet
  facet normal 0 -0 -1
    outer loop
      vertex -37.5 64.9519 0
      vertex -22.3 71.5155 0
      vertex -43.9 60.302 0
    endloop
  endfacet
  facet normal 0 0 -1
    outer loop
      vertex -22.3 71.5155 0
      vertex -37.5 64.9519 0
      vertex -23.1763 71.3292 0
    endloop
  endfacet
  facet normal 0 0 -1
    outer loop
      vertex 21.3 -71.7281 0
      vertex 42.9 -61.0286 0
      vertex 37.5 -64.9519 0
    endloop
  endfacet
  facet normal -0 0 -1
    outer loop
      vertex 42.9 -61.0286 0
      vertex 21.3 -71.7281 0
      vertex 42.9 61.0286 0
    endloop
  endfacet
  facet normal 0 0 -1
    outer loop
      vertex 21.3 -71.7281 0
      vertex 37.5 -64.9519 0
      vertex 23.1763 -71.3292 0
    endloop
  endfacet
  facet normal 0 0 -1
    outer loop
      vertex 21.3 71.7281 0
      vertex 42.9 61.0286 0
      vertex 21.3 -71.7281 0
    endloop
  endfacet
  facet normal 0 0 -1
    outer loop
      vertex 42.9 61.0286 0
      vertex 21.3 71.7281 0
      vertex 37.5 64.9519 0
    endloop
  endfacet
  facet normal 0 0 -1
    outer loop
      vertex 37.5 64.9519 0
      vertex 21.3 71.7281 0
      vertex 23.1763 71.3292 0
    endloop
  endfacet
  facet normal 0.743145 -0.66913 0
    outer loop
      vertex 60.6763 -44.0839 4
      vertex 53.9 -51.6097 3
      vertex 60.6763 -44.0839 0
    endloop
  endfacet
  facet normal 0.743145 -0.669131 2.36145e-06
    outer loop
      vertex 50.1848 -55.7359 4
      vertex 53.9 -51.6097 3
      vertex 60.6763 -44.0839 4
    endloop
  endfacet
  facet normal 0.743145 -0.669131 0
    outer loop
      vertex 53.9 -51.6097 3
      vertex 50.1848 -55.7359 4
      vertex 50.1848 -55.7359 3
    endloop
  endfacet
  facet normal 0.743145 -0.66913 0
    outer loop
      vertex 60.6763 -44.0839 0
      vertex 53.9 -51.6097 3
      vertex 53.9 -51.6097 0
    endloop
  endfacet
  facet normal 0.951057 -0.309017 0
    outer loop
      vertex 68.5159 -30.5052 4
      vertex 73.3611 -15.5934 0
      vertex 73.3611 -15.5934 4
    endloop
  endfacet
  facet normal 0.951057 -0.309017 0
    outer loop
      vertex 73.3611 -15.5934 0
      vertex 68.5159 -30.5052 4
      vertex 68.5159 -30.5052 0
    endloop
  endfacet
  facet normal 0.866025 -0.5 0
    outer loop
      vertex 60.6763 -44.0839 4
      vertex 68.5159 -30.5052 0
      vertex 68.5159 -30.5052 4
    endloop
  endfacet
  facet normal 0.866025 -0.5 0
    outer loop
      vertex 68.5159 -30.5052 0
      vertex 60.6763 -44.0839 4
      vertex 60.6763 -44.0839 0
    endloop
  endfacet
  facet normal -0.587785 -0.809017 0
    outer loop
      vertex -43.9 -60.302 3
      vertex -50.1848 -55.7359 4
      vertex -50.1848 -55.7359 3
    endloop
  endfacet
  facet normal -0.587785 -0.809017 4.73342e-07
    outer loop
      vertex -50.1848 -55.7359 4
      vertex -43.9 -60.302 3
      vertex -37.5 -64.9519 4
    endloop
  endfacet
  facet normal -0.587785 -0.809017 0
    outer loop
      vertex -37.5 -64.9519 0
      vertex -43.9 -60.302 3
      vertex -43.9 -60.302 0
    endloop
  endfacet
  facet normal -0.587785 -0.809017 0
    outer loop
      vertex -43.9 -60.302 3
      vertex -37.5 -64.9519 0
      vertex -37.5 -64.9519 4
    endloop
  endfacet
  facet normal -0.866025 -0.5 0
    outer loop
      vertex -60.6763 -44.0839 0
      vertex -68.5159 -30.5052 4
      vertex -68.5159 -30.5052 0
    endloop
  endfacet
  facet normal -0.866025 -0.5 0
    outer loop
      vertex -68.5159 -30.5052 4
      vertex -60.6763 -44.0839 0
      vertex -60.6763 -44.0839 4
    endloop
  endfacet
  facet normal 0.587785 -0.809017 1.31106e-06
    outer loop
      vertex 37.5 -64.9519 4
      vertex 42.9 -61.0286 3
      vertex 50.1848 -55.7359 4
    endloop
  endfacet
  facet normal 0.587785 -0.809017 0
    outer loop
      vertex 37.5 -64.9519 0
      vertex 42.9 -61.0286 3
      vertex 37.5 -64.9519 4
    endloop
  endfacet
  facet normal 0.587785 -0.809017 0
    outer loop
      vertex 42.9 -61.0286 3
      vertex 37.5 -64.9519 0
      vertex 42.9 -61.0286 0
    endloop
  endfacet
  facet normal 0.587785 -0.809017 0
    outer loop
      vertex 50.1848 -55.7359 4
      vertex 42.9 -61.0286 3
      vertex 50.1848 -55.7359 3
    endloop
  endfacet
  facet normal -0.207911 -0.978148 -1.17994e-06
    outer loop
      vertex -11.3 -73.8536 3
      vertex -23.1763 -71.3292 4
      vertex -22.3 -71.5155 3
    endloop
  endfacet
  facet normal -0.20791 -0.978148 0
    outer loop
      vertex -23.1763 -71.3292 0
      vertex -22.3 -71.5155 3
      vertex -23.1763 -71.3292 4
    endloop
  endfacet
  facet normal -0.20791 -0.978148 -0
    outer loop
      vertex -22.3 -71.5155 3
      vertex -23.1763 -71.3292 0
      vertex -22.3 -71.5155 0
    endloop
  endfacet
  facet normal -0.207912 -0.978148 -3.49538e-06
    outer loop
      vertex -23.1763 -71.3292 4
      vertex -11.3 -73.8536 3
      vertex -7.83963 -74.5891 4
    endloop
  endfacet
  facet normal -0.207913 -0.978147 0
    outer loop
      vertex -7.83963 -74.5891 0
      vertex -11.3 -73.8536 3
      vertex -11.3 -73.8536 0
    endloop
  endfacet
  facet normal -0.207913 -0.978147 0
    outer loop
      vertex -11.3 -73.8536 3
      vertex -7.83963 -74.5891 0
      vertex -7.83963 -74.5891 4
    endloop
  endfacet
  facet normal -0.406737 -0.913545 0
    outer loop
      vertex -37.5 -64.9519 0
      vertex -23.1763 -71.3292 4
      vertex -37.5 -64.9519 4
    endloop
  endfacet
  facet normal -0.406737 -0.913545 -0
    outer loop
      vertex -23.1763 -71.3292 4
      vertex -37.5 -64.9519 0
      vertex -23.1763 -71.3292 0
    endloop
  endfacet
  facet normal -0.743145 -0.66913 -0
    outer loop
      vertex -54.9 -50.4991 3
      vertex -60.6763 -44.0839 0
      vertex -54.9 -50.4991 0
    endloop
  endfacet
  facet normal -0.743145 -0.66913 0
    outer loop
      vertex -60.6763 -44.0839 0
      vertex -54.9 -50.4991 3
      vertex -60.6763 -44.0839 4
    endloop
  endfacet
  facet normal -0.743145 -0.669131 -0
    outer loop
      vertex -50.1848 -55.7359 4
      vertex -54.9 -50.4991 3
      vertex -50.1848 -55.7359 3
    endloop
  endfacet
  facet normal -0.743145 -0.669131 1.05092e-06
    outer loop
      vertex -54.9 -50.4991 3
      vertex -50.1848 -55.7359 4
      vertex -60.6763 -44.0839 4
    endloop
  endfacet
  facet normal -0.951057 -0.309017 0
    outer loop
      vertex -68.5159 -30.5052 0
      vertex -73.3611 -15.5934 4
      vertex -73.3611 -15.5934 0
    endloop
  endfacet
  facet normal -0.951057 -0.309017 0
    outer loop
      vertex -73.3611 -15.5934 4
      vertex -68.5159 -30.5052 0
      vertex -68.5159 -30.5052 4
    endloop
  endfacet
  facet normal -0.994522 -0.104529 0
    outer loop
      vertex -73.3611 -15.5934 0
      vertex -75 0 4
      vertex -75 0 0
    endloop
  endfacet
  facet normal -0.994522 -0.104529 0
    outer loop
      vertex -75 0 4
      vertex -73.3611 -15.5934 0
      vertex -73.3611 -15.5934 4
    endloop
  endfacet
  facet normal 0.406737 -0.913545 0
    outer loop
      vertex 23.1763 -71.3292 0
      vertex 37.5 -64.9519 4
      vertex 23.1763 -71.3292 4
    endloop
  endfacet
  facet normal 0.406737 -0.913545 0
    outer loop
      vertex 37.5 -64.9519 4
      vertex 23.1763 -71.3292 0
      vertex 37.5 -64.9519 0
    endloop
  endfacet
  facet normal 0.207912 -0.978148 2.19917e-06
    outer loop
      vertex 7.83963 -74.5891 4
      vertex 10.3 -74.0662 3
      vertex 23.1763 -71.3292 4
    endloop
  endfacet
  facet normal 0.207911 -0.978148 0
    outer loop
      vertex 7.83963 -74.5891 0
      vertex 10.3 -74.0662 3
      vertex 7.83963 -74.5891 4
    endloop
  endfacet
  facet normal 0.207911 -0.978148 0
    outer loop
      vertex 10.3 -74.0662 3
      vertex 7.83963 -74.5891 0
      vertex 10.3 -74.0662 0
    endloop
  endfacet
  facet normal 0.207912 -0.978148 -3.79391e-06
    outer loop
      vertex 21.3 -71.7281 3
      vertex 23.1763 -71.3292 4
      vertex 10.3 -74.0662 3
    endloop
  endfacet
  facet normal 0.20791 -0.978148 0
    outer loop
      vertex 23.1763 -71.3292 0
      vertex 21.3 -71.7281 3
      vertex 21.3 -71.7281 0
    endloop
  endfacet
  facet normal 0.20791 -0.978148 0
    outer loop
      vertex 21.3 -71.7281 3
      vertex 23.1763 -71.3292 0
      vertex 23.1763 -71.3292 4
    endloop
  endfacet
  facet normal 0.513745 0.0539968 0.856242
    outer loop
      vertex 73.3611 15.5934 4
      vertex 45 0 22
      vertex 75 0 4
    endloop
  endfacet
  facet normal -0.513745 -0.0539968 0.856242
    outer loop
      vertex -45 0 22
      vertex -75 0 4
      vertex -73.3611 -15.5934 4
    endloop
  endfacet
  facet normal -0.303635 0.417918 0.856242
    outer loop
      vertex -22.5 38.9711 22
      vertex -37.5 64.9519 4
      vertex -30.1109 33.4415 22
    endloop
  endfacet
  facet normal 0.447367 0.258288 0.856242
    outer loop
      vertex 60.6763 44.0839 4
      vertex 36.4058 26.4503 22
      vertex 68.5159 30.5052 4
    endloop
  endfacet
  facet normal 0.513745 0.0539969 0.856242
    outer loop
      vertex 73.3611 15.5934 4
      vertex 44.0166 9.35603 22
      vertex 45 0 22
    endloop
  endfacet
  facet normal -0.303635 0.417918 0.856242
    outer loop
      vertex -37.5 64.9519 4
      vertex -50.1848 55.7359 4
      vertex -30.1109 33.4415 22
    endloop
  endfacet
  facet normal -0.491292 0.15963 0.856242
    outer loop
      vertex -68.5159 30.5052 4
      vertex -73.3611 15.5934 4
      vertex -44.0166 9.35603 22
    endloop
  endfacet
  facet normal 0 -0.516575 0.856242
    outer loop
      vertex -4.70378 -44.7535 22
      vertex 7.83963 -74.5891 4
      vertex 4.70378 -44.7535 22
    endloop
  endfacet
  facet normal 0 -0.516575 0.856242
    outer loop
      vertex 7.83963 -74.5891 4
      vertex -4.70378 -44.7535 22
      vertex -7.83963 -74.5891 4
    endloop
  endfacet
  facet normal 0.38389 0.345656 0.856242
    outer loop
      vertex 60.6763 44.0839 4
      vertex 30.1109 33.4415 22
      vertex 36.4058 26.4503 22
    endloop
  endfacet
  facet normal 0.21011 0.471915 0.856242
    outer loop
      vertex 23.1763 71.3292 4
      vertex 13.9058 42.7975 22
      vertex 37.5 64.9519 4
    endloop
  endfacet
  facet normal 0 0.516575 0.856242
    outer loop
      vertex 7.83963 74.5891 4
      vertex -4.70378 44.7535 22
      vertex 4.70378 44.7535 22
    endloop
  endfacet
  facet normal 0 0.516575 0.856242
    outer loop
      vertex -4.70378 44.7535 22
      vertex 7.83963 74.5891 4
      vertex -7.83963 74.5891 4
    endloop
  endfacet
  facet normal 0.447367 -0.258288 0.856242
    outer loop
      vertex 68.5159 -30.5052 4
      vertex 36.4058 -26.4503 22
      vertex 60.6763 -44.0839 4
    endloop
  endfacet
  facet normal 0.38389 -0.345656 0.856242
    outer loop
      vertex 60.6763 -44.0839 4
      vertex 30.1109 -33.4415 22
      vertex 50.1848 -55.7359 4
    endloop
  endfacet
  facet normal 0.513745 -0.0539968 0.856242
    outer loop
      vertex 75 0 4
      vertex 45 0 22
      vertex 73.3611 -15.5934 4
    endloop
  endfacet
  facet normal -0.38389 0.345656 0.856242
    outer loop
      vertex -50.1848 55.7359 4
      vertex -60.6763 44.0839 4
      vertex -30.1109 33.4415 22
    endloop
  endfacet
  facet normal -0.513745 0.0539968 0.856242
    outer loop
      vertex -73.3611 15.5934 4
      vertex -75 0 4
      vertex -45 0 22
    endloop
  endfacet
  facet normal -0.513745 0.0539969 0.856242
    outer loop
      vertex -44.0166 9.35603 22
      vertex -73.3611 15.5934 4
      vertex -45 0 22
    endloop
  endfacet
  facet normal -0.447367 0.258287 0.856242
    outer loop
      vertex -36.4058 26.4503 22
      vertex -68.5159 30.5052 4
      vertex -41.1095 18.3031 22
    endloop
  endfacet
  facet normal -0.38389 -0.345656 0.856242
    outer loop
      vertex -30.1109 -33.4415 22
      vertex -60.6763 -44.0839 4
      vertex -50.1848 -55.7359 4
    endloop
  endfacet
  facet normal -0.513745 -0.0539969 0.856242
    outer loop
      vertex -45 0 22
      vertex -73.3611 -15.5934 4
      vertex -44.0166 -9.35603 22
    endloop
  endfacet
  facet normal -0.303635 -0.417918 0.856242
    outer loop
      vertex -30.1109 -33.4415 22
      vertex -50.1848 -55.7359 4
      vertex -37.5 -64.9519 4
    endloop
  endfacet
  facet normal -0.21011 -0.471915 0.856242
    outer loop
      vertex -13.9058 -42.7975 22
      vertex -37.5 -64.9519 4
      vertex -23.1763 -71.3292 4
    endloop
  endfacet
  facet normal 0.21011 -0.471915 0.856242
    outer loop
      vertex 37.5 -64.9519 4
      vertex 13.9058 -42.7975 22
      vertex 23.1763 -71.3292 4
    endloop
  endfacet
  facet normal 0.491292 0.15963 0.856242
    outer loop
      vertex 68.5159 30.5052 4
      vertex 44.0166 9.35603 22
      vertex 73.3611 15.5934 4
    endloop
  endfacet
  facet normal 0.38389 0.345656 0.856242
    outer loop
      vertex 50.1848 55.7359 4
      vertex 30.1109 33.4415 22
      vertex 60.6763 44.0839 4
    endloop
  endfacet
  facet normal 0.303635 0.417918 0.856242
    outer loop
      vertex 37.5 64.9519 4
      vertex 22.5 38.9711 22
      vertex 30.1109 33.4415 22
    endloop
  endfacet
  facet normal 0.107402 0.505287 0.856242
    outer loop
      vertex 23.1763 71.3292 4
      vertex 7.83963 74.5891 4
      vertex 13.9058 42.7975 22
    endloop
  endfacet
  facet normal 0.303635 0.417918 0.856242
    outer loop
      vertex 37.5 64.9519 4
      vertex 30.1109 33.4415 22
      vertex 50.1848 55.7359 4
    endloop
  endfacet
  facet normal -0.107402 0.505287 0.856242
    outer loop
      vertex -7.83963 74.5891 4
      vertex -13.9058 42.7975 22
      vertex -4.70378 44.7535 22
    endloop
  endfacet
  facet normal -0.21011 0.471915 0.856242
    outer loop
      vertex -23.1763 71.3292 4
      vertex -37.5 64.9519 4
      vertex -13.9058 42.7975 22
    endloop
  endfacet
  facet normal 0.513745 -0.0539969 0.856242
    outer loop
      vertex 45 0 22
      vertex 44.0166 -9.35603 22
      vertex 73.3611 -15.5934 4
    endloop
  endfacet
  facet normal 0 0 1
    outer loop
      vertex 37 0 22
      vertex 45 0 22
      vertex 44.0166 9.35603 22
    endloop
  endfacet
  facet normal 0 0 1
    outer loop
      vertex 36.1915 7.69273 22
      vertex 44.0166 9.35603 22
      vertex 41.1095 18.3031 22
    endloop
  endfacet
  facet normal 0 0 1
    outer loop
      vertex 45 0 22
      vertex 37 0 22
      vertex 44.0166 -9.35603 22
    endloop
  endfacet
  facet normal -0 0 1
    outer loop
      vertex 36.1915 -7.69273 22
      vertex 44.0166 -9.35603 22
      vertex 37 0 22
    endloop
  endfacet
  facet normal 0 0 1
    outer loop
      vertex 33.8012 15.0493 22
      vertex 41.1095 18.3031 22
      vertex 36.4058 26.4503 22
    endloop
  endfacet
  facet normal 0 0 1
    outer loop
      vertex 44.0166 9.35603 22
      vertex 36.1915 7.69273 22
      vertex 37 0 22
    endloop
  endfacet
  facet normal 0 0 1
    outer loop
      vertex 41.1095 18.3031 22
      vertex 33.8012 15.0493 22
      vertex 36.1915 7.69273 22
    endloop
  endfacet
  facet normal 0 0 1
    outer loop
      vertex 29.9336 21.7481 22
      vertex 36.4058 26.4503 22
      vertex 30.1109 33.4415 22
    endloop
  endfacet
  facet normal 0 0 1
    outer loop
      vertex 36.4058 26.4503 22
      vertex 29.9336 21.7481 22
      vertex 33.8012 15.0493 22
    endloop
  endfacet
  facet normal 0 0 1
    outer loop
      vertex 30.1109 33.4415 22
      vertex 24.7578 27.4964 22
      vertex 29.9336 21.7481 22
    endloop
  endfacet
  facet normal 0 0 1
    outer loop
      vertex 22.5 38.9711 22
      vertex 24.7578 27.4964 22
      vertex 30.1109 33.4415 22
    endloop
  endfacet
  facet normal 0 0 1
    outer loop
      vertex 22.5 38.9711 22
      vertex 18.5 32.0429 22
      vertex 24.7578 27.4964 22
    endloop
  endfacet
  facet normal 0 0 1
    outer loop
      vertex 13.9058 42.7975 22
      vertex 18.5 32.0429 22
      vertex 22.5 38.9711 22
    endloop
  endfacet
  facet normal 0 0 1
    outer loop
      vertex 13.9058 42.7975 22
      vertex 11.4336 35.1891 22
      vertex 18.5 32.0429 22
    endloop
  endfacet
  facet normal 0 0 1
    outer loop
      vertex 4.70378 44.7535 22
      vertex 11.4336 35.1891 22
      vertex 13.9058 42.7975 22
    endloop
  endfacet
  facet normal 0 0 1
    outer loop
      vertex 4.70378 44.7535 22
      vertex 3.86755 36.7973 22
      vertex 11.4336 35.1891 22
    endloop
  endfacet
  facet normal 0 0 1
    outer loop
      vertex 4.70378 44.7535 22
      vertex -3.86755 36.7973 22
      vertex 3.86755 36.7973 22
    endloop
  endfacet
  facet normal -0 0 1
    outer loop
      vertex -4.70378 44.7535 22
      vertex -3.86755 36.7973 22
      vertex 4.70378 44.7535 22
    endloop
  endfacet
  facet normal 0 0 1
    outer loop
      vertex -4.70378 44.7535 22
      vertex -11.4336 35.1891 22
      vertex -3.86755 36.7973 22
    endloop
  endfacet
  facet normal -0 0 1
    outer loop
      vertex -13.9058 42.7975 22
      vertex -11.4336 35.1891 22
      vertex -4.70378 44.7535 22
    endloop
  endfacet
  facet normal 0 0 1
    outer loop
      vertex -13.9058 42.7975 22
      vertex -18.5 32.0429 22
      vertex -11.4336 35.1891 22
    endloop
  endfacet
  facet normal -0 0 1
    outer loop
      vertex -22.5 38.9711 22
      vertex -18.5 32.0429 22
      vertex -13.9058 42.7975 22
    endloop
  endfacet
  facet normal 0 0 1
    outer loop
      vertex -22.5 38.9711 22
      vertex -24.7578 27.4964 22
      vertex -18.5 32.0429 22
    endloop
  endfacet
  facet normal -0 0 1
    outer loop
      vertex -30.1109 33.4415 22
      vertex -24.7578 27.4964 22
      vertex -22.5 38.9711 22
    endloop
  endfacet
  facet normal 0 0 1
    outer loop
      vertex -24.7578 27.4964 22
      vertex -30.1109 33.4415 22
      vertex -29.9336 21.7481 22
    endloop
  endfacet
  facet normal -0 0 1
    outer loop
      vertex -36.4058 26.4503 22
      vertex -29.9336 21.7481 22
      vertex -30.1109 33.4415 22
    endloop
  endfacet
  facet normal 0 0 1
    outer loop
      vertex -29.9336 21.7481 22
      vertex -36.4058 26.4503 22
      vertex -33.8012 15.0493 22
    endloop
  endfacet
  facet normal -0 0 1
    outer loop
      vertex -41.1095 18.3031 22
      vertex -33.8012 15.0493 22
      vertex -36.4058 26.4503 22
    endloop
  endfacet
  facet normal 0 0 1
    outer loop
      vertex -33.8012 15.0493 22
      vertex -41.1095 18.3031 22
      vertex -36.1915 7.69273 22
    endloop
  endfacet
  facet normal -0 0 1
    outer loop
      vertex -44.0166 9.35603 22
      vertex -36.1915 7.69273 22
      vertex -41.1095 18.3031 22
    endloop
  endfacet
  facet normal 0 0 1
    outer loop
      vertex 44.0166 -9.35603 22
      vertex 36.1915 -7.69273 22
      vertex 41.1095 -18.3031 22
    endloop
  endfacet
  facet normal -0 0 1
    outer loop
      vertex 33.8012 -15.0493 22
      vertex 41.1095 -18.3031 22
      vertex 36.1915 -7.69273 22
    endloop
  endfacet
  facet normal 0 0 1
    outer loop
      vertex 41.1095 -18.3031 22
      vertex 33.8012 -15.0493 22
      vertex 36.4058 -26.4503 22
    endloop
  endfacet
  facet normal -0 0 1
    outer loop
      vertex 29.9336 -21.7481 22
      vertex 36.4058 -26.4503 22
      vertex 33.8012 -15.0493 22
    endloop
  endfacet
  facet normal 0 0 1
    outer loop
      vertex 36.4058 -26.4503 22
      vertex 29.9336 -21.7481 22
      vertex 30.1109 -33.4415 22
    endloop
  endfacet
  facet normal -0 0 1
    outer loop
      vertex 24.7578 -27.4964 22
      vertex 30.1109 -33.4415 22
      vertex 29.9336 -21.7481 22
    endloop
  endfacet
  facet normal 0 0 1
    outer loop
      vertex 24.7578 -27.4964 22
      vertex 22.5 -38.9711 22
      vertex 30.1109 -33.4415 22
    endloop
  endfacet
  facet normal -0 0 1
    outer loop
      vertex 18.5 -32.0429 22
      vertex 22.5 -38.9711 22
      vertex 24.7578 -27.4964 22
    endloop
  endfacet
  facet normal 0 0 1
    outer loop
      vertex 18.5 -32.0429 22
      vertex 13.9058 -42.7975 22
      vertex 22.5 -38.9711 22
    endloop
  endfacet
  facet normal -0 0 1
    outer loop
      vertex 11.4336 -35.1891 22
      vertex 13.9058 -42.7975 22
      vertex 18.5 -32.0429 22
    endloop
  endfacet
  facet normal 0 0 1
    outer loop
      vertex 11.4336 -35.1891 22
      vertex 4.70378 -44.7535 22
      vertex 13.9058 -42.7975 22
    endloop
  endfacet
  facet normal -0 0 1
    outer loop
      vertex 3.86755 -36.7973 22
      vertex 4.70378 -44.7535 22
      vertex 11.4336 -35.1891 22
    endloop
  endfacet
  facet normal -0 0 1
    outer loop
      vertex -3.86755 -36.7973 22
      vertex 4.70378 -44.7535 22
      vertex 3.86755 -36.7973 22
    endloop
  endfacet
  facet normal 0 0 1
    outer loop
      vertex -3.86755 -36.7973 22
      vertex -4.70378 -44.7535 22
      vertex 4.70378 -44.7535 22
    endloop
  endfacet
  facet normal 0 0 1
    outer loop
      vertex -11.4336 -35.1891 22
      vertex -4.70378 -44.7535 22
      vertex -3.86755 -36.7973 22
    endloop
  endfacet
  facet normal 0 0 1
    outer loop
      vertex -11.4336 -35.1891 22
      vertex -13.9058 -42.7975 22
      vertex -4.70378 -44.7535 22
    endloop
  endfacet
  facet normal 0 0 1
    outer loop
      vertex -18.5 -32.0429 22
      vertex -13.9058 -42.7975 22
      vertex -11.4336 -35.1891 22
    endloop
  endfacet
  facet normal 0 0 1
    outer loop
      vertex -18.5 -32.0429 22
      vertex -22.5 -38.9711 22
      vertex -13.9058 -42.7975 22
    endloop
  endfacet
  facet normal 0 0 1
    outer loop
      vertex -24.7578 -27.4964 22
      vertex -22.5 -38.9711 22
      vertex -18.5 -32.0429 22
    endloop
  endfacet
  facet normal 0 0 1
    outer loop
      vertex -30.1109 -33.4415 22
      vertex -24.7578 -27.4964 22
      vertex -29.9336 -21.7481 22
    endloop
  endfacet
  facet normal 0 0 1
    outer loop
      vertex -24.7578 -27.4964 22
      vertex -30.1109 -33.4415 22
      vertex -22.5 -38.9711 22
    endloop
  endfacet
  facet normal 0 0 1
    outer loop
      vertex -36.4058 -26.4503 22
      vertex -29.9336 -21.7481 22
      vertex -33.8012 -15.0493 22
    endloop
  endfacet
  facet normal 0 0 1
    outer loop
      vertex -41.1095 -18.3031 22
      vertex -33.8012 -15.0493 22
      vertex -36.1915 -7.69273 22
    endloop
  endfacet
  facet normal 0 0 1
    outer loop
      vertex -29.9336 -21.7481 22
      vertex -36.4058 -26.4503 22
      vertex -30.1109 -33.4415 22
    endloop
  endfacet
  facet normal 0 0 1
    outer loop
      vertex -44.0166 -9.35603 22
      vertex -36.1915 -7.69273 22
      vertex -37 0 22
    endloop
  endfacet
  facet normal 0 0 1
    outer loop
      vertex -36.1915 7.69273 22
      vertex -44.0166 9.35603 22
      vertex -37 0 22
    endloop
  endfacet
  facet normal 0 0 1
    outer loop
      vertex -33.8012 -15.0493 22
      vertex -41.1095 -18.3031 22
      vertex -36.4058 -26.4503 22
    endloop
  endfacet
  facet normal 0 0 1
    outer loop
      vertex -45 0 22
      vertex -37 0 22
      vertex -44.0166 9.35603 22
    endloop
  endfacet
  facet normal 0 0 1
    outer loop
      vertex -36.1915 -7.69273 22
      vertex -44.0166 -9.35603 22
      vertex -41.1095 -18.3031 22
    endloop
  endfacet
  facet normal 0 0 1
    outer loop
      vertex -37 0 22
      vertex -45 0 22
      vertex -44.0166 -9.35603 22
    endloop
  endfacet
  facet normal -0.491292 0.15963 0.856242
    outer loop
      vertex -41.1095 18.3031 22
      vertex -68.5159 30.5052 4
      vertex -44.0166 9.35603 22
    endloop
  endfacet
  facet normal -0.38389 0.345656 0.856242
    outer loop
      vertex -30.1109 33.4415 22
      vertex -60.6763 44.0839 4
      vertex -36.4058 26.4503 22
    endloop
  endfacet
  facet normal -0.447367 0.258288 0.856242
    outer loop
      vertex -60.6763 44.0839 4
      vertex -68.5159 30.5052 4
      vertex -36.4058 26.4503 22
    endloop
  endfacet
  facet normal -0.491292 -0.15963 0.856242
    outer loop
      vertex -44.0166 -9.35603 22
      vertex -73.3611 -15.5934 4
      vertex -68.5159 -30.5052 4
    endloop
  endfacet
  facet normal -0.447367 -0.258288 0.856242
    outer loop
      vertex -36.4058 -26.4503 22
      vertex -68.5159 -30.5052 4
      vertex -60.6763 -44.0839 4
    endloop
  endfacet
  facet normal -0.38389 -0.345656 0.856242
    outer loop
      vertex -36.4058 -26.4503 22
      vertex -60.6763 -44.0839 4
      vertex -30.1109 -33.4415 22
    endloop
  endfacet
  facet normal -0.303635 -0.417918 0.856242
    outer loop
      vertex -30.1109 -33.4415 22
      vertex -37.5 -64.9519 4
      vertex -22.5 -38.9711 22
    endloop
  endfacet
  facet normal 0.107402 -0.505287 0.856242
    outer loop
      vertex 13.9058 -42.7975 22
      vertex 4.70378 -44.7535 22
      vertex 7.83963 -74.5891 4
    endloop
  endfacet
  facet normal 0.303635 -0.417918 0.856242
    outer loop
      vertex 50.1848 -55.7359 4
      vertex 30.1109 -33.4415 22
      vertex 37.5 -64.9519 4
    endloop
  endfacet
  facet normal 0.21011 -0.471915 0.856242
    outer loop
      vertex 22.5 -38.9711 22
      vertex 13.9058 -42.7975 22
      vertex 37.5 -64.9519 4
    endloop
  endfacet
  facet normal 0.491292 0.15963 0.856242
    outer loop
      vertex 68.5159 30.5052 4
      vertex 41.1095 18.3031 22
      vertex 44.0166 9.35603 22
    endloop
  endfacet
  facet normal 0.447367 0.258287 0.856242
    outer loop
      vertex 68.5159 30.5052 4
      vertex 36.4058 26.4503 22
      vertex 41.1095 18.3031 22
    endloop
  endfacet
  facet normal 0.107402 0.505287 0.856242
    outer loop
      vertex 7.83963 74.5891 4
      vertex 4.70378 44.7535 22
      vertex 13.9058 42.7975 22
    endloop
  endfacet
  facet normal 0.21011 0.471915 0.856242
    outer loop
      vertex 37.5 64.9519 4
      vertex 13.9058 42.7975 22
      vertex 22.5 38.9711 22
    endloop
  endfacet
  facet normal -0.21011 0.471915 0.856242
    outer loop
      vertex -13.9058 42.7975 22
      vertex -37.5 64.9519 4
      vertex -22.5 38.9711 22
    endloop
  endfacet
  facet normal -0.107402 0.505287 0.856242
    outer loop
      vertex -7.83963 74.5891 4
      vertex -23.1763 71.3292 4
      vertex -13.9058 42.7975 22
    endloop
  endfacet
  facet normal 0.38389 -0.345656 0.856242
    outer loop
      vertex 36.4058 -26.4503 22
      vertex 30.1109 -33.4415 22
      vertex 60.6763 -44.0839 4
    endloop
  endfacet
  facet normal -0.491292 -0.15963 0.856242
    outer loop
      vertex -44.0166 -9.35603 22
      vertex -68.5159 -30.5052 4
      vertex -41.1095 -18.3031 22
    endloop
  endfacet
  facet normal -0.447367 -0.258287 0.856242
    outer loop
      vertex -41.1095 -18.3031 22
      vertex -68.5159 -30.5052 4
      vertex -36.4058 -26.4503 22
    endloop
  endfacet
  facet normal -0.107402 -0.505287 0.856242
    outer loop
      vertex -13.9058 -42.7975 22
      vertex -23.1763 -71.3292 4
      vertex -7.83963 -74.5891 4
    endloop
  endfacet
  facet normal -0.107402 -0.505287 0.856242
    outer loop
      vertex -4.70378 -44.7535 22
      vertex -13.9058 -42.7975 22
      vertex -7.83963 -74.5891 4
    endloop
  endfacet
  facet normal 0.107402 -0.505287 0.856242
    outer loop
      vertex 13.9058 -42.7975 22
      vertex 7.83963 -74.5891 4
      vertex 23.1763 -71.3292 4
    endloop
  endfacet
  facet normal 0.303635 -0.417918 0.856242
    outer loop
      vertex 30.1109 -33.4415 22
      vertex 22.5 -38.9711 22
      vertex 37.5 -64.9519 4
    endloop
  endfacet
  facet normal 0.447367 -0.258287 0.856242
    outer loop
      vertex 41.1095 -18.3031 22
      vertex 36.4058 -26.4503 22
      vertex 68.5159 -30.5052 4
    endloop
  endfacet
  facet normal 0.491292 -0.15963 0.856242
    outer loop
      vertex 73.3611 -15.5934 4
      vertex 44.0166 -9.35603 22
      vertex 68.5159 -30.5052 4
    endloop
  endfacet
  facet normal -0.21011 -0.471915 0.856242
    outer loop
      vertex -22.5 -38.9711 22
      vertex -37.5 -64.9519 4
      vertex -13.9058 -42.7975 22
    endloop
  endfacet
  facet normal 0.491292 -0.15963 0.856242
    outer loop
      vertex 44.0166 -9.35603 22
      vertex 41.1095 -18.3031 22
      vertex 68.5159 -30.5052 4
    endloop
  endfacet
  facet normal 1 -0 0
    outer loop
      vertex -54.9 -50.4991 3
      vertex -54.9 50.4991 0
      vertex -54.9 50.4991 3
    endloop
  endfacet
  facet normal 1 0 0
    outer loop
      vertex -54.9 50.4991 0
      vertex -54.9 -50.4991 3
      vertex -54.9 -50.4991 0
    endloop
  endfacet
  facet normal 0 0 -1
    outer loop
      vertex -54.9 -50.4991 3
      vertex -43.9 -60.302 3
      vertex -50.1848 -55.7359 3
    endloop
  endfacet
  facet normal 0 0 -1
    outer loop
      vertex -43.9 -60.302 3
      vertex -54.9 -50.4991 3
      vertex -43.9 60.302 3
    endloop
  endfacet
  facet normal 0 0 -1
    outer loop
      vertex -54.9 50.4991 3
      vertex -43.9 60.302 3
      vertex -54.9 -50.4991 3
    endloop
  endfacet
  facet normal 0 0 -1
    outer loop
      vertex -43.9 60.302 3
      vertex -54.9 50.4991 3
      vertex -50.1848 55.7359 3
    endloop
  endfacet
  facet normal -1 0 0
    outer loop
      vertex -43.9 -60.302 0
      vertex -43.9 60.302 3
      vertex -43.9 60.302 0
    endloop
  endfacet
  facet normal -1 -0 0
    outer loop
      vertex -43.9 60.302 3
      vertex -43.9 -60.302 0
      vertex -43.9 -60.302 3
    endloop
  endfacet
  facet normal 1 -0 0
    outer loop
      vertex -22.3 -71.5155 3
      vertex -22.3 71.5155 0
      vertex -22.3 71.5155 3
    endloop
  endfacet
  facet normal 1 0 0
    outer loop
      vertex -22.3 71.5155 0
      vertex -22.3 -71.5155 3
      vertex -22.3 -71.5155 0
    endloop
  endfacet
  facet normal 0 0 -1
    outer loop
      vertex -22.3 -71.5155 3
      vertex -11.3 73.8536 3
      vertex -11.3 -73.8536 3
    endloop
  endfacet
  facet normal 0 0 -1
    outer loop
      vertex -11.3 73.8536 3
      vertex -22.3 -71.5155 3
      vertex -22.3 71.5155 3
    endloop
  endfacet
  facet normal -1 0 0
    outer loop
      vertex -11.3 -73.8536 0
      vertex -11.3 73.8536 3
      vertex -11.3 73.8536 0
    endloop
  endfacet
  facet normal -1 -0 0
    outer loop
      vertex -11.3 73.8536 3
      vertex -11.3 -73.8536 0
      vertex -11.3 -73.8536 3
    endloop
  endfacet
  facet normal 1 -0 0
    outer loop
      vertex 10.3 -74.0662 3
      vertex 10.3 74.0662 0
      vertex 10.3 74.0662 3
    endloop
  endfacet
  facet normal 1 0 0
    outer loop
      vertex 10.3 74.0662 0
      vertex 10.3 -74.0662 3
      vertex 10.3 -74.0662 0
    endloop
  endfacet
  facet normal 0 0 -1
    outer loop
      vertex 10.3 -74.0662 3
      vertex 21.3 71.7281 3
      vertex 21.3 -71.7281 3
    endloop
  endfacet
  facet normal -0 0 -1
    outer loop
      vertex 21.3 71.7281 3
      vertex 10.3 -74.0662 3
      vertex 10.3 74.0662 3
    endloop
  endfacet
  facet normal -1 0 0
    outer loop
      vertex 21.3 -71.7281 0
      vertex 21.3 71.7281 3
      vertex 21.3 71.7281 0
    endloop
  endfacet
  facet normal -1 -0 0
    outer loop
      vertex 21.3 71.7281 3
      vertex 21.3 -71.7281 0
      vertex 21.3 -71.7281 3
    endloop
  endfacet
  facet normal 1 -0 0
    outer loop
      vertex 42.9 -61.0286 3
      vertex 42.9 61.0286 0
      vertex 42.9 61.0286 3
    endloop
  endfacet
  facet normal 1 0 0
    outer loop
      vertex 42.9 61.0286 0
      vertex 42.9 -61.0286 3
      vertex 42.9 -61.0286 0
    endloop
  endfacet
  facet normal 0 0 -1
    outer loop
      vertex 42.9 -61.0286 3
      vertex 53.9 -51.6097 3
      vertex 50.1848 -55.7359 3
    endloop
  endfacet
  facet normal -0 0 -1
    outer loop
      vertex 53.9 -51.6097 3
      vertex 42.9 -61.0286 3
      vertex 53.9 51.6097 3
    endloop
  endfacet
  facet normal 0 0 -1
    outer loop
      vertex 42.9 61.0286 3
      vertex 53.9 51.6097 3
      vertex 42.9 -61.0286 3
    endloop
  endfacet
  facet normal 0 0 -1
    outer loop
      vertex 53.9 51.6097 3
      vertex 42.9 61.0286 3
      vertex 50.1848 55.7359 3
    endloop
  endfacet
  facet normal -1 0 0
    outer loop
      vertex 53.9 -51.6097 0
      vertex 53.9 51.6097 3
      vertex 53.9 51.6097 0
    endloop
  endfacet
  facet normal -1 -0 0
    outer loop
      vertex 53.9 51.6097 3
      vertex 53.9 -51.6097 0
      vertex 53.9 -51.6097 3
    endloop
  endfacet
  facet normal -0.866025 -0.5 0
    outer loop
      vertex 33.8012 15.0493 4
      vertex 29.9336 21.7481 22
      vertex 29.9336 21.7481 4
    endloop
  endfacet
  facet normal -0.866025 -0.5 0
    outer loop
      vertex 29.9336 21.7481 22
      vertex 33.8012 15.0493 4
      vertex 33.8012 15.0493 22
    endloop
  endfacet
  facet normal -0.743145 -0.669131 0
    outer loop
      vertex 29.9336 21.7481 4
      vertex 24.7578 27.4964 22
      vertex 24.7578 27.4964 4
    endloop
  endfacet
  facet normal -0.743145 -0.669131 0
    outer loop
      vertex 24.7578 27.4964 22
      vertex 29.9336 21.7481 4
      vertex 29.9336 21.7481 22
    endloop
  endfacet
  facet normal -0.207912 -0.978148 0
    outer loop
      vertex 3.86755 36.7973 4
      vertex 11.4336 35.1891 22
      vertex 3.86755 36.7973 22
    endloop
  endfacet
  facet normal -0.207912 -0.978148 -0
    outer loop
      vertex 11.4336 35.1891 22
      vertex 3.86755 36.7973 4
      vertex 11.4336 35.1891 4
    endloop
  endfacet
  facet normal 0.207912 -0.978148 0
    outer loop
      vertex -11.4336 35.1891 4
      vertex -3.86755 36.7973 22
      vertex -11.4336 35.1891 22
    endloop
  endfacet
  facet normal 0.207912 -0.978148 0
    outer loop
      vertex -3.86755 36.7973 22
      vertex -11.4336 35.1891 4
      vertex -3.86755 36.7973 4
    endloop
  endfacet
  facet normal 0.866025 -0.5 0
    outer loop
      vertex -33.8012 15.0493 22
      vertex -29.9336 21.7481 4
      vertex -29.9336 21.7481 22
    endloop
  endfacet
  facet normal 0.866025 -0.5 0
    outer loop
      vertex -29.9336 21.7481 4
      vertex -33.8012 15.0493 22
      vertex -33.8012 15.0493 4
    endloop
  endfacet
  facet normal -0.994522 0.104529 0
    outer loop
      vertex 36.1915 -7.69273 4
      vertex 37 0 22
      vertex 37 0 4
    endloop
  endfacet
  facet normal -0.994522 0.104529 0
    outer loop
      vertex 37 0 22
      vertex 36.1915 -7.69273 4
      vertex 36.1915 -7.69273 22
    endloop
  endfacet
  facet normal -0.587785 -0.809017 0
    outer loop
      vertex 18.5 32.0429 4
      vertex 24.7578 27.4964 22
      vertex 18.5 32.0429 22
    endloop
  endfacet
  facet normal -0.587785 -0.809017 -0
    outer loop
      vertex 24.7578 27.4964 22
      vertex 18.5 32.0429 4
      vertex 24.7578 27.4964 4
    endloop
  endfacet
  facet normal 0 -1 0
    outer loop
      vertex -3.86755 36.7973 4
      vertex 3.86755 36.7973 22
      vertex -3.86755 36.7973 22
    endloop
  endfacet
  facet normal 0 -1 -0
    outer loop
      vertex 3.86755 36.7973 22
      vertex -3.86755 36.7973 4
      vertex 3.86755 36.7973 4
    endloop
  endfacet
  facet normal -0.406737 -0.913545 0
    outer loop
      vertex 11.4336 35.1891 4
      vertex 18.5 32.0429 22
      vertex 11.4336 35.1891 22
    endloop
  endfacet
  facet normal -0.406737 -0.913545 -0
    outer loop
      vertex 18.5 32.0429 22
      vertex 11.4336 35.1891 4
      vertex 18.5 32.0429 4
    endloop
  endfacet
  facet normal 0.994522 -0.104529 0
    outer loop
      vertex -37 0 22
      vertex -36.1915 7.69273 4
      vertex -36.1915 7.69273 22
    endloop
  endfacet
  facet normal 0.994522 -0.104529 0
    outer loop
      vertex -36.1915 7.69273 4
      vertex -37 0 22
      vertex -37 0 4
    endloop
  endfacet
  facet normal 0.743145 -0.669131 0
    outer loop
      vertex -29.9336 21.7481 22
      vertex -24.7578 27.4964 4
      vertex -24.7578 27.4964 22
    endloop
  endfacet
  facet normal 0.743145 -0.669131 0
    outer loop
      vertex -24.7578 27.4964 4
      vertex -29.9336 21.7481 22
      vertex -29.9336 21.7481 4
    endloop
  endfacet
  facet normal 0.406737 -0.913545 0
    outer loop
      vertex -18.5 32.0429 4
      vertex -11.4336 35.1891 22
      vertex -18.5 32.0429 22
    endloop
  endfacet
  facet normal 0.406737 -0.913545 0
    outer loop
      vertex -11.4336 35.1891 22
      vertex -18.5 32.0429 4
      vertex -11.4336 35.1891 4
    endloop
  endfacet
  facet normal 0.587785 -0.809017 0
    outer loop
      vertex -24.7578 27.4964 4
      vertex -18.5 32.0429 22
      vertex -24.7578 27.4964 22
    endloop
  endfacet
  facet normal 0.587785 -0.809017 0
    outer loop
      vertex -18.5 32.0429 22
      vertex -24.7578 27.4964 4
      vertex -18.5 32.0429 4
    endloop
  endfacet
  facet normal -0.994522 -0.104529 0
    outer loop
      vertex 37 0 4
      vertex 36.1915 7.69273 22
      vertex 36.1915 7.69273 4
    endloop
  endfacet
  facet normal -0.994522 -0.104529 0
    outer loop
      vertex 36.1915 7.69273 22
      vertex 37 0 4
      vertex 37 0 22
    endloop
  endfacet
  facet normal -0.951057 0.309017 0
    outer loop
      vertex 33.8012 -15.0493 4
      vertex 36.1915 -7.69273 22
      vertex 36.1915 -7.69273 4
    endloop
  endfacet
  facet normal -0.951057 0.309017 0
    outer loop
      vertex 36.1915 -7.69273 22
      vertex 33.8012 -15.0493 4
      vertex 33.8012 -15.0493 22
    endloop
  endfacet
  facet normal 0.587785 0.809017 -0
    outer loop
      vertex -18.5 -32.0429 4
      vertex -24.7578 -27.4964 22
      vertex -18.5 -32.0429 22
    endloop
  endfacet
  facet normal 0.587785 0.809017 0
    outer loop
      vertex -24.7578 -27.4964 22
      vertex -18.5 -32.0429 4
      vertex -24.7578 -27.4964 4
    endloop
  endfacet
  facet normal 0.866025 0.5 0
    outer loop
      vertex -29.9336 -21.7481 22
      vertex -33.8012 -15.0493 4
      vertex -33.8012 -15.0493 22
    endloop
  endfacet
  facet normal 0.866025 0.5 0
    outer loop
      vertex -33.8012 -15.0493 4
      vertex -29.9336 -21.7481 22
      vertex -29.9336 -21.7481 4
    endloop
  endfacet
  facet normal -0.587785 0.809017 0
    outer loop
      vertex 24.7578 -27.4964 4
      vertex 18.5 -32.0429 22
      vertex 24.7578 -27.4964 22
    endloop
  endfacet
  facet normal -0.587785 0.809017 0
    outer loop
      vertex 18.5 -32.0429 22
      vertex 24.7578 -27.4964 4
      vertex 18.5 -32.0429 4
    endloop
  endfacet
  facet normal -0.951057 -0.309017 0
    outer loop
      vertex 36.1915 7.69273 4
      vertex 33.8012 15.0493 22
      vertex 33.8012 15.0493 4
    endloop
  endfacet
  facet normal -0.951057 -0.309017 0
    outer loop
      vertex 33.8012 15.0493 22
      vertex 36.1915 7.69273 4
      vertex 36.1915 7.69273 22
    endloop
  endfacet
  facet normal 0.951057 -0.309017 0
    outer loop
      vertex -36.1915 7.69273 22
      vertex -33.8012 15.0493 4
      vertex -33.8012 15.0493 22
    endloop
  endfacet
  facet normal 0.951057 -0.309017 0
    outer loop
      vertex -33.8012 15.0493 4
      vertex -36.1915 7.69273 22
      vertex -36.1915 7.69273 4
    endloop
  endfacet
  facet normal -0.866025 0.5 0
    outer loop
      vertex 29.9336 -21.7481 4
      vertex 33.8012 -15.0493 22
      vertex 33.8012 -15.0493 4
    endloop
  endfacet
  facet normal -0.866025 0.5 0
    outer loop
      vertex 33.8012 -15.0493 22
      vertex 29.9336 -21.7481 4
      vertex 29.9336 -21.7481 22
    endloop
  endfacet
  facet normal 0.994522 0.104529 0
    outer loop
      vertex -36.1915 -7.69273 22
      vertex -37 0 4
      vertex -37 0 22
    endloop
  endfacet
  facet normal 0.994522 0.104529 0
    outer loop
      vertex -37 0 4
      vertex -36.1915 -7.69273 22
      vertex -36.1915 -7.69273 4
    endloop
  endfacet
  facet normal 0.743145 0.669131 0
    outer loop
      vertex -24.7578 -27.4964 22
      vertex -29.9336 -21.7481 4
      vertex -29.9336 -21.7481 22
    endloop
  endfacet
  facet normal 0.743145 0.669131 0
    outer loop
      vertex -29.9336 -21.7481 4
      vertex -24.7578 -27.4964 22
      vertex -24.7578 -27.4964 4
    endloop
  endfacet
  facet normal -0.207912 0.978148 0
    outer loop
      vertex 11.4336 -35.1891 4
      vertex 3.86755 -36.7973 22
      vertex 11.4336 -35.1891 22
    endloop
  endfacet
  facet normal -0.207912 0.978148 0
    outer loop
      vertex 3.86755 -36.7973 22
      vertex 11.4336 -35.1891 4
      vertex 3.86755 -36.7973 4
    endloop
  endfacet
  facet normal -0.406737 0.913545 0
    outer loop
      vertex 18.5 -32.0429 4
      vertex 11.4336 -35.1891 22
      vertex 18.5 -32.0429 22
    endloop
  endfacet
  facet normal -0.406737 0.913545 0
    outer loop
      vertex 11.4336 -35.1891 22
      vertex 18.5 -32.0429 4
      vertex 11.4336 -35.1891 4
    endloop
  endfacet
  facet normal 0.406737 0.913545 -0
    outer loop
      vertex -11.4336 -35.1891 4
      vertex -18.5 -32.0429 22
      vertex -11.4336 -35.1891 22
    endloop
  endfacet
  facet normal 0.406737 0.913545 0
    outer loop
      vertex -18.5 -32.0429 22
      vertex -11.4336 -35.1891 4
      vertex -18.5 -32.0429 4
    endloop
  endfacet
  facet normal 0 1 -0
    outer loop
      vertex 3.86755 -36.7973 4
      vertex -3.86755 -36.7973 22
      vertex 3.86755 -36.7973 22
    endloop
  endfacet
  facet normal 0 1 0
    outer loop
      vertex -3.86755 -36.7973 22
      vertex 3.86755 -36.7973 4
      vertex -3.86755 -36.7973 4
    endloop
  endfacet
  facet normal 0 0 1
    outer loop
      vertex 36.1915 7.69273 4
      vertex 36.1915 -7.69273 4
      vertex 37 0 4
    endloop
  endfacet
  facet normal 0 0 1
    outer loop
      vertex 33.8012 15.0493 4
      vertex 36.1915 -7.69273 4
      vertex 36.1915 7.69273 4
    endloop
  endfacet
  facet normal 0 0 1
    outer loop
      vertex 33.8012 15.0493 4
      vertex 33.8012 -15.0493 4
      vertex 36.1915 -7.69273 4
    endloop
  endfacet
  facet normal 0 0 1
    outer loop
      vertex 29.9336 21.7481 4
      vertex 33.8012 -15.0493 4
      vertex 33.8012 15.0493 4
    endloop
  endfacet
  facet normal 0 0 1
    outer loop
      vertex 29.9336 21.7481 4
      vertex 29.9336 -21.7481 4
      vertex 33.8012 -15.0493 4
    endloop
  endfacet
  facet normal 0 0 1
    outer loop
      vertex 24.7578 27.4964 4
      vertex 29.9336 -21.7481 4
      vertex 29.9336 21.7481 4
    endloop
  endfacet
  facet normal 0 0 1
    outer loop
      vertex 24.7578 27.4964 4
      vertex 24.7578 -27.4964 4
      vertex 29.9336 -21.7481 4
    endloop
  endfacet
  facet normal 0 0 1
    outer loop
      vertex 18.5 32.0429 4
      vertex 24.7578 -27.4964 4
      vertex 24.7578 27.4964 4
    endloop
  endfacet
  facet normal 0 0 1
    outer loop
      vertex 18.5 32.0429 4
      vertex 18.5 -32.0429 4
      vertex 24.7578 -27.4964 4
    endloop
  endfacet
  facet normal 0 0 1
    outer loop
      vertex 11.4336 35.1891 4
      vertex 18.5 -32.0429 4
      vertex 18.5 32.0429 4
    endloop
  endfacet
  facet normal 0 0 1
    outer loop
      vertex 11.4336 35.1891 4
      vertex 11.4336 -35.1891 4
      vertex 18.5 -32.0429 4
    endloop
  endfacet
  facet normal 0 0 1
    outer loop
      vertex 3.86755 36.7973 4
      vertex 11.4336 -35.1891 4
      vertex 11.4336 35.1891 4
    endloop
  endfacet
  facet normal 0 0 1
    outer loop
      vertex 3.86755 36.7973 4
      vertex 3.86755 -36.7973 4
      vertex 11.4336 -35.1891 4
    endloop
  endfacet
  facet normal -0 0 1
    outer loop
      vertex -3.86755 36.7973 4
      vertex 3.86755 -36.7973 4
      vertex 3.86755 36.7973 4
    endloop
  endfacet
  facet normal 0 0 1
    outer loop
      vertex -3.86755 36.7973 4
      vertex -3.86755 -36.7973 4
      vertex 3.86755 -36.7973 4
    endloop
  endfacet
  facet normal -0 0 1
    outer loop
      vertex -11.4336 35.1891 4
      vertex -3.86755 -36.7973 4
      vertex -3.86755 36.7973 4
    endloop
  endfacet
  facet normal 0 0 1
    outer loop
      vertex -11.4336 35.1891 4
      vertex -11.4336 -35.1891 4
      vertex -3.86755 -36.7973 4
    endloop
  endfacet
  facet normal -0 0 1
    outer loop
      vertex -18.5 32.0429 4
      vertex -11.4336 -35.1891 4
      vertex -11.4336 35.1891 4
    endloop
  endfacet
  facet normal 0 0 1
    outer loop
      vertex -18.5 32.0429 4
      vertex -18.5 -32.0429 4
      vertex -11.4336 -35.1891 4
    endloop
  endfacet
  facet normal -0 0 1
    outer loop
      vertex -24.7578 27.4964 4
      vertex -18.5 -32.0429 4
      vertex -18.5 32.0429 4
    endloop
  endfacet
  facet normal 0 0 1
    outer loop
      vertex -24.7578 27.4964 4
      vertex -24.7578 -27.4964 4
      vertex -18.5 -32.0429 4
    endloop
  endfacet
  facet normal -0 0 1
    outer loop
      vertex -29.9336 21.7481 4
      vertex -24.7578 -27.4964 4
      vertex -24.7578 27.4964 4
    endloop
  endfacet
  facet normal 0 0 1
    outer loop
      vertex -29.9336 21.7481 4
      vertex -29.9336 -21.7481 4
      vertex -24.7578 -27.4964 4
    endloop
  endfacet
  facet normal -0 0 1
    outer loop
      vertex -33.8012 15.0493 4
      vertex -29.9336 -21.7481 4
      vertex -29.9336 21.7481 4
    endloop
  endfacet
  facet normal 0 0 1
    outer loop
      vertex -33.8012 15.0493 4
      vertex -33.8012 -15.0493 4
      vertex -29.9336 -21.7481 4
    endloop
  endfacet
  facet normal -0 0 1
    outer loop
      vertex -36.1915 7.69273 4
      vertex -33.8012 -15.0493 4
      vertex -33.8012 15.0493 4
    endloop
  endfacet
  facet normal 0 0 1
    outer loop
      vertex -36.1915 7.69273 4
      vertex -36.1915 -7.69273 4
      vertex -33.8012 -15.0493 4
    endloop
  endfacet
  facet normal 0 -0 1
    outer loop
      vertex -36.1915 -7.69273 4
      vertex -36.1915 7.69273 4
      vertex -37 0 4
    endloop
  endfacet
  facet normal 0.951057 0.309017 0
    outer loop
      vertex -33.8012 -15.0493 22
      vertex -36.1915 -7.69273 4
      vertex -36.1915 -7.69273 22
    endloop
  endfacet
  facet normal 0.951057 0.309017 0
    outer loop
      vertex -36.1915 -7.69273 4
      vertex -33.8012 -15.0493 22
      vertex -33.8012 -15.0493 4
    endloop
  endfacet
  facet normal -0.743145 0.669131 0
    outer loop
      vertex 24.7578 -27.4964 4
      vertex 29.9336 -21.7481 22
      vertex 29.9336 -21.7481 4
    endloop
  endfacet
  facet normal -0.743145 0.669131 0
    outer loop
      vertex 29.9336 -21.7481 22
      vertex 24.7578 -27.4964 4
      vertex 24.7578 -27.4964 22
    endloop
  endfacet
  facet normal 0.207912 0.978148 -0
    outer loop
      vertex -3.86755 -36.7973 4
      vertex -11.4336 -35.1891 22
      vertex -3.86755 -36.7973 22
    endloop
  endfacet
  facet normal 0.207912 0.978148 0
    outer loop
      vertex -11.4336 -35.1891 22
      vertex -3.86755 -36.7973 4
      vertex -11.4336 -35.1891 4
    endloop
  endfacet
endsolid OpenSCAD_Model
